<?xml version="1.0" standalone="no"?>
<!DOCTYPE svg PUBLIC "-//W3C//DTD SVG 20010904//EN"
 "http://www.w3.org/TR/2001/REC-SVG-20010904/DTD/svg10.dtd">
<svg version="1.0" xmlns="http://www.w3.org/2000/svg"
 width="2145.000000pt" height="2068.000000pt" viewBox="0 0 2145.000000 2068.000000"
 preserveAspectRatio="xMidYMid meet">

<g transform="translate(0.000000,2068.000000) scale(0.100000,-0.100000)"
fill="#000000" stroke="none">
<path d="M7630 20536 c0 -2 8 -10 18 -17 15 -13 16 -12 3 4 -13 16 -21 21 -21
13z"/>
<path d="M7935 20297 c2 -34 13 -47 41 -47 14 0 47 -11 74 -25 39 -20 64 -25
123 -25 86 0 134 -14 142 -41 8 -23 9 -23 69 -3 l47 16 34 -38 c20 -23 42 -64
53 -98 14 -48 24 -64 55 -83 l37 -23 -39 107 c-50 142 -77 193 -100 193 -10 0
-38 -7 -62 -16 -38 -13 -56 -14 -134 -3 -73 10 -108 21 -187 61 -110 54 -154
62 -153 25z"/>
<path d="M13412 20201 c-43 -79 -47 -291 -8 -423 21 -72 65 -140 87 -133 10 4
21 -1 27 -10 5 -10 27 -19 53 -22 l44 -6 -48 46 c-26 26 -52 47 -56 47 -34 0
-60 144 -70 380 l-6 165 -23 -44z"/>
<path d="M8321 18580 c-40 -11 -79 -24 -85 -29 -6 -5 -31 -12 -56 -16 -25 -3
-67 -17 -95 -30 -27 -12 -75 -31 -105 -40 -30 -10 -59 -21 -65 -25 -5 -4 -34
-15 -63 -25 -29 -9 -51 -19 -49 -21 2 -2 21 2 43 9 21 8 62 17 91 21 28 3 89
22 135 40 46 18 108 39 138 45 30 7 73 20 95 28 25 10 93 18 180 22 139 7 171
13 160 32 -11 17 -244 9 -324 -11z"/>
<path d="M9031 18591 c-23 -15 -3 -29 47 -36 131 -17 251 -38 287 -50 22 -8
60 -19 83 -25 32 -8 42 -15 38 -26 -4 -11 0 -15 17 -12 15 2 23 11 25 28 2 22
-4 29 -43 48 -25 12 -64 25 -88 28 -23 3 -97 17 -163 30 -129 25 -180 29 -203
15z"/>
<path d="M9785 18471 l-40 -6 52 -18 c29 -10 55 -23 58 -28 9 -14 35 -11 33 4
-2 9 29 14 117 18 69 4 137 13 160 22 38 15 31 16 -150 15 -104 -1 -208 -4
-230 -7z"/>
<path d="M11185 18464 c22 -7 47 -18 55 -23 39 -22 289 -36 473 -26 131 8 154
23 36 24 -31 1 -123 10 -204 21 -87 12 -199 20 -274 19 -121 0 -124 -1 -86
-15z"/>
<path d="M12703 18465 c-29 -8 -71 -24 -93 -35 -47 -24 -112 -79 -105 -89 2
-4 41 -8 87 -9 46 0 139 -12 207 -26 68 -14 132 -26 142 -26 32 0 97 52 103
83 9 46 -7 62 -91 86 -100 30 -184 35 -250 16z"/>
<path d="M9250 18440 c-34 -11 73 -11 115 0 24 6 17 8 -30 8 -33 0 -71 -4 -85
-8z"/>
<path d="M9665 18433 c-11 -3 -54 -16 -95 -29 -51 -17 -109 -27 -180 -30 -96
-5 -111 -4 -175 20 -79 29 -142 33 -171 11 -19 -15 -19 -15 0 -30 18 -14 19
-19 7 -50 -19 -53 -5 -124 26 -136 38 -14 105 -11 194 11 64 15 121 20 253 20
100 1 183 -3 199 -9 16 -6 64 -11 107 -11 44 0 103 -6 132 -13 55 -13 482 -16
495 -4 3 4 20 7 37 7 37 0 28 10 -41 44 -44 23 -70 27 -177 33 -69 3 -126 9
-126 13 0 4 39 8 88 10 48 1 121 5 162 9 l75 7 -135 8 c-96 6 -157 15 -211 32
-92 29 -169 41 -169 26 0 -5 19 -13 43 -17 23 -3 67 -15 97 -25 44 -14 49 -18
26 -19 -15 -1 -55 6 -88 14 -41 11 -64 13 -72 6 -7 -6 -39 -10 -71 -9 l-59 2
58 19 c31 10 55 21 52 24 -6 7 -217 -26 -238 -38 -24 -13 -38 -11 -38 4 0 9
-13 11 -42 9 -56 -5 -46 3 43 38 40 15 75 33 77 38 5 16 -42 25 -83 15z"/>
<path d="M10125 18410 c-13 -6 -15 -9 -5 -9 8 0 22 4 30 9 18 12 2 12 -25 0z"/>
<path d="M8454 18392 c3 -5 -14 -18 -37 -29 -23 -11 -57 -28 -76 -37 -19 -9
-48 -16 -65 -17 -26 0 -28 -2 -11 -9 11 -5 38 -9 59 -9 84 -2 20 -14 -109 -22
-74 -4 -150 -10 -167 -14 -26 -5 -30 -4 -18 5 12 10 11 11 -5 4 -32 -12 -272
-26 -365 -21 -101 6 -188 -6 -238 -33 -20 -11 -52 -20 -70 -20 -26 0 -33 -4
-28 -15 8 -21 -18 -32 -146 -61 -120 -27 -162 -43 -118 -44 21 -1 18 -5 -20
-21 -24 -11 -47 -24 -50 -29 -3 -5 -20 -12 -39 -15 -18 -3 -54 -16 -80 -30
-49 -24 -231 -143 -231 -150 0 -2 20 2 44 9 38 12 82 36 246 135 20 12 18 8
-10 -23 -62 -67 -197 -149 -313 -190 -70 -25 -120 -50 -144 -72 -37 -32 -37
-33 -13 -34 14 0 48 15 76 34 l50 34 -1 -26 c0 -22 -10 -29 -70 -54 -38 -15
-75 -26 -82 -23 -25 9 -112 -23 -162 -58 l-51 -37 -330 0 c-182 0 -330 -2
-330 -4 0 -3 7 -33 15 -68 8 -35 19 -103 25 -153 16 -138 0 -125 158 -125 75
0 231 5 346 11 167 10 232 9 324 -1 88 -10 118 -11 133 -2 14 9 19 9 19 1 0
-21 204 -4 302 25 73 22 95 34 131 69 24 24 86 69 139 100 53 31 100 61 103
67 3 6 23 19 43 30 22 11 30 19 20 20 -10 0 -18 4 -18 9 0 11 35 21 76 21 34
0 139 42 167 68 14 12 15 17 5 24 -10 6 -9 11 5 22 24 18 22 25 -13 37 -33 12
-38 30 -15 49 12 10 15 10 15 -4 0 -14 14 -16 99 -16 83 0 119 6 218 34 152
44 289 101 331 137 18 16 36 29 40 29 10 1 113 100 197 191 79 85 101 132 79
173 -7 14 -9 26 -3 26 5 0 9 4 9 10 0 5 -28 10 -62 12 l-63 3 78 39 c42 21 77
40 77 42 0 2 -18 4 -41 4 -22 0 -38 -4 -35 -8z m-769 -252 c-36 -5 -10 -8 95
-10 153 -3 152 -3 215 5 30 3 34 3 15 -4 -22 -7 -23 -9 -8 -16 10 -4 15 -11
12 -16 -3 -5 1 -9 8 -10 40 -2 -48 -20 -140 -29 -59 -6 -138 -14 -177 -18
l-70 -8 65 -8 c36 -4 78 -10 94 -13 29 -6 28 -6 -18 -25 -59 -23 -231 -42
-311 -34 -40 4 -76 1 -109 -9 -57 -17 -306 -21 -306 -5 0 15 128 76 185 88 28
6 102 36 165 66 l115 55 110 -1 c85 -1 99 -3 60 -8z m-281 -209 c3 -4 -17 -22
-44 -40 -38 -25 -66 -34 -119 -40 -49 -5 -80 -14 -108 -33 -21 -14 -50 -28
-64 -32 -15 -3 -62 -23 -105 -43 -58 -28 -73 -39 -57 -41 22 -3 137 42 241 96
36 18 70 27 104 28 50 1 51 0 29 -17 -11 -9 -72 -34 -134 -54 -61 -21 -125
-44 -140 -52 -30 -15 -253 -41 -264 -30 -16 17 218 188 282 206 45 12 149 15
142 4 -8 -13 85 -14 123 -1 19 6 48 21 63 34 30 26 43 29 51 15z m181 -181
c-3 -5 -16 -15 -28 -21 -21 -10 -21 -9 2 10 25 23 36 27 26 11z m-1105 -195
c0 -10 -62 -36 -78 -33 -12 2 -6 9 18 20 34 17 60 23 60 13z"/>
<path d="M7075 17830 c-13 -6 -15 -9 -5 -9 8 0 22 4 30 9 18 12 2 12 -25 0z"/>
<path d="M7020 17810 c-9 -6 -10 -10 -3 -10 6 0 15 5 18 10 8 12 4 12 -15 0z"/>
<path d="M11352 18378 c31 -7 76 -7 130 0 l83 9 -130 0 c-110 1 -123 -1 -83
-9z"/>
<path d="M10936 18335 c5 -13 -13 -15 -122 -16 -71 -1 -145 -2 -164 -4 -19 -2
-53 -4 -75 -5 -49 -3 -27 -7 88 -15 48 -4 87 -10 87 -14 0 -11 -17 -12 -160
-11 -77 0 -120 -3 -115 -9 13 -13 171 -34 195 -26 12 4 26 0 34 -8 48 -48 471
-11 452 39 -5 13 13 18 103 30 93 11 35 24 -114 24 -102 1 -147 5 -165 15 -33
19 -51 19 -44 0z"/>
<path d="M13600 18347 c0 -7 97 -66 125 -77 30 -12 41 -8 30 10 -13 22 -155
82 -155 67z"/>
<path d="M10508 18303 c7 -3 16 -2 19 1 4 3 -2 6 -13 5 -11 0 -14 -3 -6 -6z"/>
<path d="M14070 18241 c-32 -5 -79 -22 -113 -41 l-58 -33 41 -23 c23 -13 45
-24 50 -24 4 0 28 -16 53 -35 46 -35 87 -44 117 -25 8 5 10 10 5 10 -6 0 -37
17 -70 38 l-60 37 70 5 c87 6 150 -9 310 -73 28 -11 81 -28 119 -38 38 -10
124 -45 192 -79 100 -49 137 -73 190 -125 36 -36 91 -79 120 -96 37 -21 61
-43 74 -69 32 -62 63 -80 136 -80 35 0 64 4 64 9 0 5 -22 25 -48 44 -28 20
-58 53 -71 77 -26 50 -49 72 -112 105 -26 13 -79 54 -119 91 -59 54 -99 79
-205 130 -73 35 -154 69 -181 75 -27 7 -71 22 -99 34 -27 12 -67 25 -87 29
-21 4 -61 18 -90 31 -60 27 -147 37 -228 26z"/>
<path d="M13250 18187 c-45 -15 -50 -44 -13 -79 49 -46 233 -138 388 -193 161
-57 270 -107 259 -118 -4 -4 -22 -7 -41 -7 -42 0 -42 -11 0 -45 17 -15 67 -61
110 -103 67 -65 79 -83 93 -131 23 -86 41 -114 95 -150 87 -57 103 -60 263
-58 80 1 146 6 146 11 0 5 20 6 45 4 29 -4 48 -1 55 7 14 17 125 38 161 30 26
-6 29 -4 29 17 0 13 7 33 15 45 13 19 13 23 -1 37 -8 9 -23 16 -32 16 -10 0
-53 32 -97 70 -110 97 -335 272 -422 328 -47 30 -76 57 -82 74 -11 30 -68 71
-85 61 -5 -4 2 -11 17 -16 15 -5 27 -15 27 -23 0 -16 -23 -18 -50 -4 -11 6
-43 12 -72 14 -29 2 -64 9 -78 14 -25 11 -25 11 -2 11 31 1 19 18 -18 26 -17
4 -28 10 -25 14 6 10 117 -7 129 -20 12 -11 26 -12 26 0 0 5 -11 12 -24 15
-14 3 -53 25 -88 49 -35 24 -71 46 -81 50 -16 6 -16 5 -1 -18 9 -14 20 -25 25
-25 5 0 9 -3 9 -7 0 -5 -57 -8 -128 -7 -101 0 -143 5 -206 23 -93 27 -125 40
-148 59 -17 14 -118 42 -148 41 -8 0 -31 -5 -50 -12z m1015 -312 c41 -27 182
-132 226 -169 20 -17 64 -56 99 -86 34 -30 67 -58 73 -62 6 -4 9 -9 6 -12 -5
-5 -104 48 -464 250 -192 107 -189 103 -70 100 78 -2 106 -6 130 -21z m180
-275 c3 -5 2 -10 -4 -10 -5 0 -13 5 -16 10 -3 6 -2 10 4 10 5 0 13 -4 16 -10z"/>
<path d="M7225 18170 l-20 -9 20 0 c11 0 27 4 35 9 13 9 13 10 0 9 -8 0 -24
-4 -35 -9z"/>
<path d="M6778 18113 c7 -3 16 -2 19 1 4 3 -2 6 -13 5 -11 0 -14 -3 -6 -6z"/>
<path d="M12493 18013 c9 -2 23 -2 30 0 6 3 -1 5 -18 5 -16 0 -22 -2 -12 -5z"/>
<path d="M14202 18005 c20 -7 67 -33 105 -57 97 -62 236 -128 270 -128 l28 0
-25 20 c-14 11 -72 44 -130 74 -58 30 -120 66 -139 80 -28 21 -46 26 -90 25
l-56 0 37 -14z"/>
<path d="M12525 17971 l-30 -7 34 -7 c18 -4 65 -7 103 -7 68 0 98 -9 127 -37
11 -12 10 -13 -10 -9 -57 12 -117 15 -149 8 -35 -8 -35 -8 26 -20 33 -7 69
-19 80 -27 18 -13 16 -14 -20 -15 -63 0 -36 -10 43 -15 41 -3 86 -12 104 -22
l32 -18 -30 -4 c-22 -3 -11 -7 44 -17 40 -7 87 -18 105 -26 l31 -13 -50 -5
-50 -5 98 -37 c53 -21 104 -38 111 -38 8 0 40 -13 71 -30 41 -22 71 -30 106
-30 51 0 119 -22 119 -38 0 -13 53 -22 65 -11 5 6 4 9 -5 9 -23 1 -68 40 -52
47 8 3 0 11 -20 22 -19 9 -32 23 -30 32 1 9 -12 22 -33 32 -19 9 -35 21 -35
26 0 5 -17 15 -37 21 -21 7 -74 28 -118 48 -57 25 -92 35 -125 34 -39 -1 -43
0 -28 11 15 12 10 16 -43 35 -33 12 -57 17 -54 12 7 -11 -37 -13 -72 -4 -40
11 -26 27 17 20 22 -3 40 -4 40 -2 0 7 -155 65 -216 81 -65 16 -99 17 -149 6z
m703 -298 c70 -39 70 -58 -1 -25 -23 11 -67 23 -97 27 -70 8 -90 14 -90 26 0
5 27 9 61 9 51 0 71 -6 127 -37z"/>
<path d="M14616 17771 c20 -20 113 -82 194 -131 47 -29 110 -67 140 -86 59
-36 90 -43 90 -19 0 16 -71 66 -215 150 -55 32 -111 66 -124 77 -24 18 -104
27 -85 9z"/>
<path d="M2650 17481 c25 -22 48 -36 51 -33 4 4 11 22 17 40 l11 32 -62 0 -62
0 45 -39z"/>
<path d="M10020 17428 c-91 -5 -228 -17 -305 -27 -124 -16 -146 -22 -192 -50
-58 -37 -71 -66 -49 -110 21 -40 67 -57 114 -42 31 10 43 10 74 -3 31 -13 87
-16 332 -16 184 0 305 -4 323 -11 42 -15 79 -55 131 -139 121 -198 206 -272
365 -320 56 -18 136 -42 178 -56 42 -13 79 -24 82 -24 18 0 55 57 103 158 33
70 59 112 69 112 24 0 18 -21 -32 -127 -30 -62 -47 -112 -47 -138 l-1 -40 140
-47 c77 -26 155 -48 173 -48 41 0 145 43 372 153 99 47 221 98 280 115 167 50
382 110 420 117 41 8 290 134 290 146 0 5 -46 22 -102 40 -57 17 -164 50 -238
74 -242 78 -541 147 -893 206 -96 16 -109 10 -145 -63 -17 -35 -34 -71 -37
-81 -3 -11 -14 -21 -25 -24 -31 -8 -24 -23 10 -23 22 0 43 -11 71 -37 32 -31
47 -59 80 -148 51 -138 79 -189 138 -243 l46 -43 -46 30 c-61 40 -107 104
-159 221 -67 149 -89 169 -184 168 -82 -1 -111 29 -137 143 -23 96 -58 142
-120 159 -98 27 -728 37 -1079 18z m1340 -353 c0 -14 -46 -74 -55 -72 -15 5
-18 46 -5 63 12 13 60 20 60 9z"/>
<path d="M11335 17368 c-47 -27 -52 -58 -24 -160 9 -35 29 -53 29 -26 0 6 11
25 24 42 36 48 56 92 56 126 0 27 -3 30 -32 30 -18 0 -42 -6 -53 -12z"/>
<path d="M15405 17348 c-30 -17 -30 -15 -35 -81 l-5 -62 -41 38 c-23 20 -44
37 -48 37 -3 0 -6 -13 -6 -28 0 -34 -16 -52 -48 -52 -13 0 -21 -4 -18 -8 3 -5
-9 -21 -26 -37 -47 -45 -128 -156 -128 -176 0 -32 42 -48 159 -63 112 -15 134
-23 236 -82 47 -27 58 -29 205 -35 128 -6 167 -11 225 -31 39 -14 87 -28 109
-32 l38 -7 -46 56 c-26 32 -71 106 -101 165 -103 201 -135 230 -256 230 -95 0
-109 10 -146 104 -16 38 -32 71 -38 72 -5 2 -19 -2 -30 -8z m288 -285 c17 -20
50 -136 45 -160 -2 -11 -16 -5 -53 23 -79 60 -155 126 -155 135 0 7 37 13 116
17 19 1 37 -5 47 -15z"/>
<path d="M8606 17195 c-65 -18 -81 -35 -35 -36 18 -1 -4 -5 -51 -9 -95 -8
-172 -36 -190 -70 -10 -19 -5 -31 37 -97 63 -100 87 -118 148 -109 68 11 109
52 163 166 25 52 48 98 50 102 2 3 -5 8 -15 11 -13 3 -10 5 8 6 32 1 64 24 55
39 -10 16 -108 14 -170 -3z"/>
<path d="M5600 17071 c0 -12 -29 -41 -41 -41 -5 0 -9 7 -9 15 0 55 -65 -42
-79 -118 -9 -52 -8 -63 14 -112 13 -30 28 -55 33 -55 6 0 19 -16 30 -35 25
-41 60 -53 99 -32 15 8 46 24 68 35 22 12 78 37 125 56 153 63 204 98 258 173
29 41 28 57 -7 93 l-28 30 -232 0 c-135 0 -231 -4 -231 -9z"/>
<path d="M8850 17069 c-43 -18 -81 -62 -115 -134 -19 -38 -45 -89 -60 -113
l-26 -42 28 -11 c54 -21 168 -56 221 -69 28 -6 52 -16 52 -20 0 -4 -33 1 -72
11 -109 28 -277 52 -330 46 -60 -7 -177 -67 -234 -119 -41 -38 -43 -42 -29
-58 15 -17 159 -70 189 -70 8 0 17 -4 20 -9 6 -9 -12 -6 -195 39 l-97 23 -43
-20 c-24 -11 -55 -24 -69 -28 -40 -12 -222 -105 -255 -131 -37 -28 -119 -64
-148 -64 -12 -1 -47 -9 -77 -20 -31 -11 -82 -19 -118 -20 -40 0 -90 -9 -135
-24 -40 -14 -108 -34 -152 -45 -44 -12 -105 -28 -135 -36 -42 -12 -114 -15
-316 -15 -294 0 -396 -10 -469 -45 -71 -34 -343 -241 -366 -279 -41 -66 -17
-83 119 -85 56 -1 88 5 135 23 242 96 405 152 413 143 3 -3 -8 -8 -23 -11 -15
-4 -55 -20 -88 -36 -230 -110 -335 -158 -358 -164 -14 -3 -88 -10 -164 -16
-159 -11 -221 -28 -269 -77 -52 -52 -45 -70 51 -119 98 -50 266 -117 360 -143
266 -75 455 -123 550 -140 61 -11 130 -24 155 -30 61 -14 80 -14 80 2 0 20
-209 429 -231 452 -13 14 -11 45 4 45 17 0 40 -38 166 -280 62 -118 120 -225
131 -237 10 -13 94 -57 187 -98 92 -42 224 -107 293 -145 176 -97 217 -114
396 -158 88 -22 221 -56 297 -76 188 -49 206 -48 395 23 87 32 206 68 267 81
l110 22 58 59 c31 33 70 86 87 118 26 53 40 66 142 136 147 101 201 148 388
335 142 141 165 160 260 212 58 31 124 61 147 67 23 7 45 16 48 21 3 5 49 44
101 86 104 83 142 102 369 178 140 46 262 112 339 184 17 15 47 40 67 55 25
18 48 50 72 101 20 41 41 77 47 81 24 15 23 -9 -3 -55 -15 -26 -27 -53 -27
-59 0 -6 39 9 88 33 48 24 109 51 135 61 26 10 50 21 52 26 3 4 -39 22 -92 40
-66 22 -98 28 -101 20 -6 -17 -29 -13 -44 8 -7 10 -45 30 -83 44 -280 101
-318 117 -370 162 -63 54 -93 90 -169 207 -63 96 -121 152 -168 162 -17 3
-114 6 -217 6 -141 -1 -190 -4 -204 -14 -14 -11 -27 -11 -60 -4 -37 9 -134 10
-362 5 -33 -1 -163 2 -290 5 -148 5 -239 4 -255 -3z"/>
<path d="M7995 17004 c-55 -19 -119 -42 -142 -50 -95 -35 -119 -95 -60 -151
63 -60 122 -94 216 -124 85 -27 100 -29 139 -19 89 22 203 93 228 142 15 30
15 31 -20 82 -54 79 -118 136 -162 147 -64 14 -94 10 -199 -27z"/>
<path d="M12870 17013 c-8 -3 -73 -35 -145 -71 -79 -39 -159 -72 -205 -82 -41
-10 -167 -44 -280 -77 -171 -50 -235 -75 -385 -147 -99 -48 -216 -104 -259
-125 l-79 -37 81 -48 c44 -26 95 -52 114 -58 20 -7 143 -11 323 -12 254 -1
296 -4 335 -20 87 -34 138 -35 223 -5 89 32 216 32 317 0 68 -21 101 -24 340
-31 285 -7 292 -8 615 -95 50 -13 128 -31 175 -40 47 -9 114 -22 150 -30 36
-8 106 -15 155 -15 50 -1 110 -5 135 -11 94 -21 130 -23 130 -7 0 8 -12 26
-27 40 -69 65 -657 425 -782 479 -20 8 -74 34 -121 56 -47 22 -107 48 -135 57
-27 10 -57 23 -65 30 -33 28 -133 78 -285 142 -257 108 -292 119 -325 107z"/>
<path d="M7420 16767 c-256 -121 -569 -290 -763 -414 -73 -47 -99 -82 -77
-108 10 -13 47 -15 228 -15 209 0 218 1 326 31 61 17 141 41 178 54 39 14 104
27 150 31 121 9 313 77 384 137 16 13 52 36 80 50 51 26 90 69 79 87 -3 5 -37
19 -75 30 -46 14 -94 39 -147 77 -43 31 -93 67 -112 80 -56 38 -98 32 -251
-40z"/>
<path d="M15576 16772 c-3 -6 26 -28 71 -53 104 -57 169 -105 239 -179 33 -34
88 -85 124 -113 36 -29 98 -82 138 -119 71 -66 83 -72 129 -68 14 1 40 -15 71
-44 27 -25 52 -46 55 -46 3 0 7 10 9 23 2 16 9 21 23 19 16 -3 14 3 -15 34
-19 20 -28 33 -20 28 27 -15 -53 72 -163 176 -63 60 -106 109 -103 116 3 7 1
16 -4 19 -6 4 -10 11 -10 17 0 6 8 4 18 -5 10 -10 22 -17 27 -17 17 0 113 -87
300 -272 186 -184 235 -228 235 -211 0 17 -446 453 -515 504 -38 29 -84 65
-100 80 -34 32 -108 60 -232 89 -101 24 -267 37 -277 22z"/>
<path d="M5040 16705 c-13 -14 -20 -25 -16 -25 12 0 56 32 56 41 0 16 -16 10
-40 -16z"/>
<path d="M5082 16601 c-31 -62 -126 -181 -145 -181 -4 0 16 29 43 66 49 63 63
93 38 77 -22 -13 -195 -197 -233 -246 -21 -28 -41 -44 -49 -41 -8 3 -17 0 -22
-7 -4 -7 -3 -10 4 -5 15 9 27 -13 13 -27 -6 -6 -11 -22 -11 -36 0 -25 0 -25
38 11 31 31 41 35 61 27 14 -6 30 -8 36 -5 7 2 33 0 58 -6 61 -13 98 5 173 85
67 71 82 112 84 224 3 144 3 141 -26 139 -21 -1 -31 -13 -62 -75z"/>
<path d="M4955 16582 c-145 -112 -222 -188 -265 -262 -21 -36 -36 -67 -34 -69
8 -8 91 54 139 105 124 130 275 294 275 299 0 13 -22 0 -115 -73z"/>
<path d="M16140 16546 c0 -2 7 -9 15 -16 13 -11 14 -10 9 4 -5 14 -24 23 -24
12z"/>
<path d="M4673 16388 c-18 -22 -64 -110 -78 -152 -14 -46 33 17 59 77 15 34
31 70 37 80 13 23 6 21 -18 -5z"/>
<path d="M11235 16391 c-76 -22 -199 -83 -248 -124 -27 -23 -49 -56 -75 -116
-20 -46 -43 -86 -49 -89 -20 -6 -15 16 17 80 17 33 29 65 27 71 -2 6 -21 -6
-43 -25 -89 -80 -214 -149 -359 -198 -242 -82 -252 -87 -375 -185 -78 -62
-134 -98 -172 -112 -131 -47 -203 -99 -388 -283 -181 -180 -216 -209 -382
-324 -88 -60 -101 -73 -128 -127 -16 -33 -46 -79 -65 -101 -19 -23 -33 -43
-31 -45 2 -2 66 12 142 31 77 19 204 47 284 62 134 26 164 28 390 28 219 0
254 -2 333 -22 49 -12 98 -22 110 -22 22 1 43 29 105 140 14 25 32 56 42 70 9
14 24 41 33 61 9 19 26 44 37 54 22 20 15 5 -76 -160 -18 -33 -39 -71 -46 -85
-7 -14 -16 -27 -20 -30 -11 -9 -20 -57 -11 -63 4 -2 89 -15 187 -27 178 -22
181 -22 355 -5 175 17 176 17 276 -5 55 -11 150 -24 212 -27 98 -5 120 -3 181
16 64 21 85 22 268 19 l199 -3 107 -52 c127 -64 130 -64 369 -23 150 25 205
40 375 100 109 40 262 98 339 130 144 60 187 71 445 109 149 22 394 37 480 30
91 -7 298 -5 306 4 17 17 -28 65 -119 127 -52 36 -131 99 -175 141 -92 89
-146 125 -332 224 -188 100 -265 149 -340 215 -36 31 -117 92 -180 134 -63 42
-133 90 -155 105 -22 16 -69 40 -106 54 -57 23 -82 26 -195 28 -205 3 -330 17
-424 46 -82 26 -96 27 -377 33 l-293 5 -121 63 c-191 99 -222 106 -334 73z
m-390 -378 c-7 -32 -55 -106 -63 -98 -3 3 0 11 6 17 7 7 12 18 12 26 0 22 31
82 42 82 6 0 7 -11 3 -27z m-78 -160 c-3 -10 -5 -4 -5 12 0 17 2 24 5 18 2 -7
2 -21 0 -30z m-43 -95 c-3 -13 -19 -47 -35 -76 -16 -29 -29 -61 -29 -71 0 -10
-7 -18 -15 -18 -11 0 -12 4 -5 11 5 5 10 16 10 22 0 20 64 154 73 154 5 0 5
-10 1 -22z m-182 -380 c-7 -7 -12 -8 -12 -2 0 14 12 26 19 19 2 -3 -1 -11 -7
-17z m-43 -82 c-11 -20 -26 -36 -31 -36 -6 0 -3 10 6 23 9 12 21 33 27 47 6
14 13 20 16 14 2 -6 -6 -28 -18 -48z"/>
<path d="M4380 16345 c0 -25 5 -45 10 -45 6 0 10 20 10 45 0 25 -4 45 -10 45
-5 0 -10 -20 -10 -45z"/>
<path d="M4458 16304 c-5 -4 -8 -16 -8 -28 0 -14 3 -17 11 -9 6 6 9 19 7 28
-1 9 -6 13 -10 9z"/>
<path d="M13281 16182 c-66 -20 -46 -70 51 -128 35 -20 99 -67 143 -104 94
-78 164 -122 340 -215 188 -99 250 -140 345 -228 47 -43 128 -106 180 -141 52
-34 127 -92 166 -128 80 -73 107 -83 193 -74 425 49 504 63 678 122 39 13 91
24 115 24 37 1 40 2 23 12 -11 6 -24 17 -30 24 -5 6 -34 19 -63 29 -40 13 -65
30 -105 73 -165 177 -277 278 -400 359 -89 57 -120 71 -295 127 -177 57 -209
64 -310 70 -63 4 -153 17 -205 31 -50 13 -112 26 -137 30 -25 3 -79 16 -120
27 -242 65 -351 88 -445 92 -55 3 -111 2 -124 -2z"/>
<path d="M4179 16019 c-56 -41 -174 -204 -194 -268 -4 -14 -23 -46 -41 -73
-19 -26 -34 -50 -34 -53 0 -3 -22 -33 -49 -68 -91 -116 -177 -253 -244 -388
-96 -194 -153 -294 -167 -294 -6 0 -18 -11 -25 -25 -17 -30 -19 -43 -5 -35 6
3 10 3 10 0 0 -13 -120 -257 -149 -304 -33 -55 -49 -97 -32 -87 14 9 14 5 -3
-57 -23 -84 -29 -130 -16 -122 9 5 10 1 6 -13 -4 -12 -7 -40 -8 -64 -1 -50
-20 -135 -53 -233 -15 -44 -26 -111 -31 -180 -5 -60 -10 -92 -12 -70 -13 178
-59 194 -83 30 -13 -95 -11 -421 5 -615 6 -68 3 -105 -13 -185 -12 -55 -24
-155 -27 -223 l-6 -124 26 23 c13 13 27 35 29 49 2 14 9 37 15 51 34 83 45
214 47 554 l2 240 36 84 c20 46 61 120 90 165 30 44 62 95 71 113 23 47 53
163 76 303 25 149 33 178 97 340 27 69 62 157 76 195 15 39 44 99 66 135 21
36 61 103 87 150 41 73 77 113 249 284 118 117 221 210 250 227 28 16 63 42
79 58 27 28 27 29 24 147 l-4 119 -43 3 c-35 3 -42 6 -36 20 3 9 9 30 12 46
l6 28 -31 -16 c-19 -10 -53 -51 -92 -110 -33 -51 -82 -111 -108 -133 -57 -47
-142 -106 -142 -98 0 3 22 38 49 78 27 40 69 113 94 162 25 50 67 115 93 145
26 30 57 65 68 77 26 30 18 36 -15 12z m-299 -592 c0 -2 -10 -12 -22 -23 l-23
-19 19 23 c18 21 26 27 26 19z"/>
<path d="M16780 15805 c0 -9 -7 -18 -15 -21 -28 -11 -15 -38 41 -89 46 -41 57
-58 64 -94 10 -55 2 -201 -11 -218 -11 -13 -2 -96 13 -126 11 -20 11 -20 158
3 41 6 83 16 94 22 19 10 19 11 1 24 -10 8 -15 14 -11 14 4 0 -2 16 -14 35
-13 22 -17 35 -10 35 7 0 10 7 6 15 -7 19 -6 19 35 -2 32 -16 39 -21 72 -48
43 -36 72 -55 85 -55 12 0 12 2 1 17 -24 29 -172 135 -221 158 -44 20 -51 30
-93 114 -26 50 -50 91 -56 91 -5 0 -9 9 -9 19 0 11 -5 23 -11 26 -6 5 -3 13
10 22 36 25 25 40 -44 57 -79 20 -85 20 -85 1z"/>
<path d="M4396 15694 c-9 -23 -7 -36 3 -30 12 8 21 46 11 46 -4 0 -11 -7 -14
-16z"/>
<path d="M15390 15271 c-43 -25 -215 -64 -416 -93 -175 -25 -219 -35 -197 -41
59 -19 224 -11 353 17 224 48 292 67 349 96 l56 29 -65 0 c-36 0 -72 -4 -80
-8z"/>
<path d="M17337 15228 c23 -24 70 -77 104 -118 59 -72 115 -132 92 -100 -43
61 -165 219 -182 238 -12 12 -29 22 -38 22 -12 0 -5 -13 24 -42z"/>
<path d="M17035 15244 c-44 -8 -95 -17 -113 -20 -31 -5 -33 -8 -27 -32 3 -14
15 -45 26 -69 21 -46 25 -67 8 -43 -26 37 9 -45 80 -190 42 -85 86 -178 98
-207 18 -44 29 -56 70 -77 26 -13 69 -47 95 -74 25 -27 103 -87 172 -132 70
-45 136 -94 149 -109 38 -46 140 -115 196 -133 30 -10 56 -16 58 -14 6 6 -84
165 -115 206 -16 19 -37 52 -49 72 l-21 36 61 -35 c34 -20 81 -52 105 -71 36
-30 40 -31 30 -11 -28 53 -63 92 -116 131 -129 95 -221 189 -273 280 -28 48
-70 114 -95 148 -24 33 -41 60 -36 60 19 0 298 -300 381 -410 52 -69 104 -137
115 -151 12 -14 30 -38 41 -53 35 -48 77 -101 161 -200 45 -52 95 -113 110
-135 36 -51 49 -52 29 -3 -22 52 -53 97 -137 198 -80 97 -264 339 -318 419
-33 50 -33 50 44 -25 125 -120 166 -164 172 -182 3 -10 10 -18 15 -18 21 0
-28 67 -103 142 -43 43 -122 130 -177 195 -54 65 -108 127 -120 137 -11 11
-21 24 -21 30 0 6 35 -25 77 -69 77 -81 68 -66 -22 38 -29 34 -55 55 -63 52
-7 -2 -11 -1 -7 4 3 5 -25 35 -62 67 -38 32 -108 95 -158 138 -49 44 -99 88
-110 97 -29 26 -61 28 -150 13z m413 -299 c111 -114 162 -169 207 -225 25 -32
25 -32 -206 204 -107 110 -177 186 -156 170 20 -16 90 -83 155 -149z m-157
-17 c33 -43 129 -195 129 -203 0 -3 -8 -1 -19 4 -19 11 -131 188 -131 208 0 6
-10 18 -22 27 -21 15 -21 16 -2 7 11 -6 32 -25 45 -43z m89 -350 l32 -43 -36
39 c-20 21 -36 40 -36 42 0 11 11 0 40 -38z"/>
<path d="M15470 15225 c-49 -26 -92 -37 -338 -89 -90 -19 -166 -37 -168 -39
-2 -2 31 -15 73 -28 76 -23 88 -24 421 -24 188 0 342 3 342 8 0 8 -50 64 -138
156 l-33 34 -20 -20 c-11 -11 -23 -39 -26 -62 -3 -22 -10 -41 -15 -41 -13 0
-28 47 -28 91 0 46 -7 47 -70 14z"/>
<path d="M3562 15145 c-16 -34 -15 -40 2 -26 16 13 28 51 17 51 -4 0 -13 -11
-19 -25z"/>
<path d="M5740 15143 c0 -52 209 -346 356 -503 76 -80 115 -110 256 -191 53
-31 149 -97 213 -145 130 -99 209 -150 304 -195 69 -32 75 -31 87 21 3 14 10
36 14 50 5 14 27 96 50 184 22 87 56 200 75 251 19 51 35 97 35 102 0 21 -69
74 -134 103 -125 55 -239 91 -391 121 -142 28 -238 53 -655 170 -97 27 -184
49 -193 49 -9 0 -17 -8 -17 -17z"/>
<path d="M14245 15061 c-99 -3 -186 -10 -193 -15 -8 -5 -60 -3 -124 5 -122 14
-185 9 -463 -38 -121 -20 -170 -33 -255 -70 -58 -25 -166 -66 -240 -93 -74
-26 -177 -64 -228 -84 -67 -26 -146 -45 -275 -67 -100 -16 -186 -31 -191 -33
-5 -1 15 -25 44 -54 67 -66 234 -150 262 -133 10 6 24 11 31 11 7 0 20 9 30
20 18 21 37 26 37 10 0 -5 -4 -10 -9 -10 -4 0 -21 -10 -35 -21 -21 -17 -25
-24 -14 -30 18 -12 315 -11 359 1 19 6 69 37 110 69 141 114 263 106 284 -18
8 -47 20 -58 104 -102 63 -33 68 -34 216 -39 147 -5 152 -6 184 -33 18 -15 45
-30 59 -33 102 -23 151 -39 196 -62 l51 -27 435 -3 c239 -2 458 0 486 3 38 5
64 16 103 46 29 21 59 39 67 39 29 0 11 17 -81 77 -127 85 -301 217 -407 311
-89 78 -223 246 -251 315 -26 62 -45 66 -292 58z"/>
<path d="M14683 15062 c-37 -6 -27 -35 35 -108 61 -73 142 -154 154 -154 4 0
39 -29 78 -64 39 -34 110 -91 158 -125 119 -84 360 -241 370 -241 19 0 286
232 359 313 44 47 92 96 106 107 26 21 26 22 11 53 -38 74 -59 93 -136 115
-68 20 -93 22 -348 21 -318 -2 -352 1 -520 46 -119 32 -218 46 -267 37z"/>
<path d="M5001 14909 c-33 -22 -97 -79 -143 -128 -149 -157 -236 -299 -293
-481 -20 -63 -53 -171 -75 -240 -53 -167 -89 -226 -160 -262 -30 -16 -84 -33
-120 -39 -142 -22 -242 -96 -301 -223 -35 -75 -39 -134 -14 -205 16 -44 17
-60 7 -144 -7 -52 -23 -132 -37 -178 -14 -46 -32 -111 -41 -144 -24 -89 -76
-208 -181 -418 -114 -228 -117 -235 -153 -417 -16 -80 -43 -210 -60 -290 -101
-479 -164 -1080 -145 -1397 l7 -111 49 -7 c136 -19 380 30 757 151 112 36 211
64 220 62 28 -6 -388 -151 -558 -194 -128 -33 -321 -64 -397 -64 -86 0 -87 -1
-79 -224 16 -453 61 -814 158 -1261 34 -156 42 -177 105 -253 38 -48 43 -60
43 -105 0 -53 48 -249 79 -320 21 -47 106 -167 119 -167 5 0 39 -27 76 -59 58
-51 205 -144 259 -164 9 -3 17 -11 17 -17 0 -12 -65 20 -116 57 -34 25 -53 30
-36 10 6 -6 31 -64 57 -127 70 -172 160 -361 198 -414 11 -15 34 -34 51 -42
17 -7 90 -72 161 -144 l130 -132 143 -68 c78 -38 145 -76 148 -84 3 -9 31 -27
61 -42 31 -14 104 -67 163 -118 l108 -91 130 -32 c94 -24 146 -42 184 -66 43
-28 65 -35 118 -39 58 -3 73 -9 134 -51 43 -30 79 -47 97 -47 16 0 61 -16 100
-35 74 -38 75 -38 268 -37 81 0 117 4 126 14 7 7 20 54 29 103 32 171 94 336
213 574 62 123 113 227 113 231 0 4 -37 23 -82 43 -66 29 -108 39 -206 52
-100 12 -136 22 -190 49 -67 33 -68 33 -248 39 -100 4 -195 2 -212 -2 -24 -7
-49 -2 -118 24 -69 25 -111 34 -186 38 -84 6 -107 11 -165 40 -62 31 -80 35
-203 45 -109 8 -156 17 -244 46 -70 23 -129 36 -163 36 -63 0 -72 18 -10 22
40 3 137 -20 237 -56 26 -10 101 -20 185 -25 133 -8 143 -11 205 -43 58 -31
77 -35 168 -41 80 -6 121 -14 183 -38 64 -25 85 -29 107 -21 16 6 105 7 213 4
l184 -5 69 -34 c58 -29 88 -37 200 -50 102 -12 144 -22 191 -44 98 -47 102
-46 149 42 l40 75 -23 55 c-13 30 -45 101 -71 159 -26 58 -53 133 -59 167 -16
86 -36 128 -76 169 -22 21 -35 44 -35 60 0 31 -13 57 -57 110 -46 57 -41 69 7
14 l39 -45 0 30 c1 17 -10 48 -22 70 l-23 40 -249 22 c-473 43 -1390 145
-1402 156 -13 13 -54 405 -62 584 -4 106 -10 195 -13 199 -3 3 -20 -2 -37 -10
-16 -9 -38 -16 -48 -16 -9 0 0 9 22 20 22 11 45 20 52 20 15 0 17 193 6 796
l-6 381 -110 57 c-80 42 -127 74 -170 117 -32 32 -70 62 -83 65 -18 5 -23 11
-19 24 3 10 -3 42 -14 71 -11 29 -19 55 -16 57 2 2 -5 14 -16 25 -11 12 -22
33 -25 47 -3 14 -12 40 -20 58 -8 18 -14 43 -14 55 0 12 -9 53 -20 91 -11 38
-18 72 -15 74 2 2 -4 21 -14 41 -10 20 -23 74 -30 121 -26 178 -70 245 -204
309 -104 49 -238 104 -297 120 -25 7 -70 24 -101 37 -31 13 -64 24 -72 24 -16
0 -33 18 -24 26 4 4 86 -14 167 -37 19 -6 46 -13 60 -16 14 -3 30 -9 35 -14 6
-4 42 -17 80 -27 75 -22 187 -60 248 -86 53 -23 113 -89 131 -144 9 -26 20
-96 26 -157 25 -262 40 -343 83 -451 48 -120 89 -194 111 -200 12 -3 70 11
130 31 59 20 110 34 113 32 2 -3 -35 -18 -84 -33 -48 -14 -101 -33 -117 -41
l-28 -15 38 -40 c45 -46 140 -102 210 -123 27 -8 52 -15 57 -15 4 0 7 64 7
141 l0 141 -37 -5 -38 -6 36 15 36 16 7 191 c3 106 15 309 26 452 12 143 25
323 31 400 16 233 57 666 62 671 3 3 92 14 199 24 106 11 382 37 613 60 416
40 761 62 1522 96 215 10 390 21 387 25 -2 4 -16 10 -31 14 -47 11 -225 102
-290 147 -126 88 -221 196 -287 325 -53 104 -80 195 -106 363 -6 41 -13 84
-15 95 -3 14 -28 30 -82 55 -56 24 -96 52 -143 96 -55 53 -86 72 -199 123 -74
33 -150 71 -170 85 -20 13 -67 44 -106 69 -38 25 -91 63 -117 84 -25 21 -104
84 -175 139 -188 148 -489 454 -658 669 -107 135 -132 162 -156 168 -12 3 -42
-10 -78 -34z m-636 -4459 c-3 -5 -11 -10 -16 -10 -6 0 -7 5 -4 10 3 6 11 10
16 10 6 0 7 -4 4 -10z m140 -1530 c-3 -5 -11 -10 -16 -10 -6 0 -7 5 -4 10 3 6
11 10 16 10 6 0 7 -4 4 -10z m-310 -100 c-11 -5 -27 -9 -35 -9 -9 0 -8 4 5 9
11 5 27 9 35 9 9 0 8 -4 -5 -9z m-76 -24 c-2 -2 -22 -6 -44 -9 -28 -5 -34 -4
-20 3 19 8 73 14 64 6z m-139 -36 c-14 -4 -34 -8 -45 -9 -16 -1 -17 1 -5 9 8
5 29 9 45 9 29 -1 29 -1 5 -9z"/>
<path d="M9620 14860 c-147 -10 -352 -48 -555 -105 -88 -24 -212 -55 -276 -69
-177 -37 -339 -106 -339 -142 0 -32 70 -81 221 -156 214 -105 259 -123 464
-184 243 -72 361 -95 503 -97 l117 -2 47 70 c26 39 47 75 47 82 1 6 9 18 20
25 10 7 33 41 52 74 19 34 64 110 102 168 37 59 67 111 67 116 0 5 6 15 13 22
23 23 78 131 73 143 -6 17 -122 44 -241 55 -111 10 -147 10 -315 0z"/>
<path d="M10169 14724 c-24 -42 -56 -98 -71 -125 -15 -26 -51 -85 -81 -131
-147 -227 -217 -345 -217 -364 0 -20 29 -24 191 -27 l146 -2 80 61 c108 84
287 202 348 229 28 13 84 50 126 83 61 49 88 64 143 78 45 11 79 27 99 46 50
45 147 95 221 114 37 9 74 24 83 32 14 14 5 18 -93 38 -131 28 -192 29 -372 8
-107 -12 -149 -13 -192 -5 -65 13 -295 41 -337 41 -26 0 -34 -9 -74 -76z"/>
<path d="M11565 14791 c-21 -9 -16 -11 105 -41 53 -14 301 -22 335 -12 l30 9
-45 24 c-42 22 -56 24 -225 26 -99 1 -189 -1 -200 -6z"/>
<path d="M15945 14754 c-22 -14 -62 -53 -90 -86 -27 -34 -115 -115 -194 -182
-80 -66 -146 -125 -147 -131 -3 -11 127 -98 172 -116 16 -6 63 -15 104 -20 41
-4 86 -11 100 -14 42 -10 58 12 65 90 3 39 11 88 16 110 6 22 15 56 20 76 5
20 9 44 9 54 0 10 7 27 16 36 9 10 19 38 21 61 3 27 12 49 25 59 12 9 18 21
14 28 -7 10 -80 61 -89 61 -2 0 -21 -12 -42 -26z"/>
<path d="M11360 14718 c-25 -6 -59 -23 -77 -38 -20 -18 -54 -33 -90 -41 -75
-16 -159 -58 -216 -108 -35 -29 -62 -43 -111 -54 -52 -12 -80 -27 -143 -75
-43 -33 -103 -72 -133 -87 -119 -60 -374 -244 -359 -260 11 -10 380 -27 507
-23 104 4 161 11 237 31 201 52 274 60 515 59 221 0 328 -10 530 -47 l85 -16
28 33 c46 55 100 108 110 108 6 0 16 8 23 18 9 11 13 13 14 4 0 -7 -13 -20
-29 -30 -26 -14 -89 -118 -78 -128 2 -2 44 -11 93 -19 128 -23 246 -65 423
-153 l156 -77 480 -9 479 -8 14 21 c18 26 59 27 125 4 45 -16 52 -16 155 2
131 24 255 22 375 -6 101 -24 74 -30 297 69 213 95 234 106 331 189 89 76 108
101 67 87 -13 -4 -241 -7 -507 -6 l-484 2 -76 34 c-42 19 -96 37 -121 41 -58
9 -109 30 -138 58 -22 20 -36 22 -175 27 l-152 5 -85 46 -85 46 -21 64 -21 64
-45 3 c-42 3 -51 -1 -123 -58 -117 -93 -110 -92 -386 -89 -210 2 -239 5 -244
19 -3 9 -38 32 -77 51 -43 20 -98 58 -138 95 -121 112 -89 103 -343 97 l-222
-6 -148 37 c-160 39 -152 38 -217 24z m1140 -327 c0 -10 -24 -21 -43 -21 -7 0
-3 7 7 15 22 17 36 19 36 6z m-135 -101 c-10 -11 -23 -20 -28 -20 -6 0 -2 9 8
20 10 11 23 20 28 20 6 0 2 -9 -8 -20z m-55 -45 c-7 -9 -15 -13 -17 -11 -7 7
7 26 19 26 6 0 6 -6 -2 -15z"/>
<path d="M7204 14701 c-35 -28 -60 -74 -92 -166 -47 -132 -101 -338 -108 -411
l-7 -64 44 -19 c24 -10 71 -35 104 -55 75 -46 103 -53 245 -64 198 -16 422
-103 584 -227 48 -36 97 -70 109 -75 34 -15 313 -80 340 -80 13 0 51 -18 84
-40 58 -39 233 -100 287 -100 12 0 57 -9 98 -20 42 -11 145 -25 227 -31 l151
-11 118 -65 c64 -36 148 -88 185 -115 37 -28 71 -48 74 -44 3 3 1 30 -5 58
-21 94 -34 281 -28 373 4 50 16 135 27 189 11 54 18 105 15 112 -3 9 -22 14
-51 14 -147 0 -293 31 -645 137 -135 41 -198 69 -485 211 -422 210 -447 219
-765 292 -130 30 -224 68 -366 149 -113 64 -122 67 -140 52z"/>
<path d="M17826 14650 c6 -8 33 -44 60 -80 56 -74 104 -143 104 -152 0 -3 39
-73 87 -154 47 -82 100 -178 116 -214 54 -120 145 -397 171 -521 23 -110 34
-141 108 -289 58 -115 88 -165 100 -165 9 0 20 -4 24 -8 13 -13 24 -8 24 11 0
11 -49 119 -109 241 -60 122 -119 250 -130 284 l-21 62 30 -35 c41 -49 109
-150 165 -247 46 -79 175 -257 215 -298 18 -18 20 -18 20 -2 0 28 -27 74 -100
172 -39 52 -94 143 -129 215 -68 142 -86 171 -76 125 5 -25 4 -28 -7 -17 -12
12 -78 113 -151 232 -37 61 -109 231 -102 239 15 14 139 -145 205 -264 50 -90
140 -222 272 -397 109 -145 144 -186 119 -140 -5 10 -71 101 -146 202 -75 102
-166 235 -202 295 -91 152 -113 183 -215 298 -69 79 -111 139 -185 270 -53 93
-123 201 -156 241 -62 73 -109 123 -91 96z"/>
<path d="M17154 14562 c27 -51 108 -119 200 -168 118 -61 223 -147 331 -270
48 -54 105 -118 126 -142 36 -39 39 -46 33 -85 -11 -72 -27 -76 -63 -18 -17
28 -36 51 -42 51 -19 0 -2 -117 26 -178 29 -64 30 -72 9 -72 -9 0 -14 -6 -12
-12 3 -7 13 -36 22 -65 42 -126 149 -238 307 -322 46 -24 97 -56 112 -70 22
-20 30 -23 36 -12 7 10 13 11 30 2 11 -7 21 -16 21 -21 0 -10 99 -60 118 -60
12 0 10 59 -2 79 -4 6 -2 11 5 11 7 0 1 13 -14 28 -28 29 -226 453 -227 484 0
13 15 7 65 -27 85 -58 89 -34 8 42 -43 40 -65 53 -83 51 -23 -3 -25 -7 -21
-43 3 -39 21 -91 60 -176 26 -59 51 -120 51 -128 0 -9 -112 165 -164 257 -31
54 -48 98 -56 145 -11 59 -20 79 -76 154 -35 48 -65 91 -66 95 -2 5 -43 23
-93 40 -90 31 -176 85 -224 141 -13 16 -79 65 -145 109 -67 44 -149 109 -183
144 -37 39 -70 64 -83 64 -19 0 -20 -2 -6 -28z"/>
<path d="M2713 14259 c-7 -7 -13 -18 -13 -24 0 -6 -9 -31 -21 -54 -25 -52 -77
-212 -85 -264 -4 -20 -10 -40 -15 -43 -4 -2 -6 -11 -3 -18 3 -8 1 -17 -5 -21
-6 -3 -11 -24 -11 -45 0 -54 -17 -128 -55 -245 -29 -89 -52 -201 -47 -231 1
-6 -5 -17 -13 -24 -8 -7 -15 -20 -15 -30 0 -9 -9 -25 -20 -35 -11 -10 -20 -25
-20 -34 0 -9 -7 -25 -15 -35 -21 -27 -20 -19 16 190 16 98 37 240 44 315 8 75
26 185 41 244 23 95 25 130 8 113 -8 -8 -44 -181 -56 -263 -5 -38 -13 -99 -19
-135 -5 -36 -11 -74 -13 -86 -1 -11 -6 -25 -10 -32 -3 -6 -7 -33 -7 -59 0 -61
-46 -298 -65 -340 -15 -34 -20 -110 -29 -448 -4 -173 -3 -197 9 -179 8 11 19
38 25 60 6 22 18 48 26 59 15 19 15 18 9 -10 -4 -16 -13 -39 -20 -50 -7 -11
-23 -63 -36 -115 l-23 -95 -7 95 c-4 52 -6 219 -4 370 2 242 6 295 30 445 15
94 36 206 47 250 12 44 25 124 30 177 5 54 14 109 19 123 12 31 5 33 -12 3 -6
-13 -15 -59 -19 -103 -4 -44 -16 -114 -28 -155 -11 -41 -34 -167 -50 -280 -25
-172 -32 -258 -41 -530 -12 -400 -13 -730 -1 -730 12 0 20 33 27 115 3 40 16
97 31 133 25 62 26 62 49 47 22 -14 23 -14 30 20 4 21 21 50 43 72 30 31 42
54 58 118 12 44 55 178 97 299 42 120 90 282 107 360 17 77 42 170 54 206 53
151 66 216 40 206 -9 -3 -15 0 -15 10 0 30 30 130 60 205 17 41 33 98 35 127
2 29 7 56 10 61 3 5 -5 7 -17 3 -23 -6 -58 -36 -58 -51 0 -5 -7 -11 -15 -15
-8 -3 -15 -14 -15 -24 0 -10 -11 -29 -25 -42 -14 -13 -23 -26 -20 -28 3 -3 -6
-20 -20 -38 -14 -18 -25 -38 -25 -44 0 -7 -9 -25 -21 -41 -11 -16 -22 -36 -23
-43 -1 -7 -10 -25 -20 -40 -9 -15 -19 -36 -21 -47 -2 -10 -15 -33 -28 -51 -14
-18 -23 -38 -20 -44 2 -6 -4 -17 -13 -25 -15 -12 -16 -12 -11 6 19 65 49 198
71 319 14 76 31 157 36 180 18 69 73 219 93 253 21 37 21 83 0 62z m108 -412
c-9 -23 -23 -53 -32 -67 -9 -14 -22 -43 -29 -65 -20 -64 -32 -67 -24 -5 7 62
81 211 94 190 4 -7 0 -31 -9 -53z m-405 -734 c-3 -10 -8 -51 -11 -91 -2 -40
-12 -88 -21 -107 -9 -19 -17 -52 -19 -72 -3 -48 -26 -207 -30 -211 -2 -2 -6
31 -10 74 -10 100 -1 210 20 260 9 21 18 54 21 73 4 36 33 91 47 91 5 0 6 -8
3 -17z"/>
<path d="M15248 14209 l-33 -30 42 23 c24 13 43 26 43 31 0 15 -21 6 -52 -24z"/>
<path d="M15280 14195 c-30 -19 -68 -47 -85 -63 -120 -116 -170 -148 -370
-241 -110 -52 -203 -97 -207 -100 -4 -4 54 -24 130 -45 192 -55 267 -81 322
-115 26 -16 92 -53 146 -82 55 -29 122 -68 151 -86 29 -18 56 -33 60 -33 4 0
23 -16 42 -35 24 -23 73 -50 160 -86 69 -28 151 -67 181 -87 99 -63 190 -91
215 -65 8 8 15 19 15 24 0 18 -95 112 -190 188 -52 41 -103 85 -112 96 -40 47
-171 323 -223 470 -53 148 -112 270 -139 287 -21 14 -41 8 -96 -27z"/>
<path d="M17512 14163 c17 -27 58 -83 89 -125 32 -43 63 -94 70 -113 l13 -35
12 41 c11 35 10 47 -1 68 -18 34 -190 211 -205 211 -6 0 4 -21 22 -47z"/>
<path d="M15504 14155 c4 -11 34 -93 66 -181 55 -154 145 -345 209 -446 16
-26 55 -64 88 -87 32 -22 77 -55 101 -72 24 -17 45 -29 47 -27 13 13 -48 265
-74 306 -6 10 -14 10 -35 2 -15 -5 -32 -10 -37 -10 -16 0 24 47 49 59 12 6 22
14 21 18 -4 25 3 45 14 40 9 -3 12 5 9 29 -2 19 -8 31 -13 28 -5 -3 -10 0 -10
5 -1 6 -2 16 -3 22 -1 15 -37 40 -48 33 -5 -3 -7 -2 -6 3 4 15 -50 90 -88 121
-21 17 -63 41 -93 53 -67 26 -112 52 -166 93 -32 25 -38 27 -31 11z"/>
<path d="M9689 13824 c-18 -45 -36 -130 -50 -237 -10 -79 -10 -125 0 -243 7
-80 16 -157 22 -170 5 -14 9 -35 9 -48 0 -35 38 -62 136 -99 110 -41 113 -43
220 -147 89 -87 139 -150 167 -213 14 -30 29 -44 77 -66 39 -19 76 -47 107
-82 26 -30 64 -72 85 -94 25 -26 50 -74 80 -149 33 -85 55 -125 96 -173 30
-35 61 -85 70 -112 13 -39 42 -75 132 -168 107 -111 117 -119 143 -112 15 4
48 10 72 13 78 11 70 1 110 141 9 33 19 67 22 75 4 8 38 146 77 305 l72 290
31 3 c39 4 54 22 82 97 13 33 36 90 52 126 16 36 29 72 29 80 0 8 6 23 13 34
8 11 19 35 25 53 11 31 9 35 -49 100 -33 37 -98 115 -145 174 -61 75 -117 131
-192 191 -162 128 -235 199 -313 303 l-70 94 -52 0 c-193 1 -871 39 -998 56
-47 6 -49 5 -60 -22z"/>
<path d="M10981 13815 c-52 -5 -96 -15 -98 -21 -4 -13 55 -93 121 -163 28 -29
112 -103 186 -164 135 -111 169 -144 238 -235 65 -86 172 -196 182 -186 5 5
33 56 63 114 30 58 91 177 137 265 46 88 94 184 107 213 l23 53 -32 14 c-103
42 -234 67 -388 71 -96 3 -189 12 -245 24 -116 25 -179 28 -294 15z"/>
<path d="M11895 13822 c-14 -3 -8 -8 24 -19 31 -10 47 -11 54 -4 6 6 9 12 6
14 -8 8 -64 14 -84 9z"/>
<path d="M12053 13809 c-25 -25 -15 -48 25 -58 53 -14 196 -25 226 -17 37 9
32 21 -20 52 -37 22 -61 27 -132 31 -63 4 -90 1 -99 -8z"/>
<path d="M7322 13785 c-97 -27 -107 -41 -78 -109 25 -59 138 -219 192 -271 28
-27 63 -73 77 -101 26 -52 46 -66 112 -80 87 -18 208 -61 271 -95 104 -57 213
-175 287 -310 56 -101 60 -106 140 -158 45 -30 101 -70 125 -89 l43 -34 592
21 c326 12 617 21 647 21 l56 0 22 -87 c18 -74 87 -341 123 -475 5 -21 15 -38
22 -38 7 0 21 -11 31 -25 24 -32 46 -33 39 -2 -3 12 -12 29 -18 37 -7 8 -18
35 -25 60 -21 83 -87 283 -125 385 -15 39 -38 111 -52 160 -14 50 -38 130 -55
179 -16 49 -27 96 -26 105 2 9 17 -22 32 -69 16 -47 32 -89 36 -95 3 -5 17
-39 29 -75 12 -36 26 -74 31 -85 4 -11 18 -47 31 -80 12 -33 28 -73 35 -90 7
-16 20 -55 29 -85 9 -30 30 -82 46 -114 16 -33 29 -66 29 -74 0 -8 8 -30 17
-49 13 -29 18 -33 23 -18 6 16 7 16 22 1 9 -9 22 -16 28 -16 6 0 8 -5 5 -10
-4 -6 -3 -10 2 -9 21 5 71 -17 96 -43 16 -15 34 -28 40 -28 7 0 19 -15 27 -33
15 -33 60 -51 60 -25 0 8 5 6 11 -5 7 -12 17 -16 31 -11 13 4 18 2 14 -4 -4
-7 8 -14 29 -18 25 -4 52 -22 83 -53 50 -50 92 -99 92 -108 0 -3 10 -13 23
-24 16 -14 38 -18 89 -19 50 0 69 -4 76 -16 7 -13 15 -13 64 6 30 11 63 29 73
40 16 18 13 23 -97 135 -91 94 -117 127 -133 171 -11 29 -42 80 -69 113 -35
41 -63 92 -95 170 -42 102 -53 118 -133 204 -65 69 -102 100 -146 121 -49 24
-63 36 -81 74 -31 62 -80 122 -181 218 -84 80 -131 105 -269 149 -26 8 -26 6
-5 -94 5 -23 4 -32 -4 -28 -5 4 -13 26 -17 50 -13 77 -32 103 -124 165 -94 64
-243 148 -306 174 -27 11 -85 19 -173 23 -72 3 -165 12 -205 21 -39 8 -102 19
-138 24 -95 14 -225 57 -271 91 -22 16 -57 31 -77 34 -134 22 -349 69 -375 82
-17 9 -58 35 -91 59 -96 68 -230 130 -325 150 -114 23 -222 27 -288 9z"/>
<path d="M14142 13759 c-56 -11 -73 -29 -51 -55 11 -13 9 -14 -17 -8 -16 4
-38 13 -49 20 -21 15 -85 17 -150 6 -33 -6 -44 -14 -62 -47 -12 -22 -22 -45
-22 -50 -1 -6 88 -23 207 -39 114 -15 244 -34 289 -42 72 -12 109 -12 279 1
146 12 220 13 291 6 92 -10 143 -2 143 20 0 26 -138 73 -420 145 -191 49 -333
63 -438 43z"/>
<path d="M13083 13734 c-53 -12 -3 -66 75 -83 26 -5 104 -15 172 -21 126 -10
138 -9 225 24 22 8 69 15 106 16 63 0 89 11 89 36 0 8 -50 13 -167 18 -301 11
-478 15 -500 10z"/>
<path d="M11954 13647 c-12 -17 -34 -57 -49 -87 -15 -30 -70 -138 -122 -239
-51 -102 -99 -192 -107 -200 -7 -9 -19 -39 -27 -68 l-13 -52 90 -93 c120 -125
185 -202 242 -284 l47 -69 506 -3 506 -2 51 -163 c70 -220 136 -455 166 -588
14 -61 28 -114 31 -117 15 -15 275 99 275 120 0 16 -95 374 -146 544 -24 83
-44 155 -44 159 0 4 80 5 178 1 346 -13 1068 -45 1131 -50 l64 -6 -45 43 c-24
24 -69 77 -100 118 -74 100 -106 133 -153 156 -50 26 -134 50 -204 59 -30 4
-66 13 -80 20 -14 8 -31 14 -38 14 -12 0 -284 96 -443 156 -135 52 -629 292
-665 324 -16 15 -39 33 -51 41 -12 8 -55 45 -97 82 -170 154 -234 177 -515
183 -126 2 -231 10 -275 19 -93 19 -89 20 -113 -18z"/>
<path d="M13243 13542 c-33 -2 -43 -7 -43 -21 0 -24 20 -41 48 -41 15 0 26 -7
29 -20 6 -23 297 -169 484 -243 198 -79 469 -165 584 -187 163 -30 224 -46
395 -100 288 -92 404 -121 549 -141 80 -10 190 -31 245 -45 143 -37 203 -50
377 -79 153 -26 205 -26 196 -1 -3 7 -9 35 -13 62 -9 61 -45 126 -97 176 -42
40 -124 98 -138 98 -5 0 -38 14 -75 30 -71 33 -177 101 -290 186 -39 30 -75
54 -81 54 -6 0 -40 14 -76 30 -37 17 -78 30 -92 30 -14 0 -25 4 -25 10 0 14
-56 36 -195 76 -184 54 -237 59 -464 45 -209 -13 -215 -13 -626 50 -108 16
-432 30 -505 22 -71 -8 -72 -8 -115 4 -16 4 -49 7 -72 5z"/>
<path d="M6944 13425 c-4 -8 1 -67 10 -131 37 -250 172 -469 368 -595 116 -74
248 -126 468 -186 30 -8 97 -28 148 -44 51 -16 99 -29 107 -29 8 0 19 17 26
40 13 42 14 42 121 52 26 3 25 6 -45 79 -40 42 -88 84 -107 94 -55 29 -117 85
-154 141 -31 46 -47 58 -141 105 -91 45 -115 63 -167 121 -33 37 -65 68 -72
68 -28 0 -236 113 -285 155 -100 85 -171 128 -234 139 -29 5 -39 3 -43 -9z"/>
<path d="M18625 13235 c3 -11 13 -49 21 -85 19 -80 28 -99 38 -75 5 14 9 15
21 5 29 -24 30 1 2 54 -30 58 -93 135 -82 101z"/>
<path d="M7660 13100 c12 -22 45 -45 164 -111 67 -38 83 -52 109 -97 26 -47
125 -142 147 -142 4 0 57 -49 117 -110 98 -98 113 -110 145 -110 19 0 38 3 41
7 4 3 -35 35 -87 69 -99 67 -111 79 -171 189 -57 105 -173 220 -261 260 -62
29 -177 65 -205 65 -6 0 -5 -8 1 -20z"/>
<path d="M17021 12972 c-6 -11 -11 -28 -11 -36 0 -9 -4 -16 -10 -16 -5 0 -10
-7 -10 -15 0 -8 -5 -15 -11 -15 -6 0 -9 -9 -6 -20 3 -12 1 -18 -5 -14 -6 4 -8
-1 -3 -15 3 -12 2 -21 -4 -21 -17 0 -8 -44 14 -67 11 -13 37 -25 60 -28 22 -3
55 -8 73 -11 23 -3 34 -1 38 10 6 15 -51 176 -66 186 -4 3 -16 23 -27 44 -19
38 -21 39 -32 18z"/>
<path d="M11583 12873 c-48 -111 -63 -153 -63 -171 0 -10 -3 -22 -7 -26 -12
-12 -43 -121 -35 -126 4 -3 108 -3 231 0 l223 5 -48 72 c-55 81 -249 293 -268
293 -7 0 -22 -21 -33 -47z"/>
<path d="M19170 12815 c65 -73 102 -149 103 -214 1 -71 -10 -78 -42 -30 -31
45 -210 229 -223 229 -19 0 25 -60 102 -140 45 -47 92 -102 106 -122 29 -45
68 -181 59 -208 -4 -11 -2 -20 4 -20 7 0 11 56 11 168 0 167 0 169 -30 228
-16 34 -54 83 -86 114 l-58 55 54 -60z"/>
<path d="M18457 12825 c-6 -14 -31 -14 -87 -1 -36 9 -120 -45 -120 -78 0 -13
20 -62 44 -109 24 -47 52 -119 61 -159 21 -87 79 -258 105 -308 22 -44 51 -71
57 -53 3 8 13 8 38 -3 19 -8 44 -14 55 -14 11 0 20 -6 20 -12 0 -21 34 -98 44
-98 4 0 7 35 5 79 -5 91 -3 90 62 -44 25 -52 44 -83 47 -73 6 30 -86 284 -139
381 -6 11 -8 22 -5 25 7 7 3 14 61 -98 58 -114 85 -159 85 -144 0 16 -46 137
-71 187 l-21 42 23 -21 c23 -20 62 -44 72 -44 3 0 8 21 12 48 9 67 -9 165 -46
240 -17 35 -38 88 -46 116 -21 71 -54 146 -64 146 -19 0 -7 -60 37 -195 25
-77 53 -156 62 -175 19 -43 42 -102 42 -112 0 -5 -6 -8 -12 -8 -7 0 -28 42
-47 93 -19 50 -54 134 -78 186 -23 52 -43 101 -43 111 0 9 -20 37 -44 63 -33
36 -51 47 -74 47 -17 0 -32 -6 -35 -15z"/>
<path d="M18715 12808 c-4 -14 3 -52 15 -89 28 -82 98 -234 106 -226 5 5 -100
325 -111 335 -2 2 -7 -7 -10 -20z"/>
<path d="M18841 12780 c14 -31 19 -36 19 -24 0 6 -7 19 -16 30 -14 18 -14 18
-3 -6z"/>
<path d="M14663 12703 c-19 -4 -21 -8 -12 -30 11 -30 64 -99 98 -129 14 -12
63 -42 110 -67 72 -38 106 -49 206 -67 155 -27 479 -108 528 -131 21 -10 80
-30 130 -44 204 -57 244 -70 279 -92 54 -33 94 -30 117 7 10 16 21 27 24 23 4
-3 7 2 7 13 0 15 2 16 9 5 5 -8 6 -21 3 -30 -4 -12 -1 -12 13 3 21 21 22 85 2
98 -7 4 -12 29 -12 55 0 42 -3 49 -32 65 -29 18 -160 56 -243 72 -19 4 -93 18
-165 31 -71 14 -177 38 -235 55 -58 16 -159 37 -225 46 -121 15 -178 28 -385
82 -126 33 -183 42 -217 35z"/>
<path d="M16994 12592 c-22 -14 68 -48 111 -42 l40 6 -33 8 c-18 4 -45 14 -60
22 -30 16 -42 17 -58 6z"/>
<path d="M2980 12560 c0 -5 5 -10 11 -10 5 0 7 5 4 10 -3 6 -8 10 -11 10 -2 0
-4 -4 -4 -10z"/>
<path d="M16930 12550 c0 -5 9 -10 21 -10 11 0 17 5 14 10 -3 6 -13 10 -21 10
-8 0 -14 -4 -14 -10z"/>
<path d="M16991 12501 c-18 -12 -2 -18 39 -16 46 3 48 4 30 15 -19 12 -51 13
-69 1z"/>
<path d="M2953 12475 c-5 -11 -16 -47 -23 -80 -7 -33 -18 -64 -25 -70 -6 -5
-26 -46 -43 -90 -17 -44 -38 -94 -46 -111 -20 -40 -40 -138 -33 -158 11 -28
35 -5 70 68 19 40 48 83 63 97 66 57 87 107 99 235 5 66 4 72 -14 77 -12 3
-25 15 -29 28 -9 22 -9 23 -19 4z"/>
<path d="M18990 12456 c0 -26 57 -164 91 -219 51 -83 149 -275 166 -324 13
-38 17 -105 20 -326 3 -164 8 -275 14 -271 5 3 9 110 9 245 0 292 -10 353 -79
489 -223 441 -221 437 -221 406z"/>
<path d="M7797 12413 c-8 -26 -56 -195 -107 -375 l-92 -328 -32 -4 c-17 -3
-472 -35 -1011 -72 -539 -36 -981 -67 -982 -67 -2 -3 -101 -722 -99 -723 0 -1
118 5 261 12 143 8 549 18 903 21 l642 5 0 -80 0 -80 33 -4 c110 -16 337 -98
428 -154 l37 -23 7 142 c14 313 74 864 131 1206 24 148 62 309 103 436 l19 60
-41 18 c-23 11 -67 25 -97 33 -30 8 -63 17 -72 20 -13 4 -20 -6 -31 -43z"/>
<path d="M16864 12179 c-6 -8 -32 -70 -57 -139 -25 -69 -53 -142 -61 -162 -26
-61 -21 -102 17 -140 18 -18 57 -46 86 -62 71 -38 112 -32 200 29 l67 46 60
-16 c93 -24 210 -23 262 4 41 21 42 23 42 70 0 58 -7 81 -25 81 -7 0 -32 22
-54 49 -25 30 -56 54 -77 61 -19 7 -64 30 -100 51 -190 116 -331 165 -360 128z"/>
<path d="M2187 12172 c-5 -7 -13 -56 -18 -110 -11 -126 -17 -161 -40 -256 -11
-43 -17 -81 -14 -84 16 -16 51 60 79 173 14 55 7 300 -7 277z"/>
<path d="M18528 11820 c-33 -18 -46 -80 -28 -134 6 -19 13 -67 16 -108 6 -91
24 -113 97 -124 29 -5 56 -8 61 -9 14 0 7 224 -8 260 -7 16 -35 53 -62 80 -48
50 -50 50 -76 35z"/>
<path d="M18694 11756 c-7 -17 11 -273 21 -298 4 -10 14 -18 23 -18 13 0 14
15 8 110 -9 160 -33 255 -52 206z"/>
<path d="M18970 11725 c0 -18 73 -154 91 -171 21 -18 20 -17 -3 21 -13 22 -37
66 -52 98 -23 50 -36 68 -36 52z"/>
<path d="M11087 11714 c-2 -2 -24 -6 -48 -8 -24 -2 -47 -4 -51 -5 -19 -2 -5
-29 32 -58 46 -39 53 -40 67 -10 29 62 32 75 18 80 -7 3 -15 4 -18 1z"/>
<path d="M13485 11689 c-127 -50 -205 -92 -200 -108 7 -23 41 -410 60 -676 19
-271 19 -270 49 -300 13 -13 26 -29 28 -35 5 -17 48 19 48 42 0 11 16 64 35
117 19 53 47 147 63 208 16 61 39 125 51 142 12 17 24 43 27 58 3 16 7 36 10
45 7 25 -23 243 -54 393 -31 148 -31 147 -117 114z"/>
<path d="M2175 11660 c-9 -18 -28 -62 -42 -99 -13 -36 -47 -116 -74 -177 -27
-62 -49 -117 -49 -123 0 -16 38 -33 59 -26 32 10 58 48 85 125 15 41 30 84 36
95 34 75 42 179 17 216 -15 21 -15 21 -32 -11z"/>
<path d="M17124 11667 c-36 -20 -123 -91 -128 -105 -3 -7 1 -28 8 -47 13 -31
44 -57 163 -140 27 -19 115 -148 112 -167 -4 -29 2 -46 34 -99 18 -30 44 -81
57 -114 13 -33 32 -74 42 -90 34 -58 89 -221 103 -301 15 -92 79 -237 107
-242 10 -2 20 6 25 20 12 34 5 275 -12 408 -31 242 -48 398 -52 475 -2 44 -10
94 -18 110 -8 17 -24 79 -35 139 -34 173 -40 181 -121 153 -50 -18 -149 -23
-177 -8 -30 15 -87 19 -108 8z"/>
<path d="M10938 11652 c-10 -9 -39 -28 -65 -42 -51 -28 -63 -49 -40 -72 8 -8
17 -23 21 -35 4 -12 14 -27 22 -34 19 -16 62 -21 69 -8 4 5 14 9 23 9 14 1 66
67 81 103 3 9 -78 98 -89 96 -3 0 -13 -8 -22 -17z"/>
<path d="M14744 11071 l69 -558 185 -7 184 -7 55 38 c67 46 69 50 49 72 -16
18 -15 19 26 25 24 4 53 15 65 26 13 10 50 69 82 132 45 85 61 128 66 173 4
33 28 121 53 195 27 82 47 160 50 200 l4 66 -38 29 c-50 38 -135 68 -280 99
-239 50 -419 76 -531 76 l-109 0 70 -559z"/>
<path d="M9010 11565 c0 -19 5 -25 21 -25 15 0 19 4 15 16 -3 9 -6 20 -6 25 0
5 -7 9 -15 9 -9 0 -15 -9 -15 -25z"/>
<path d="M1169 11473 c41 -76 193 -219 321 -304 63 -42 378 -209 394 -209 3 0
-4 19 -14 43 -15 32 -18 54 -13 95 l6 52 -55 0 c-127 0 -250 60 -515 252 -67
48 -124 88 -128 88 -3 0 -1 -8 4 -17z"/>
<path d="M18504 11436 c-21 -55 27 -252 93 -378 86 -168 107 -173 102 -26 -2
51 -4 156 -4 233 l0 140 -75 8 c-44 5 -82 15 -92 24 -16 14 -18 14 -24 -1z"/>
<path d="M18944 11432 c4 -11 11 -45 16 -76 5 -31 14 -64 19 -73 17 -30 13 57
-5 110 -15 45 -43 82 -30 39z"/>
<path d="M12076 11424 c-17 -16 -21 -34 -8 -34 4 0 8 -12 8 -26 1 -14 9 -33
18 -43 21 -23 20 -57 -1 -70 -10 -6 -12 -11 -5 -11 6 0 21 9 33 21 20 20 20
22 5 96 -9 41 -16 77 -16 79 0 10 -20 3 -34 -12z"/>
<path d="M16835 11415 c12 -58 228 -488 284 -569 115 -163 159 -223 226 -306
38 -47 98 -130 134 -185 40 -61 67 -94 69 -84 2 9 -17 48 -41 85 -65 101 -76
127 -97 219 -10 47 -28 111 -40 142 -34 91 -149 313 -190 368 -21 28 -45 61
-54 75 -8 14 -44 48 -78 75 -35 28 -98 86 -142 130 -69 71 -77 77 -71 50z"/>
<path d="M16745 11363 c-4 -21 -15 -82 -26 -135 -10 -53 -19 -109 -19 -125 0
-15 -7 -57 -15 -93 -8 -36 -26 -130 -40 -210 -23 -135 -24 -149 -11 -210 28
-127 36 -199 36 -313 0 -88 5 -130 20 -179 11 -34 23 -91 27 -125 3 -36 11
-63 17 -63 6 0 5 -4 -3 -9 -11 -7 -12 -15 -3 -38 17 -41 32 -220 31 -358 -1
-125 7 -173 45 -259 19 -42 22 -63 19 -117 -6 -72 7 -109 35 -109 13 0 14 -2
3 -9 -9 -6 -11 -18 -5 -42 4 -19 8 -79 9 -134 1 -77 6 -115 24 -165 13 -36 23
-78 22 -95 0 -16 9 -70 20 -120 19 -77 29 -100 75 -161 49 -63 59 -72 102 -82
26 -5 47 -10 47 -9 0 1 12 25 27 52 14 28 48 91 74 140 l48 90 6 175 c6 170 7
177 37 235 27 54 40 97 48 161 2 11 18 49 36 85 30 60 33 72 39 204 7 125 10
145 33 185 14 25 35 85 47 133 11 48 29 106 40 127 11 22 17 40 13 40 -4 0 -2
5 5 12 7 7 12 37 12 68 1 30 7 66 14 79 18 32 12 47 -40 101 -23 25 -91 117
-150 205 -59 88 -139 202 -178 253 -166 219 -245 339 -316 482 -70 142 -190
370 -195 370 -2 0 -7 -17 -10 -37z"/>
<path d="M18719 11383 c-3 -116 4 -267 14 -286 10 -19 12 6 12 137 0 118 -3
160 -12 163 -7 3 -13 -4 -14 -14z"/>
<path d="M18960 11215 c0 -17 5 -25 13 -22 6 2 12 12 12 22 0 10 -6 20 -12 23
-8 2 -13 -6 -13 -23z"/>
<path d="M15761 11113 c-1 -7 -7 -13 -13 -13 -23 -1 -48 -48 -77 -143 -16 -52
-52 -134 -80 -182 -75 -131 -73 -135 69 -135 l88 0 12 43 c15 54 24 338 12
397 -6 25 -10 39 -11 33z"/>
<path d="M12052 11083 c-11 -15 -23 -39 -27 -53 -4 -14 -11 -29 -15 -35 -17
-21 -41 -127 -44 -189 -2 -49 1 -73 15 -95 49 -81 124 -75 169 13 33 64 10
356 -28 356 -8 0 -12 6 -8 15 3 8 1 15 -4 15 -6 0 -10 -5 -10 -11 0 -8 -4 -8
-14 0 -11 9 -18 6 -34 -16z"/>
<path d="M9009 11053 c-13 -3 -17 -25 -23 -121 -7 -126 -2 -182 16 -216 13
-23 15 -28 17 -51 0 -8 7 -15 15 -15 8 0 16 -4 18 -8 7 -18 56 -22 72 -7 8 8
19 15 25 15 6 0 12 7 12 15 3 28 4 33 11 40 4 4 5 12 2 19 -2 6 2 32 10 58 17
57 6 131 -24 168 -12 14 -28 37 -38 52 -20 33 -78 59 -113 51z"/>
<path d="M13631 11012 c0 -12 -5 -30 -10 -40 -5 -9 -30 -84 -56 -167 -27 -82
-50 -154 -51 -160 -2 -5 26 -46 61 -90 62 -77 77 -105 55 -105 -5 0 -10 9 -10
19 0 11 -26 48 -57 81 -52 57 -58 60 -65 41 -4 -12 -20 -37 -35 -56 -21 -26
-27 -43 -25 -72 3 -46 20 -91 43 -114 9 -9 18 -22 21 -29 4 -14 88 -18 107 -5
6 3 11 29 11 56 0 31 4 48 10 44 6 -3 10 -19 10 -36 0 -37 21 -38 51 -1 21 26
21 32 16 197 -10 254 -24 377 -47 395 -10 8 -20 26 -23 40 -4 23 -4 23 -6 2z"/>
<path d="M1983 10793 c-7 -17 0 -50 51 -278 31 -135 41 -284 28 -434 -9 -112
-9 -114 16 -152 29 -45 37 -47 67 -19 13 12 45 24 75 29 60 10 90 36 90 80 0
49 -71 284 -116 381 -27 60 -47 123 -55 170 -6 41 -19 86 -28 100 -8 14 -25
46 -37 72 -29 62 -77 88 -91 51z"/>
<path d="M7280 10501 c0 -136 3 -181 13 -189 50 -42 318 -34 407 11 48 24 79
70 80 119 1 68 -214 187 -408 227 -100 21 -92 35 -92 -168z"/>
<path d="M15553 10603 c-29 -6 -73 -58 -73 -88 0 -20 6 -23 41 -27 46 -4 102
22 157 75 29 28 31 32 15 39 -19 7 -104 8 -140 1z"/>
<path d="M18440 10263 c-28 -26 -31 -34 -35 -113 -3 -47 -12 -98 -19 -115 -22
-46 -47 -286 -44 -415 2 -63 -1 -169 -6 -236 -8 -111 -7 -121 9 -128 22 -8 18
-13 43 56 12 32 39 84 61 115 21 32 44 74 50 94 7 23 20 39 32 42 12 3 18 10
15 16 -4 6 -3 19 2 28 6 10 18 106 28 213 15 168 16 213 5 325 -7 77 -17 133
-24 137 -28 18 -87 8 -117 -19z"/>
<path d="M7365 10230 c-79 -20 -85 -26 -85 -97 l0 -63 63 0 c108 0 245 28 323
66 40 18 77 34 83 34 6 0 11 5 11 11 0 7 -9 9 -22 6 -12 -4 -28 -2 -34 4 -39
32 -262 57 -339 39z"/>
<path d="M13504 10207 c-56 -32 -104 -125 -104 -202 0 -22 7 -80 14 -128 11
-64 12 -97 5 -115 -6 -15 -12 -63 -13 -107 -2 -71 1 -86 26 -135 15 -30 34
-75 41 -100 l13 -45 101 -3 101 -3 6 83 c11 136 22 612 16 623 -4 6 -14 31
-24 57 -14 38 -25 51 -60 67 -47 24 -91 26 -122 8z"/>
<path d="M7688 10075 c-52 -19 -180 -44 -299 -58 l-104 -12 -3 -54 -3 -54
-936 5 -935 6 4 -254 c2 -139 7 -256 11 -261 4 -4 16 -3 25 3 9 6 44 25 77 43
70 38 40 9 -42 -42 -60 -36 -63 -48 -43 -163 28 -158 30 -164 53 -163 12 1 54
-2 92 -6 68 -8 70 -7 54 11 -9 10 -24 35 -33 54 -9 19 -11 26 -4 16 7 -11 29
-37 48 -58 l35 -37 185 -11 c102 -5 222 -12 267 -14 l82 -5 -14 47 c-19 63
-11 66 12 3 15 -43 22 -51 43 -51 50 0 1217 -60 1278 -66 l62 -6 0 -41 c0 -63
72 -514 105 -664 5 -22 5 -22 87 13 46 19 84 37 87 39 2 2 -6 58 -18 124 -56
314 -72 460 -81 771 -5 168 -9 324 -10 348 l0 42 -138 0 c-164 0 -708 43 -822
65 -80 15 -357 35 -492 35 -156 0 -362 -25 -409 -51 -12 -6 -23 -8 -26 -5 -10
10 67 37 146 51 198 35 401 30 826 -20 309 -37 418 -45 683 -52 l232 -6 0 247
0 246 -22 -1 c-13 0 -39 -6 -60 -14z m-1912 -506 c-54 -28 -100 -48 -102 -46
-6 6 167 96 185 97 8 0 -30 -23 -83 -51z m-144 -77 l-23 -18 81 -123 c109
-169 107 -184 -6 -31 -46 63 -94 142 -94 156 0 6 12 15 28 21 38 15 40 15 14
-5z"/>
<path d="M9040 10033 c-13 -15 -12 -16 4 -10 13 5 17 3 14 -11 -2 -9 -10 -17
-18 -17 -8 0 -15 -8 -15 -18 0 -10 -9 -26 -20 -34 -19 -14 -18 -15 15 -8 56
10 70 16 70 26 0 5 11 9 25 9 22 0 24 2 14 23 -9 19 -57 58 -71 57 -1 -1 -10
-8 -18 -17z"/>
<path d="M16485 9979 c-5 -13 -9 -60 -11 -104 -1 -44 -9 -100 -18 -124 -9 -24
-16 -75 -16 -115 -1 -44 -8 -92 -20 -126 -11 -30 -19 -72 -20 -94 0 -44 -33
-186 -55 -239 -21 -50 -19 -119 5 -205 11 -39 20 -90 20 -112 0 -29 4 -40 15
-40 12 0 13 -4 3 -19 -9 -15 -6 -28 20 -74 25 -43 31 -67 30 -104 -1 -26 -7
-55 -14 -63 -7 -8 -17 -27 -23 -42 -9 -24 -3 -42 52 -150 95 -186 142 -253
182 -260 17 -2 20 2 18 27 -1 16 -9 35 -18 41 -9 7 -13 18 -9 28 3 8 1 30 -5
47 -10 28 -8 36 13 63 38 51 53 88 55 141 1 28 10 82 21 121 32 125 35 175 11
222 -12 23 -21 53 -21 67 0 14 -7 40 -16 57 -9 17 -16 54 -15 82 0 28 -6 83
-14 121 -7 39 -16 126 -19 195 -3 69 -13 161 -21 205 -8 44 -20 116 -26 160
-5 44 -18 94 -28 111 -10 17 -22 61 -25 97 -5 40 -15 76 -25 89 l-18 22 -8
-25z"/>
<path d="M16199 9909 c-38 -81 -105 -149 -222 -228 -158 -106 -169 -109 -555
-132 -154 -9 -205 -16 -209 -26 -3 -8 13 -41 36 -73 l42 -60 -2 -97 c-2 -88 2
-107 30 -185 17 -47 31 -93 31 -101 0 -9 10 -28 23 -44 13 -15 40 -73 59 -128
30 -83 53 -160 49 -160 -1 0 10 -33 24 -74 14 -41 25 -89 25 -106 0 -36 94
-190 109 -180 5 3 11 0 13 -6 2 -7 42 -1 118 20 220 59 198 48 235 121 28 56
46 107 51 145 0 6 4 19 8 30 20 53 27 77 51 165 14 52 25 113 25 135 0 22 10
69 22 105 15 46 23 105 28 200 5 95 12 147 25 175 12 27 17 63 17 110 -1 48 5
88 19 125 21 56 47 285 36 314 -4 10 -13 13 -23 9 -9 -3 -19 -1 -23 6 -4 6
-22 -19 -42 -60z"/>
<path d="M9106 9903 c-51 -13 -54 -63 -5 -63 26 0 29 3 29 35 0 19 -1 34 -2
34 -2 -1 -12 -4 -22 -6z"/>
<path d="M12018 9836 c-41 -24 -81 -70 -71 -80 3 -3 1 -6 -5 -6 -7 0 -12 -17
-12 -43 0 -34 4 -44 23 -52 12 -6 26 -20 32 -32 5 -12 16 -24 25 -27 90 -34
138 -46 156 -39 27 10 14 149 -17 182 -11 11 -19 27 -19 35 0 8 -7 19 -16 24
-9 5 -15 13 -15 18 0 5 -7 9 -16 9 -9 0 -19 8 -22 17 -5 15 -10 14 -43 -6z"/>
<path d="M13392 9790 c0 -19 2 -27 5 -17 2 9 2 25 0 35 -3 9 -5 1 -5 -18z"/>
<path d="M17610 9629 c-7 -28 -26 -76 -43 -107 -29 -53 -31 -66 -37 -192 -6
-124 -9 -140 -37 -195 -17 -33 -38 -93 -47 -134 -9 -40 -29 -96 -44 -125 -25
-48 -27 -62 -32 -222 l-6 -170 -67 -140 c-67 -139 -76 -167 -57 -179 6 -4 8
-11 4 -16 -3 -5 -10 -7 -15 -4 -5 4 -9 1 -9 -4 0 -20 -2 -26 -21 -63 -11 -21
-31 -45 -44 -54 -25 -16 -25 -17 -7 -30 11 -7 38 -17 60 -22 l40 -9 7 44 c6
40 8 43 20 27 11 -16 14 -15 29 15 10 18 15 39 12 46 -2 7 1 16 9 19 34 13
180 590 215 850 8 62 8 81 -2 87 -10 6 -9 11 4 21 19 16 41 136 32 174 -5 19
-4 25 5 20 6 -4 11 -3 11 3 0 5 6 61 14 123 18 142 30 288 23 288 -3 0 -10
-23 -17 -51z"/>
<path d="M9062 9570 c-12 -16 -22 -36 -22 -45 0 -8 -7 -15 -15 -15 -18 0 -20
-16 -2 -23 10 -4 10 -6 0 -6 -7 -1 -13 -9 -13 -18 1 -19 30 -64 30 -46 0 14
82 4 92 -11 7 -11 9 -9 12 14 0 6 7 15 15 19 9 6 10 11 2 15 -6 4 -11 14 -11
22 0 8 3 13 8 11 11 -8 14 83 3 97 -6 7 -26 13 -44 14 -27 1 -38 -5 -55 -28z
m88 10 c0 -5 -4 -10 -10 -10 -5 0 -10 5 -10 10 0 6 5 10 10 10 6 0 10 -4 10
-10z m-13 -107 c-3 -10 -5 -4 -5 12 0 17 2 24 5 18 2 -7 2 -21 0 -30z"/>
<path d="M2220 9550 c-8 -5 -25 -10 -38 -10 -15 0 -26 -9 -34 -27 -7 -16 -18
-36 -26 -45 -12 -14 -12 -29 -4 -80 6 -35 14 -133 18 -218 4 -106 12 -174 25
-215 10 -33 23 -103 29 -155 13 -114 38 -240 52 -257 5 -7 7 -16 4 -21 -2 -4
11 -46 29 -93 19 -46 35 -90 35 -97 0 -7 11 -23 25 -36 14 -13 25 -27 25 -31
0 -4 -11 -4 -25 -1 l-25 6 0 -159 c0 -180 -1 -177 78 -185 22 -2 44 -6 50 -10
9 -5 166 28 209 45 30 11 83 86 83 117 0 14 -7 34 -17 44 -9 11 -11 18 -5 18
20 0 14 18 -28 88 -21 37 -52 107 -67 156 -20 64 -33 90 -48 96 -18 7 -18 9
-3 15 10 4 15 12 11 18 -3 5 -8 74 -10 151 -4 185 -27 470 -47 575 -17 95 -48
164 -112 251 -42 57 -46 60 -86 60 -24 0 -52 3 -63 5 -11 3 -27 1 -35 -5z m38
-526 c25 -74 41 -172 47 -280 6 -106 6 -108 -11 -79 -11 19 -20 66 -24 135 -5
58 -15 123 -22 145 -23 62 -31 128 -16 123 7 -3 19 -22 26 -44z m147 -514 c8
-13 -15 -13 -35 0 -12 8 -11 10 7 10 12 0 25 -4 28 -10z"/>
<path d="M1695 9514 l-30 -14 44 4 c24 2 48 9 54 15 16 16 -32 13 -68 -5z"/>
<path d="M14924 9523 l-81 -4 -17 -142 c-9 -78 -16 -151 -16 -162 0 -17 19
-29 92 -60 51 -22 96 -41 100 -43 4 -2 12 16 18 40 6 24 26 93 45 153 62 200
60 226 -13 223 -26 -1 -83 -4 -128 -5z"/>
<path d="M18835 9450 c-9 -17 -23 -70 -31 -118 -9 -48 -22 -100 -29 -117 -7
-16 -32 -74 -55 -128 -38 -86 -42 -100 -31 -124 11 -23 10 -25 -3 -14 -13 11
-17 10 -22 -5 -3 -11 -13 -35 -22 -54 -8 -19 -15 -47 -15 -62 0 -16 -4 -28 -9
-28 -5 0 -4 -9 2 -20 8 -15 8 -18 -3 -14 -10 4 -22 -15 -41 -61 -30 -75 -31
-79 -13 -69 6 5 1 -6 -13 -22 -32 -38 -65 -143 -56 -179 10 -40 127 -151 147
-139 5 3 14 -4 21 -16 14 -21 43 -27 53 -10 3 6 24 10 46 10 l39 0 0 85 c0 47
3 85 8 85 4 0 6 -33 4 -72 -3 -85 4 -102 41 -93 59 15 44 122 -39 287 -32 63
-25 74 10 14 40 -69 46 -63 20 22 -29 93 -29 109 -3 192 23 75 38 254 39 471
0 203 -10 246 -45 179z m-41 -527 c-7 -37 -14 -42 -14 -11 0 21 7 38 16 38 1
0 0 -12 -2 -27z m-44 -68 c0 -8 7 -18 15 -23 22 -12 11 -34 -28 -55 l-32 -19
22 24 c19 20 21 29 14 61 -5 21 -5 35 0 31 5 -3 9 -11 9 -19z"/>
<path d="M15163 9428 c-29 -57 -58 -143 -87 -253 l-23 -90 101 -105 c84 -86
207 -250 271 -358 51 -86 79 -125 82 -115 9 25 -118 409 -147 446 -10 12 -37
76 -60 142 -40 115 -41 123 -35 205 l7 85 -37 43 c-20 23 -40 42 -43 42 -4 0
-17 -19 -29 -42z"/>
<path d="M9170 9420 c0 -5 5 -10 10 -10 6 0 10 5 10 10 0 6 -4 10 -10 10 -5 0
-10 -4 -10 -10z"/>
<path d="M9287 9415 c-14 -7 -64 -15 -111 -17 l-86 -5 -40 -43 c-24 -25 -42
-57 -46 -79 -7 -36 1 -342 12 -468 7 -71 7 -71 32 -62 25 10 207 115 227 131
12 10 146 105 190 135 46 31 165 146 165 160 0 6 -8 10 -17 9 -10 0 -17 5 -15
12 1 6 -2 12 -8 12 -5 0 -10 7 -10 16 0 8 -10 36 -21 62 -12 25 -22 52 -23 59
-1 6 -13 21 -27 31 -61 48 -174 72 -222 47z"/>
<path d="M13451 9404 c0 -11 3 -14 6 -6 3 7 2 16 -1 19 -3 4 -6 -2 -5 -13z"/>
<path d="M11688 9379 c-10 -5 -18 -15 -18 -22 0 -7 -14 -28 -31 -47 -34 -38
-69 -101 -69 -123 0 -8 -7 -20 -16 -28 -14 -11 21 -49 283 -305 164 -160 299
-291 300 -290 5 4 34 315 42 451 6 92 6 154 0 160 -5 5 -9 15 -9 23 0 8 -7 20
-17 27 -9 7 -17 22 -18 33 -2 30 -52 74 -76 67 -11 -4 -19 -2 -19 5 0 6 -4 9
-9 5 -6 -3 -14 3 -20 12 -5 10 -13 15 -17 11 -4 -5 -13 -3 -21 3 -8 7 -13 8
-13 1 0 -5 -13 -15 -28 -21 -23 -10 -40 -7 -107 15 -101 33 -116 35 -137 23z"/>
<path d="M13476 9313 c-6 -15 -8 -15 -16 -3 -6 10 -10 -23 -10 -94 l0 -109 40
-43 c24 -26 40 -53 40 -68 0 -28 15 -42 55 -49 17 -3 43 -9 58 -13 l29 -7 -4
72 c-1 39 0 72 3 74 3 1 9 55 13 119 7 136 19 123 -120 133 -72 5 -83 3 -88
-12z m64 -273 c6 -11 8 -20 6 -20 -3 0 -10 9 -16 20 -6 11 -8 20 -6 20 3 0 10
-9 16 -20z"/>
<path d="M13372 9229 c-1 -36 -5 -99 -8 -140 l-7 -74 52 -17 c63 -20 67 -7 14
38 l-38 32 -6 113 c-4 80 -6 94 -7 48z"/>
<path d="M9640 9094 c-39 -27 -72 -51 -175 -124 -105 -75 -252 -172 -349 -230
-79 -47 -86 -54 -86 -83 0 -18 12 -184 26 -370 14 -186 23 -341 20 -344 -3 -3
-229 0 -503 6 -274 6 -528 11 -564 11 -62 0 -67 1 -67 23 0 34 -44 251 -53
261 -8 9 -118 -30 -151 -55 -21 -16 -21 -17 -5 -100 10 -46 17 -88 17 -93 0
-5 -66 -6 -158 -2 l-157 7 -73 -67 c-108 -99 -195 -210 -188 -239 11 -45 126
-202 199 -273 55 -53 84 -73 117 -82 73 -18 98 -30 199 -98 53 -35 145 -89
204 -118 l108 -55 66 -102 c37 -56 90 -128 117 -161 84 -97 240 -230 313 -265
36 -18 80 -47 97 -65 17 -18 85 -61 151 -96 100 -53 132 -76 193 -139 85 -88
87 -92 137 -230 58 -162 110 -262 149 -287 l33 -21 43 39 c62 57 118 93 238
155 59 31 130 68 157 83 28 15 113 61 190 103 77 41 165 89 195 107 88 52 337
173 443 216 212 85 273 176 284 425 7 143 -6 260 -53 471 -20 90 -47 212 -60
272 -13 60 -34 139 -48 175 -13 36 -33 91 -44 121 l-19 55 -239 5 -239 5 -46
120 -47 120 -10 -40 c-18 -68 -44 -212 -77 -430 -27 -170 -34 -217 -45 -305
-52 -414 -114 -740 -182 -949 -37 -114 -124 -302 -175 -377 -113 -167 -127
-186 -167 -225 -14 -14 -23 -16 -32 -8 -11 9 -2 26 44 83 144 177 245 358 309
556 72 223 120 455 158 755 7 61 16 122 19 135 4 14 11 63 16 110 5 47 14 119
20 160 5 41 17 127 26 190 8 63 20 135 25 160 5 25 15 94 23 155 l14 109 -58
175 c-64 192 -59 188 -93 71 -34 -121 -53 -268 -68 -528 -13 -232 -23 -263
-104 -321 -96 -68 -304 -182 -435 -239 -25 -11 -76 -34 -113 -51 -38 -17 -71
-31 -74 -31 -3 0 -42 -25 -88 -56 -46 -31 -88 -53 -94 -49 -27 16 -10 53 44
94 30 22 57 41 61 41 3 0 18 8 32 18 15 10 68 35 117 56 260 109 544 271 572
327 7 13 13 60 13 104 0 170 44 513 86 680 14 55 31 119 37 142 9 37 6 55 -17
135 -15 51 -43 127 -61 168 -18 41 -36 87 -39 103 -8 33 -11 33 -56 1z"/>
<path d="M14795 9108 c-7 -23 -49 -392 -49 -430 0 -21 -4 -38 -9 -38 -4 0 -7
-10 -5 -22 4 -29 70 -66 183 -102 50 -16 104 -35 122 -42 17 -8 34 -14 38 -14
16 0 -6 61 -43 122 l-39 64 -7 190 c-7 215 1 196 -107 254 -62 33 -78 36 -84
18z"/>
<path d="M11525 9060 c3 -5 8 -10 11 -10 2 0 4 5 4 10 0 6 -5 10 -11 10 -5 0
-7 -4 -4 -10z"/>
<path d="M11544 9038 c-4 -7 -8 -23 -9 -36 0 -13 -14 -36 -31 -51 -31 -27 -84
-126 -84 -158 0 -42 -12 -64 -31 -58 -25 8 -25 5 15 -73 115 -224 316 -490
488 -644 68 -60 282 -228 292 -228 3 0 33 -19 68 -43 65 -44 109 -70 388 -227
239 -136 390 -238 390 -265 0 -8 -35 11 -82 45 -99 71 -213 141 -373 229 -250
138 -445 261 -570 360 -114 90 -125 101 -228 205 -110 111 -220 254 -352 454
-48 73 -89 132 -90 130 -2 -2 -32 -91 -69 -198 -36 -107 -94 -271 -128 -365
l-63 -170 -223 -9 -223 -9 7 -31 c3 -17 23 -83 44 -146 32 -100 61 -208 90
-340 4 -19 19 -87 33 -150 39 -176 50 -295 44 -449 -8 -184 -40 -279 -119
-345 -41 -34 -158 -94 -258 -131 -96 -35 -273 -121 -420 -203 -129 -72 -280
-156 -325 -182 -17 -10 -64 -34 -105 -56 -180 -91 -300 -187 -300 -237 0 -26
30 -56 216 -214 72 -62 146 -129 164 -150 18 -21 103 -111 188 -200 148 -156
160 -167 306 -257 84 -53 187 -127 232 -168 45 -40 106 -87 135 -104 30 -17
100 -59 157 -93 57 -33 109 -61 116 -61 7 0 23 -11 35 -24 30 -31 139 -84 210
-101 81 -19 237 -38 301 -36 30 0 87 10 125 21 56 17 98 21 209 20 120 0 152
3 238 27 94 25 105 26 172 14 52 -8 91 -9 144 -1 184 26 291 30 414 14 135
-16 211 -13 363 18 55 11 156 22 224 25 143 7 149 10 201 113 15 31 64 100
109 155 45 55 81 104 81 109 0 10 -36 -18 -62 -50 -9 -12 -31 -27 -48 -34 -24
-10 -30 -18 -30 -44 0 -34 -15 -56 -39 -56 -8 0 -49 -34 -92 -75 -62 -61 -83
-75 -108 -75 -42 0 -41 24 2 46 17 9 58 43 89 75 32 31 66 60 76 63 13 5 22
19 26 46 5 33 11 40 40 50 44 14 273 248 348 355 31 44 96 124 146 177 65 70
92 108 99 137 17 65 80 167 127 206 28 22 72 81 118 153 40 64 95 142 123 173
27 31 69 84 92 116 l42 60 -15 92 c-15 85 -27 114 -160 379 -80 158 -153 311
-164 340 -11 28 -34 79 -50 113 -43 85 -88 214 -110 321 -20 90 -71 207 -128
290 -16 24 -46 81 -66 128 -21 47 -58 120 -83 163 l-46 78 -130 -7 -130 -7 7
79 c4 43 22 172 41 286 19 113 35 217 35 230 0 13 -11 43 -24 68 -13 25 -29
72 -36 105 -7 36 -21 70 -35 85 -13 14 -31 41 -39 61 -12 28 -23 38 -54 47
-65 20 -70 17 -77 -35 -14 -98 -86 -515 -123 -708 l-38 -199 -34 -7 c-19 -4
-112 -11 -207 -15 -95 -3 -173 -10 -173 -14 0 -18 262 -205 405 -287 77 -45
141 -67 151 -52 3 5 23 18 44 29 59 30 148 25 226 -12 26 -12 46 -52 38 -73
-7 -17 -24 -21 -24 -5 0 5 -12 13 -27 16 -16 4 -34 11 -40 16 -15 12 -167 7
-180 -5 -9 -10 24 -37 82 -67 188 -97 295 -161 295 -176 0 -32 -34 -23 -142
39 -62 35 -158 88 -212 118 -96 51 -103 53 -170 50 -39 -1 -73 -6 -76 -12 -11
-17 -73 -29 -147 -29 -114 0 -95 18 24 22 74 2 108 7 111 16 2 6 21 15 43 18
21 4 39 10 39 15 0 11 -41 41 -195 142 -123 80 -219 148 -306 218 -25 20 -32
21 -160 12 l-134 -8 39 -38 c56 -55 37 -57 -23 -3 l-52 46 -154 0 c-85 0 -155
3 -155 8 0 4 14 128 31 276 l32 269 -198 196 c-180 180 -365 351 -378 351 -3
0 -9 -5 -13 -12z m1172 -1388 c87 -88 99 -110 61 -110 -29 0 -67 36 -103 98
-15 26 -36 57 -47 70 -16 17 -17 22 -5 22 8 0 50 -36 94 -80z m1166 -382 c-8
-8 -9 -4 -5 13 4 13 8 18 11 10 2 -7 -1 -18 -6 -23z"/>
<path d="M15029 8983 c-1 -4 -1 -80 1 -168 2 -160 2 -160 33 -215 18 -30 41
-77 53 -105 15 -37 29 -55 55 -67 30 -15 145 -55 181 -62 7 -2 30 -11 51 -20
21 -9 47 -14 58 -11 11 4 19 2 19 -4 0 -6 9 -11 20 -11 21 0 27 14 11 25 -5 3
-53 78 -107 168 -135 225 -188 302 -258 376 -65 67 -115 108 -117 94z"/>
<path d="M16229 8928 c0 -7 -4 -50 -7 -95 -4 -46 -4 -83 -1 -83 4 0 14 11 23
25 9 14 23 25 30 25 19 0 26 58 12 100 -8 24 -18 36 -34 38 -13 2 -22 -2 -23
-10z"/>
<path d="M13550 8892 c0 -5 9 -17 20 -27 11 -10 29 -49 41 -86 12 -38 23 -68
25 -66 6 5 25 140 21 144 -11 11 -107 42 -107 35z"/>
<path d="M16251 8763 c-31 -38 -35 -64 -21 -140 20 -113 19 -142 -15 -283 -18
-74 -35 -156 -39 -182 -7 -46 -6 -48 18 -48 20 0 101 -28 204 -70 12 -5 22
-16 22 -25 0 -18 5 -19 -57 5 -48 18 -83 18 -83 0 0 -13 79 -60 111 -67 17 -3
37 -17 46 -30 17 -26 11 -42 -9 -26 -22 15 -120 52 -172 63 -78 17 -86 24 -87
78 0 42 -2 44 -11 24 -9 -18 -6 -50 12 -143 13 -66 27 -122 32 -125 5 -3 17 0
26 7 9 7 5 0 -10 -17 -36 -39 -35 -63 5 -102 l32 -31 55 28 c30 15 77 33 103
41 56 15 75 36 124 138 l35 74 -26 27 c-29 31 -33 49 -11 57 35 14 4 92 -134
337 -39 71 -72 138 -72 150 0 12 9 48 20 80 21 55 21 58 4 84 -13 20 -14 25
-3 18 10 -6 8 2 -6 26 -55 92 -60 95 -93 52z"/>
<path d="M16140 8670 c0 -5 5 -10 10 -10 6 0 10 5 10 10 0 6 -4 10 -10 10 -5
0 -10 -4 -10 -10z"/>
<path d="M16134 8613 c-22 -11 -34 -26 -43 -59 -13 -43 -85 -190 -102 -208
-12 -13 -11 -53 1 -61 6 -3 10 -19 10 -34 0 -15 5 -42 11 -58 8 -24 17 -32 46
-36 19 -4 43 -13 53 -22 16 -15 18 -13 24 22 4 21 19 91 33 156 20 92 23 121
14 127 -9 5 -8 9 5 14 14 6 16 16 11 74 -6 69 -14 103 -26 101 -3 -1 -20 -8
-37 -16z"/>
<path d="M16808 8538 c-17 -17 -16 -18 3 -29 25 -13 27 -11 20 21 -6 24 -7 25
-23 8z"/>
<path d="M14681 8423 l-20 -88 117 -111 c64 -62 120 -110 124 -108 5 3 8 1 8
-4 0 -6 16 -13 35 -16 27 -5 47 0 95 24 63 32 65 34 97 136 l20 60 -21 26
c-12 14 -32 29 -46 33 -14 4 -66 25 -116 46 -50 21 -99 40 -110 42 -10 2 -26
6 -34 9 -74 24 -119 38 -123 38 -3 0 -15 -39 -26 -87z"/>
<path d="M16767 8503 c-4 -3 -7 -24 -7 -45 0 -31 4 -38 20 -38 11 0 27 -11 36
-25 22 -34 29 -31 28 13 -2 77 -3 80 -35 91 -38 13 -34 13 -42 4z"/>
<path d="M3522 8369 c32 -115 59 -190 52 -149 -3 19 -8 65 -11 102 -5 56 -10
71 -34 94 l-28 27 21 -74z"/>
<path d="M16721 8349 c-18 -34 -28 -58 -22 -55 14 9 15 -6 1 -20 -15 -15 17
-104 47 -131 51 -47 64 -20 60 125 -1 45 1 82 6 82 14 0 7 27 -11 43 -31 28
-45 20 -81 -44z"/>
<path d="M15897 8345 c-21 -8 -78 -24 -127 -36 -50 -12 -90 -26 -90 -30 0 -14
165 -72 207 -73 24 -1 43 -5 43 -11 0 -5 11 -11 25 -11 22 -2 25 1 19 20 -4
11 -9 23 -13 26 -7 5 -11 34 -14 93 -1 20 -4 37 -7 36 -3 0 -22 -7 -43 -14z"/>
<path d="M15200 8301 c11 -22 24 -43 30 -46 6 -4 7 -11 4 -17 -10 -15 54 23
73 44 13 15 13 18 2 22 -8 2 -36 11 -63 20 -68 22 -69 21 -46 -23z"/>
<path d="M16910 8280 c0 -11 4 -20 9 -20 5 0 7 9 4 20 -3 11 -7 20 -9 20 -2 0
-4 -9 -4 -20z"/>
<path d="M14636 8237 c-9 -28 -24 -86 -34 -127 l-18 -75 -45 -6 c-24 -4 -168
-12 -319 -18 -151 -7 -294 -14 -317 -17 l-41 -5 95 -187 c53 -103 117 -228
143 -279 32 -63 52 -119 64 -180 19 -95 51 -188 91 -262 13 -25 36 -80 51
-121 14 -41 93 -209 175 -373 127 -253 151 -308 160 -370 7 -40 13 -74 15 -76
7 -8 131 88 208 160 78 75 206 159 258 172 14 4 50 23 79 43 30 20 72 43 93
50 52 19 138 85 131 102 -2 7 0 10 5 7 5 -3 26 3 47 15 21 11 74 34 118 50 44
17 102 43 129 58 47 26 51 31 82 116 62 168 62 171 21 267 -19 46 -52 129 -72
184 -21 55 -41 108 -46 117 -6 10 -43 36 -84 59 -42 23 -80 51 -86 63 -6 11
-26 37 -44 56 -48 51 -108 164 -139 260 -27 86 -66 154 -92 164 -13 5 -27 31
-47 89 -6 16 -10 16 -55 -7 -49 -25 -53 -31 -72 -105 -8 -31 -7 -33 16 -28 31
5 22 -7 -15 -22 -18 -8 -35 -27 -47 -53 -10 -22 -45 -67 -77 -101 -74 -77 -96
-109 -79 -115 9 -3 9 -9 1 -24 -20 -37 -19 -65 2 -92 23 -29 18 -46 -15 -46
-35 0 -50 52 -31 110 32 96 47 130 55 125 4 -2 34 24 68 58 56 60 82 108 82
160 0 9 4 17 8 17 7 0 32 57 32 73 0 9 -43 -8 -75 -29 -22 -14 -23 -18 -10
-28 12 -9 6 -14 -36 -28 -40 -13 -50 -14 -45 -3 6 18 -16 65 -31 65 -6 0 -13
-6 -16 -12 -2 -8 -11 0 -20 17 -19 37 -84 99 -154 148 l-53 37 -14 -53z m274
-221 c0 -2 -8 -10 -17 -17 -16 -13 -17 -12 -4 4 13 16 21 21 21 13z m322 -38
c-7 -7 -12 -8 -12 -2 0 14 12 26 19 19 2 -3 -1 -11 -7 -17z m-1192 -38 c0 -5
-2 -10 -4 -10 -3 0 -8 5 -11 10 -3 6 -1 10 4 10 6 0 11 -4 11 -10z m874 -74
c-3 -15 -8 -25 -11 -23 -2 3 -1 17 3 31 3 15 8 25 11 23 2 -3 1 -17 -3 -31z
m-872 2 c-7 -7 -12 -8 -12 -2 0 14 12 26 19 19 2 -3 -1 -11 -7 -17z m5 -60
c-3 -8 -6 -5 -6 6 -1 11 2 17 5 13 3 -3 4 -12 1 -19z m10 -65 c-3 -10 -5 -2
-5 17 0 19 2 27 5 18 2 -10 2 -26 0 -35z m120 -245 c-3 -7 -5 -2 -5 12 0 14 2
19 5 13 2 -7 2 -19 0 -25z m300 -360 c-3 -8 -6 -5 -6 6 -1 11 2 17 5 13 3 -3
4 -12 1 -19z m20 -80 c-3 -8 -6 -5 -6 6 -1 11 2 17 5 13 3 -3 4 -12 1 -19z
m-17 -99 c0 -17 -9 -9 -24 24 l-16 32 20 -24 c11 -13 20 -27 20 -32z m185 -27
c33 -20 71 -44 84 -54 18 -14 26 -15 32 -7 4 8 9 4 14 -9 6 -22 20 -27 150
-57 66 -16 253 -110 241 -122 -3 -3 -43 15 -89 41 -52 28 -117 54 -168 66
-110 26 -112 26 -105 -7 5 -24 3 -23 -14 8 -22 41 -56 63 -45 29 10 -33 -3
-23 -24 18 -13 25 -41 52 -83 80 -35 22 -72 48 -83 57 -19 15 -19 15 5 4 14
-6 52 -28 85 -47z m715 -242 c-20 -13 -33 -13 -25 0 3 6 14 10 23 10 15 0 15
-2 2 -10z m-119 -22 c-24 -5 -47 -6 -52 -1 -4 4 16 9 44 9 l52 2 -44 -10z"/>
<path d="M15155 8268 c-15 -46 -22 -88 -15 -88 20 0 60 24 60 36 0 20 -22 64
-32 64 -5 0 -10 -6 -13 -12z"/>
<path d="M15288 8245 c-27 -20 -48 -40 -48 -44 0 -9 21 -74 26 -80 9 -10 32
22 27 37 -4 14 -3 15 6 2 7 -11 6 -19 -6 -32 -15 -17 -15 -20 4 -41 42 -45 82
-124 92 -181 19 -101 121 -260 191 -296 51 -26 64 -26 57 3 -5 17 6 11 48 -29
30 -28 55 -58 55 -68 0 -10 5 -27 11 -38 8 -15 8 -19 0 -14 -14 9 -14 -3 0
-43 6 -17 17 -31 25 -31 9 0 14 -12 14 -34 0 -49 14 -79 44 -95 17 -10 30 -28
37 -55 l11 -40 14 34 c8 19 41 62 73 95 49 51 64 75 96 160 21 55 47 107 58
116 18 15 18 20 7 55 -7 21 -21 55 -31 74 -11 19 -19 49 -19 67 0 26 -11 41
-60 86 -33 30 -74 74 -90 98 -16 24 -64 79 -107 121 -101 99 -173 140 -186
106 -3 -8 -6 -6 -6 5 -1 16 -35 36 -71 41 -8 1 -28 8 -45 15 -27 11 -65 21
-150 37 -24 5 -39 -1 -77 -31z m489 -837 c-3 -7 -5 -2 -5 12 0 14 2 19 5 13 2
-7 2 -19 0 -25z"/>
<path d="M16903 8202 c-4 -48 17 -126 42 -154 30 -35 55 -36 55 -5 0 33 -48
169 -63 179 -22 14 -32 8 -34 -20z"/>
<path d="M17099 8198 c-6 -26 -5 -37 3 -35 6 1 12 -6 13 -16 5 -30 12 -29 25
3 7 17 11 32 9 34 -6 6 -49 18 -50 14z"/>
<path d="M3581 8170 c0 -8 4 -24 9 -35 5 -13 9 -14 9 -5 0 8 -4 24 -9 35 -5
13 -9 14 -9 5z"/>
<path d="M15842 8074 c34 -35 77 -87 94 -113 29 -47 120 -128 131 -117 8 8
-27 159 -43 184 -8 13 -27 28 -42 34 -80 32 -129 48 -144 48 -10 0 -18 4 -18
9 0 5 -9 11 -21 14 -13 4 2 -17 43 -59z"/>
<path d="M16730 8099 c0 -22 25 -48 46 -49 24 0 25 34 2 52 -31 24 -48 22 -48
-3z"/>
<path d="M17105 8100 c-3 -5 -1 -10 4 -10 6 0 11 5 11 10 0 6 -2 10 -4 10 -3
0 -8 -4 -11 -10z"/>
<path d="M16604 8054 c3 -9 6 -18 6 -20 0 -3 5 -2 10 1 16 10 12 35 -6 35 -11
0 -14 -5 -10 -16z"/>
<path d="M18323 8053 c-14 -14 -23 -44 -31 -106 -8 -60 -25 -118 -57 -196 -25
-61 -45 -116 -45 -124 0 -7 9 -23 20 -35 12 -12 16 -22 11 -22 -5 0 -13 5 -16
10 -15 24 -25 6 -25 -48 0 -34 -6 -66 -14 -77 -8 -11 -11 -26 -8 -34 4 -10 1
-12 -8 -6 -10 6 -12 4 -6 -10 4 -10 2 -21 -3 -25 -30 -18 -55 -265 -32 -308
17 -32 13 -113 -9 -183 -16 -48 -21 -87 -19 -154 1 -49 -2 -109 -6 -132 -4
-23 -4 -58 -1 -78 6 -32 11 -36 30 -33 22 4 23 3 12 -30 -8 -28 -8 -36 3 -40
8 -3 5 -8 -11 -16 -12 -6 -32 -29 -42 -51 -22 -47 -35 -152 -17 -141 11 7 121
188 121 200 0 3 -8 6 -17 6 -14 0 -12 3 6 13 32 16 86 106 110 182 27 85 60
155 88 189 19 22 21 31 11 37 -9 6 -8 10 6 15 13 5 16 13 12 33 l-6 26 20 -24
c18 -21 20 -21 21 -5 0 11 3 32 5 47 4 23 1 30 -16 34 -14 4 -19 11 -15 20 8
23 9 425 0 452 -5 16 -4 21 4 17 6 -4 11 -14 11 -22 0 -68 102 120 155 288 15
46 42 121 61 168 19 47 34 102 34 123 0 35 -2 37 -32 39 -18 0 -44 3 -58 4
-14 2 -71 6 -126 10 -93 6 -103 5 -121 -13z m0 -1015 c6 -22 5 -22 -8 -4 -17
22 -20 40 -6 32 5 -3 11 -16 14 -28z m-46 -120 c-2 -13 -4 -5 -4 17 -1 22 1
32 4 23 2 -10 2 -28 0 -40z m8 -47 c3 -6 -4 -15 -15 -21 -19 -10 -20 -10 -8 9
15 24 15 24 23 12z"/>
<path d="M6565 8029 c4 -13 11 -56 15 -95 7 -62 15 -82 56 -144 37 -56 51 -89
64 -153 17 -83 136 -361 150 -352 7 4 64 98 110 180 12 22 47 76 77 119 30 43
52 85 49 92 -3 7 -22 16 -43 20 -54 10 -148 97 -238 220 -41 56 -81 106 -88
112 -6 5 -45 13 -86 17 l-74 7 8 -23z"/>
<path d="M6746 8028 c74 -125 219 -287 281 -314 39 -17 83 -18 83 -3 0 18 -68
134 -122 206 -27 37 -55 78 -61 91 -9 19 -18 22 -67 22 -32 0 -72 3 -90 7 -27
5 -31 4 -24 -9z"/>
<path d="M16686 8011 c-36 -69 -43 -104 -28 -151 16 -55 7 -109 -44 -251 -19
-53 -34 -100 -34 -105 1 -11 30 23 113 131 34 44 74 91 90 104 l29 24 -7 101
c-4 56 -9 108 -10 116 -2 8 -4 18 -4 21 -1 7 -68 39 -81 39 -5 0 -16 -13 -24
-29z m59 -76 c0 -10 -5 -20 -11 -22 -13 -4 -27 24 -18 38 9 15 29 4 29 -16z
m-15 -115 c0 -11 -4 -20 -10 -20 -5 0 -10 9 -10 20 0 11 5 20 10 20 6 0 10 -9
10 -20z"/>
<path d="M3636 7988 c13 -39 28 -57 46 -58 4 0 -7 23 -24 50 -17 28 -32 50
-34 50 -2 0 4 -19 12 -42z"/>
<path d="M6984 7994 c9 -16 40 -63 69 -105 28 -42 60 -92 71 -110 l18 -34 42
50 c22 27 74 84 114 127 61 63 70 77 55 81 -10 3 -101 9 -201 12 l-184 7 16
-28z"/>
<path d="M16070 8003 c0 -5 10 -42 22 -83 11 -41 23 -89 25 -107 6 -41 33 -67
33 -32 0 50 -33 200 -47 214 -15 16 -33 20 -33 8z"/>
<path d="M17153 7908 c11 -58 48 -108 80 -108 17 0 18 6 13 63 -4 41 -3 55 3
42 9 -20 10 -19 10 1 1 16 -9 26 -39 38 -22 9 -49 16 -59 16 -17 0 -17 -5 -8
-52z"/>
<path d="M3679 7868 c14 -34 29 -48 80 -76 34 -19 61 -36 59 -38 -2 -1 -25 4
-51 13 -26 9 -50 14 -52 11 -6 -5 83 -238 148 -389 119 -276 288 -602 462
-890 110 -182 127 -205 176 -229 45 -23 51 -33 14 -24 -14 3 -25 3 -25 -1 0
-21 251 -363 411 -561 286 -352 811 -874 949 -942 50 -25 65 -27 170 -27 94 0
126 4 175 22 121 44 137 45 669 44 296 -2 519 -6 533 -12 14 -5 39 -21 55 -34
16 -14 36 -25 43 -25 8 0 35 -18 60 -40 26 -22 64 -49 85 -60 21 -11 42 -29
45 -40 12 -36 66 -90 118 -117 91 -46 132 -53 232 -43 49 5 123 9 163 8 45 0
102 8 150 21 42 11 109 27 147 35 39 8 95 22 125 30 76 22 588 23 711 1 77
-13 337 -83 501 -133 37 -12 102 -24 145 -28 43 -4 94 -13 113 -21 62 -25 151
-55 155 -51 2 2 -42 50 -97 108 -55 57 -114 125 -131 150 -45 68 -74 96 -164
161 -56 41 -105 67 -156 83 -90 29 -107 37 -180 93 -32 25 -106 67 -165 95
-90 43 -121 64 -193 133 -80 76 -95 85 -193 124 -84 33 -265 80 -308 81 -4 0
-44 32 -90 71 -120 103 -283 182 -468 224 -100 23 -128 25 -216 20 -112 -7
-200 6 -354 52 -64 20 -118 28 -220 33 -149 7 -158 10 -380 132 -92 51 -139
69 -241 92 -68 15 -287 42 -293 35 -2 -2 -20 -62 -40 -133 -48 -171 -176 -436
-235 -490 -16 -15 -20 -15 -31 -1 -10 12 -5 26 28 78 65 104 137 255 170 362
34 108 53 187 47 193 -2 3 -59 19 -127 37 -68 18 -139 41 -158 52 -24 14 -79
26 -172 37 -134 17 -214 33 -206 42 3 2 38 -3 79 -10 41 -8 108 -17 149 -20
l75 -7 -35 20 c-19 11 -51 20 -71 21 -26 0 -54 13 -106 50 -65 46 -76 50 -129
50 -51 0 -65 5 -121 41 -50 33 -93 50 -195 76 l-132 35 -101 88 c-55 48 -127
101 -160 118 -33 17 -68 40 -78 52 -10 12 -78 50 -150 84 l-132 63 -135 136
c-80 82 -145 139 -160 142 -16 4 -37 23 -56 53 -38 58 -148 293 -199 425 -34
90 -42 101 -96 145 -32 26 -58 52 -58 59 -1 7 -29 32 -63 57 -35 25 -71 57
-81 71 -10 14 -27 25 -37 25 -19 0 -19 -1 -1 -42z m1781 -1650 c30 -16 44 -25
30 -22 -14 4 -52 20 -85 37 -58 29 -100 35 -163 22 -13 -2 -70 -6 -125 -9
-113 -5 -92 -1 88 18 132 14 140 12 255 -46z m-503 36 c-3 -3 -12 -4 -19 -1
-8 3 -5 6 6 6 11 1 17 -2 13 -5z m-176 -25 c-24 -11 -49 -18 -55 -16 -6 2 9
11 34 20 62 22 74 20 21 -4z m871 -87 c-13 -4 -120 27 -126 37 -3 4 26 -1 65
-13 39 -11 66 -22 61 -24z"/>
<path d="M17262 7860 c0 -14 2 -19 5 -12 2 6 2 18 0 25 -3 6 -5 1 -5 -13z"/>
<path d="M16565 7795 c-32 -54 -117 -303 -112 -325 2 -9 -2 -21 -9 -28 -7 -7
-11 -19 -9 -27 3 -8 7 -22 10 -31 4 -12 12 -8 39 18 25 25 43 60 70 140 20 58
41 128 46 155 5 26 12 60 16 75 4 17 1 34 -9 48 -15 21 -16 21 -42 -25z"/>
<path d="M16116 7751 c-8 -13 15 -62 25 -55 5 3 9 13 9 23 0 22 -26 46 -34 32z"/>
<path d="M16407 7689 c-21 -5 -69 -25 -108 -45 l-70 -37 28 -16 c15 -10 50
-28 77 -42 28 -14 53 -34 59 -49 9 -23 11 -23 15 -5 2 11 8 25 13 31 9 11 39
129 39 157 0 19 1 19 -53 6z"/>
<path d="M16152 7670 c0 -14 2 -19 5 -12 2 6 2 18 0 25 -3 6 -5 1 -5 -13z"/>
<path d="M16200 7662 c0 -34 5 -38 30 -22 13 8 12 13 -7 32 l-23 22 0 -32z"/>
<path d="M16752 7608 c-26 -34 -81 -101 -124 -150 -61 -69 -78 -96 -83 -130
-4 -24 -10 -52 -12 -63 -14 -56 -19 -123 -12 -145 4 -14 10 -54 13 -89 3 -36
11 -68 16 -71 6 -4 12 -27 14 -53 5 -67 16 -77 84 -70 31 3 64 9 73 14 39 20
124 195 117 239 -1 8 1 20 4 26 4 6 4 30 0 52 l-7 41 -70 -38 c-58 -31 -74
-44 -92 -81 -12 -25 -22 -52 -22 -61 -1 -8 -7 -23 -14 -34 -13 -16 -14 -13
-13 27 1 26 4 42 7 36 4 -6 9 -6 12 -1 7 12 37 96 37 105 0 4 -18 12 -41 18
-23 6 -39 13 -37 15 2 3 29 -3 60 -11 54 -16 56 -15 105 9 54 28 67 41 76 75
4 17 2 22 -8 18 -9 -3 -7 7 7 30 18 31 20 46 15 142 -6 119 -25 212 -44 212
-7 0 -34 -28 -61 -62z m-136 -523 c-9 -9 -16 -13 -16 -8 0 12 22 34 28 28 2
-2 -3 -11 -12 -20z"/>
<path d="M7120 7649 c0 -6 -15 -29 -32 -52 -38 -49 -34 -42 -133 -213 -41 -72
-75 -139 -75 -149 0 -30 37 -79 77 -104 22 -13 56 -49 77 -82 64 -98 112 -145
224 -215 59 -37 130 -82 157 -100 50 -32 133 -70 210 -94 22 -7 102 -44 177
-82 76 -37 172 -84 214 -103 41 -19 106 -56 142 -83 37 -27 120 -74 184 -105
98 -48 132 -70 207 -139 49 -46 135 -116 192 -155 57 -40 133 -95 169 -123 60
-46 146 -87 158 -75 3 3 -17 78 -44 167 -42 140 -55 170 -91 214 -68 83 -135
136 -253 197 -60 32 -120 71 -132 87 -13 15 -51 42 -86 59 -123 62 -322 260
-422 421 -29 47 -60 93 -69 104 -9 10 -61 41 -116 68 -55 28 -130 72 -166 99
-84 62 -166 105 -217 114 -57 9 -187 132 -264 249 -32 48 -58 92 -58 97 0 5
-7 9 -15 9 -8 0 -15 -5 -15 -11z"/>
<path d="M2504 7576 c-3 -9 -12 -16 -18 -16 -7 0 -21 -6 -31 -14 -19 -14 -19
-15 8 -27 32 -15 35 -29 6 -29 l-21 0 21 -22 c20 -21 22 -37 27 -173 3 -82 10
-177 15 -210 14 -80 73 -236 116 -308 56 -93 64 -131 72 -358 l7 -205 38 -69
c20 -37 54 -89 76 -114 21 -25 53 -75 70 -111 18 -36 53 -94 78 -130 25 -36
64 -92 86 -125 23 -33 64 -82 92 -110 27 -27 72 -79 99 -115 27 -36 71 -90 99
-121 69 -76 90 -114 120 -213 15 -47 31 -88 37 -91 14 -9 66 13 73 31 3 8 17
19 31 24 31 12 31 9 0 211 -13 90 -24 180 -24 199 -2 208 -31 362 -90 478 -18
35 -41 107 -53 160 -11 54 -38 139 -59 189 -22 51 -51 126 -65 165 -15 40 -47
116 -72 168 -25 52 -47 102 -48 110 -1 8 -9 51 -18 95 -8 45 -16 128 -17 185
-1 58 -6 111 -12 118 -7 9 -5 16 8 26 20 15 33 113 21 161 -14 54 -70 100
-186 149 -61 26 -118 45 -126 42 -8 -3 -38 3 -67 13 -78 27 -145 42 -219 48
-57 5 -69 3 -74 -11z m137 -561 c4 -82 6 -151 4 -153 -1 -1 -16 38 -34 87 -39
110 -55 206 -46 280 l7 56 31 -60 c29 -56 31 -69 38 -210z m298 -91 l35 -49
-44 45 c-25 25 -60 53 -77 62 -18 9 -33 22 -33 29 0 22 84 -39 119 -87z m-178
-66 c11 -21 11 -22 -4 -9 -10 7 -17 17 -17 22 0 15 9 10 21 -13z m54 -168 c20
-47 45 -94 55 -105 21 -24 53 -85 48 -91 -2 -2 -34 27 -72 65 -62 62 -69 74
-86 142 -11 41 -20 88 -20 104 l0 30 18 -30 c10 -16 36 -68 57 -115z m155
-383 c16 -32 35 -66 43 -75 8 -9 27 -46 42 -82 15 -36 85 -180 156 -320 79
-156 136 -284 149 -329 11 -41 18 -76 17 -78 -2 -1 -55 53 -118 120 -127 137
-228 274 -288 387 -22 41 -61 102 -86 135 -89 113 -95 134 -95 302 l0 147 76
-74 c50 -49 86 -95 104 -133z"/>
<path d="M16213 7578 c2 -7 0 -24 -5 -37 -16 -45 82 -291 117 -291 6 0 28 18
49 39 42 43 41 31 16 156 -12 65 -18 71 -95 109 -81 40 -89 42 -82 24z"/>
<path d="M16116 7513 c-13 -26 -35 -76 -49 -110 -18 -44 -42 -78 -84 -120 -65
-63 -91 -124 -78 -181 6 -27 14 -33 73 -53 37 -12 72 -25 78 -30 12 -9 45 13
113 74 l41 37 -42 62 c-53 79 -60 136 -29 232 37 115 22 176 -23 89z"/>
<path d="M16177 7453 c-21 -37 -38 -121 -33 -155 6 -35 71 -148 86 -148 3 0
23 17 43 38 l37 38 -35 50 c-19 27 -47 79 -61 117 -26 68 -29 73 -37 60z"/>
<path d="M16474 7296 c-4 -9 -2 -27 4 -39 10 -22 10 -21 17 6 9 33 -10 62 -21
33z"/>
<path d="M15825 7228 c4 -13 16 -41 26 -63 l19 -40 -5 44 c-3 24 -10 52 -16
62 -14 27 -32 24 -24 -3z"/>
<path d="M16391 7216 c-19 -19 -28 -36 -23 -40 6 -3 14 -31 17 -61 4 -30 11
-55 15 -55 4 0 15 17 26 38 10 20 22 39 27 40 11 5 9 60 -3 67 -5 3 -10 15
-10 26 0 27 -11 24 -49 -15z"/>
<path d="M6812 7120 c-17 -33 -32 -64 -32 -70 0 -13 74 -50 102 -50 13 0 48
-7 78 -15 30 -8 56 -12 58 -10 11 11 -54 100 -93 127 -24 17 -49 41 -56 54 -7
13 -15 24 -18 24 -3 0 -21 -27 -39 -60z"/>
<path d="M16310 7135 c-37 -38 -38 -34 28 -105 l24 -24 -6 39 c-5 29 -4 35 3
20 8 -17 10 -15 10 13 1 22 -3 31 -10 26 -8 -4 -9 3 -4 24 9 44 -7 46 -45 7z"/>
<path d="M16472 7108 c-7 -7 -12 -23 -12 -37 0 -13 -3 -21 -7 -18 -10 10 -43
-50 -43 -78 0 -14 5 -25 11 -25 5 0 8 -3 6 -7 -9 -15 58 -81 88 -87 29 -6 29
-6 10 10 -12 10 -16 18 -9 21 8 3 7 21 -3 66 -8 34 -14 76 -13 93 0 17 -3 41
-8 53 -6 17 -10 19 -20 9z"/>
<path d="M16194 7030 c-31 -27 -61 -50 -66 -50 -4 0 -8 -3 -8 -7 0 -5 46 -19
102 -32 98 -23 102 -23 115 -6 7 11 13 24 13 31 0 13 -80 114 -91 114 -4 0
-34 -22 -65 -50z"/>
<path d="M15870 7046 c-5 -15 -10 -30 -10 -34 0 -4 -14 -42 -32 -84 -17 -43
-29 -81 -25 -84 6 -7 108 58 127 81 9 11 8 26 -5 67 -10 29 -23 59 -31 67 -11
12 -15 10 -24 -13z"/>
<path d="M15920 7048 c0 -18 34 -98 41 -98 16 0 89 52 84 60 -3 4 -24 13 -49
19 -24 6 -51 13 -60 17 -9 3 -16 4 -16 2z"/>
<path d="M6678 6857 c-95 -188 -137 -285 -177 -407 -36 -111 -83 -309 -75
-322 3 -4 16 -8 29 -8 13 0 71 -11 129 -25 103 -24 109 -27 223 -112 153 -113
239 -163 281 -163 47 0 248 -46 381 -87 191 -58 297 -75 399 -63 81 10 98 9
228 -19 104 -21 173 -43 260 -81 66 -28 128 -55 140 -60 11 -4 49 -32 84 -62
102 -87 106 -89 197 -107 79 -16 303 -88 337 -108 7 -5 50 -41 95 -82 101 -92
98 -91 200 -131 46 -18 120 -57 165 -87 56 -37 90 -53 113 -53 18 0 33 4 33 9
0 23 -191 293 -244 346 -111 110 -378 320 -461 362 -82 42 -165 101 -260 188
-49 45 -127 110 -173 144 -46 35 -120 101 -166 146 -69 70 -98 91 -179 129
-53 26 -126 70 -162 99 -36 29 -100 71 -143 93 -285 151 -376 196 -447 219
-91 30 -254 121 -347 192 -35 27 -92 62 -128 80 -50 24 -219 106 -250 120 -3
2 -40 -66 -82 -150z"/>
<path d="M16837 6983 c-5 -12 -24 -45 -43 -74 -37 -53 -38 -65 -6 -55 23 8 65
97 60 129 l-4 22 -7 -22z"/>
<path d="M16040 6923 c-28 -18 -50 -41 -50 -49 0 -9 17 -31 38 -50 20 -19 50
-47 65 -62 l28 -27 62 34 c34 18 70 41 81 50 23 20 49 71 41 79 -4 4 -53 19
-111 33 l-104 26 -50 -34z"/>
<path d="M16318 6846 c-43 -56 -175 -136 -255 -155 -29 -7 -65 -22 -80 -34
l-28 -21 23 26 c13 14 43 33 68 43 24 9 44 22 44 28 0 7 -21 32 -47 57 -27 25
-53 54 -59 64 -12 23 -13 23 -124 -47 l-85 -53 -6 -64 c-3 -36 -3 -68 1 -72 3
-5 44 -4 90 1 84 8 115 7 69 -3 -13 -3 -50 -8 -82 -11 -86 -10 -102 -29 -132
-163 -13 -61 -37 -137 -54 -169 -25 -51 -52 -153 -39 -153 2 0 26 11 53 24 38
18 57 21 84 15 71 -15 75 -18 17 -13 -48 5 -68 2 -106 -16 l-47 -22 5 -47 c3
-27 17 -64 34 -91 27 -41 23 -38 -33 28 -10 12 -19 37 -19 56 0 33 0 33 -57
41 -32 4 -103 11 -158 15 -97 7 -96 7 55 7 l155 0 6 44 c3 24 20 73 38 108 20
39 41 105 56 175 12 61 26 119 30 129 6 15 -1 17 -79 17 -72 0 -94 4 -126 22
l-38 22 -77 -62 c-42 -35 -94 -70 -115 -77 -22 -8 -99 -44 -172 -81 -111 -56
-146 -80 -213 -144 -44 -41 -104 -91 -133 -110 -43 -29 -55 -43 -66 -80 -8
-29 -10 -56 -5 -75 12 -42 14 -148 12 -473 -3 -248 -5 -283 -19 -289 -9 -3
-20 0 -25 8 -5 8 -9 168 -9 356 0 199 -4 344 -9 348 -11 6 -104 -132 -173
-260 -27 -49 -55 -96 -63 -105 -8 -9 -24 -43 -35 -76 -31 -90 -93 -185 -160
-247 -36 -34 -60 -64 -60 -77 0 -11 -20 -43 -45 -69 -36 -39 -45 -55 -45 -85
0 -31 -9 -47 -63 -104 -35 -37 -80 -93 -100 -125 -20 -31 -41 -57 -46 -57 -5
0 -16 -19 -26 -42 -9 -24 -31 -59 -50 -78 -18 -19 -40 -52 -48 -72 -10 -24
-24 -39 -40 -43 -17 -5 -30 -19 -41 -48 -9 -22 -14 -42 -13 -44 2 -2 75 2 163
8 250 18 532 2 619 -35 73 -31 88 -36 114 -36 15 0 54 13 87 30 91 45 339 238
438 339 48 50 118 111 155 135 87 57 255 210 419 381 109 116 132 144 132 170
0 22 3 26 10 15 7 -12 12 -11 30 5 12 11 38 42 58 70 20 27 60 77 90 110 29
33 64 71 76 85 83 93 216 267 216 284 0 6 8 16 18 22 21 14 117 153 109 160
-9 9 -81 -26 -109 -53 -16 -15 -28 -23 -28 -17 0 13 62 60 101 77 33 14 69 54
69 77 0 26 -143 -17 -204 -61 -24 -18 -67 -34 -117 -45 -44 -9 -79 -20 -79
-24 0 -10 -119 -4 -128 5 -4 4 9 5 28 3 19 -3 48 -2 65 2 16 4 66 15 110 26
52 11 97 30 128 51 50 34 131 63 176 63 14 0 31 4 38 8 20 13 84 112 78 122
-3 5 4 18 17 29 28 27 21 33 -23 21 -18 -6 -47 -9 -64 -9 -19 1 -23 3 -10 6
107 22 153 50 174 105 9 23 6 32 -15 58 -14 16 -21 30 -15 30 17 0 -12 50 -43
77 -14 13 -26 27 -26 33 0 10 -71 50 -89 50 -5 0 -22 -5 -36 -10 -23 -9 -25
-13 -14 -26 11 -13 9 -14 -14 -3 -23 10 -25 14 -11 23 11 9 14 25 12 60 l-3
49 -37 -47z m262 -320 c0 -8 -7 -16 -15 -20 -12 -4 -13 -2 -2 14 14 24 17 25
17 6z m-227 -73 c-7 -2 -21 -2 -30 0 -10 3 -4 5 12 5 17 0 24 -2 18 -5z m54 1
c-3 -3 -12 -4 -19 -1 -8 3 -5 6 6 6 11 1 17 -2 13 -5z m-852 -244 l20 -9 -20
0 c-11 0 -27 4 -35 9 -13 9 -13 10 0 9 8 0 24 -4 35 -9z m318 -77 c-7 -2 -19
-2 -25 0 -7 3 -2 5 12 5 14 0 19 -2 13 -5z m351 -68 c-9 -14 -18 -25 -21 -25
-5 0 5 18 20 38 17 22 18 13 1 -13z m-644 -35 c12 -8 12 -10 -5 -10 -11 0 -27
5 -35 10 -12 8 -12 10 5 10 11 0 27 -5 35 -10z m600 -29 c-5 -11 -15 -23 -21
-27 -6 -3 -3 5 6 20 20 30 30 35 15 7z m-36 -53 c-16 -29 -48 -58 -63 -57 -11
0 -8 3 6 9 12 5 29 20 39 34 16 26 31 37 18 14z m-115 -52 c-2 -2 -40 -6 -84
-8 -44 -3 -69 -2 -55 2 25 8 147 13 139 6z m-268 -35 c-8 -6 -10 -14 -5 -22 6
-12 5 -12 -9 0 -23 18 -21 26 5 28 16 2 19 0 9 -6z m-1 -133 l-5 -83 -3 69
c-3 61 1 96 10 96 2 0 1 -37 -2 -82z m-3 -200 c-2 -13 -4 -5 -4 17 -1 22 1 32
4 23 2 -10 2 -28 0 -40z"/>
<path d="M16370 6842 c0 -30 4 -42 15 -42 11 0 13 8 8 33 -9 50 -23 56 -23 9z"/>
<path d="M16410 6852 c0 -21 32 -38 50 -27 5 3 7 0 4 -8 -3 -8 2 -17 10 -20 9
-4 16 -4 16 -1 0 13 -31 64 -39 64 -5 0 -16 3 -25 6 -11 4 -16 0 -16 -14z"/>
<path d="M16500 6836 c0 -13 24 -56 32 -56 4 0 8 -5 8 -11 0 -6 14 -27 30 -46
17 -18 30 -31 30 -28 0 14 -41 85 -50 85 -5 0 -10 12 -12 27 -2 17 -10 29 -20
31 -10 2 -18 1 -18 -2z"/>
<path d="M16669 6825 c-3 -2 -19 -5 -37 -7 -18 -1 -32 -6 -32 -11 0 -4 -4 -5
-10 -2 -6 3 -7 -1 -3 -10 4 -12 8 -13 13 -5 5 7 15 -1 28 -24 12 -20 17 -36
11 -36 -6 0 -6 -7 1 -20 11 -21 32 -18 29 3 -3 18 13 69 29 95 13 20 13 22 -5
22 -11 0 -22 -2 -24 -5z"/>
<path d="M16730 6808 c-20 -22 -27 -62 -12 -72 12 -7 45 52 38 69 -3 8 3 16
12 18 16 4 16 5 0 6 -10 0 -26 -9 -38 -21z"/>
<path d="M15705 6726 c-16 -7 -50 -22 -75 -33 -25 -11 -62 -26 -82 -33 -21 -6
-38 -15 -38 -19 0 -4 14 -15 31 -25 27 -16 44 -18 117 -12 47 3 87 7 87 9 1 1
5 30 8 65 7 68 4 71 -48 48z"/>
<path d="M18734 6595 c4 -14 2 -25 -3 -25 -5 0 -11 10 -15 23 -6 22 -6 22 -34
-8 -16 -16 -26 -31 -22 -33 5 -2 -2 -13 -13 -26 -12 -13 -39 -42 -61 -65 -21
-22 -42 -41 -47 -41 -5 0 -13 -9 -19 -20 -21 -39 10 -21 85 50 84 80 106 93
40 23 -25 -26 -45 -50 -45 -54 0 -5 -25 -27 -56 -50 -30 -22 -54 -43 -51 -45
5 -5 72 31 97 52 9 8 36 20 60 29 56 20 113 63 106 81 -3 8 0 11 10 7 7 -3 14
-10 14 -15 0 -6 6 -5 15 2 8 7 14 22 14 34 0 11 3 32 7 44 7 24 6 23 -57 -8
-44 -21 -56 -25 -39 -11 14 11 29 21 33 21 4 0 19 7 33 16 l24 17 -26 13 c-41
22 -57 18 -50 -11z"/>
<path d="M18449 6364 c-7 -8 -25 -22 -41 -30 -32 -17 -37 -34 -8 -34 20 0 90
55 90 71 0 15 -27 10 -41 -7z"/>
<path d="M17888 6252 c-12 -14 -38 -74 -38 -88 0 -2 8 -4 18 -5 14 0 13 -3 -5
-16 -28 -19 -31 -67 -5 -82 15 -9 15 -10 -5 -11 -16 0 -24 -8 -29 -27 -3 -16
-32 -75 -64 -133 -56 -101 -79 -160 -63 -160 30 0 73 47 117 126 27 49 63 108
79 132 16 24 27 45 24 48 -2 2 13 22 34 43 34 34 38 42 37 89 0 29 -3 50 -8
47 -11 -7 -60 18 -60 32 0 20 -17 23 -32 5z m77 -82 c-3 -5 -18 -10 -33 -9
-24 0 -25 1 -7 9 28 12 47 12 40 0z"/>
<path d="M18138 6208 c-12 -10 -14 -19 -7 -36 10 -27 20 -23 49 18 l21 30 -23
0 c-13 0 -31 -6 -40 -12z"/>
<path d="M6080 6092 c0 -14 18 -20 145 -52 100 -26 111 -27 123 -12 6 9 12 26
12 39 0 23 -1 23 -107 21 -60 -1 -123 2 -140 6 -21 5 -33 4 -33 -2z"/>
<path d="M6415 6088 c-3 -7 -6 -29 -7 -48 l-3 -34 60 -8 c163 -20 221 -31 297
-53 45 -14 83 -23 85 -21 3 2 -33 32 -79 67 -73 55 -94 66 -173 86 -101 25
-173 30 -180 11z"/>
<path d="M17668 5993 c-8 -10 -28 -45 -45 -78 -16 -33 -53 -104 -82 -157 -30
-56 -47 -98 -40 -98 6 0 0 -11 -14 -24 -34 -31 -67 -98 -67 -135 0 -28 32 -71
53 -71 39 0 86 75 106 168 14 66 14 62 -4 56 -27 -11 -16 11 15 29 17 10 30
23 30 28 0 6 -4 7 -10 4 -5 -3 -10 -1 -10 5 0 18 50 141 76 185 38 67 33 134
-8 88z"/>
<path d="M14479 5833 c-13 -16 -12 -17 4 -4 9 7 17 15 17 17 0 8 -8 3 -21 -13z"/>
<path d="M3713 5784 c-3 -9 3 -35 15 -58 11 -22 23 -53 26 -68 4 -14 16 -39
29 -55 22 -28 51 -74 140 -228 34 -58 62 -92 104 -125 107 -84 178 -130 201
-130 12 0 22 2 22 4 0 16 -57 124 -71 134 -10 6 -39 44 -65 83 -26 39 -69 93
-95 119 -27 27 -49 53 -49 58 0 5 -9 17 -20 27 -11 10 -20 24 -20 31 0 18
-111 164 -149 197 -37 31 -59 34 -68 11z"/>
<path d="M7110 5796 c0 -15 82 -44 143 -49 126 -12 68 14 -110 49 -18 4 -33 4
-33 0z"/>
<path d="M14394 5703 c-26 -43 -75 -107 -109 -143 -62 -65 -95 -107 -95 -122
0 -10 51 -10 67 0 17 11 81 109 103 160 12 26 30 56 41 68 18 19 55 114 44
114 -2 0 -25 -35 -51 -77z"/>
<path d="M14167 5358 c-4 -12 -4 -24 -1 -27 6 -7 24 20 24 37 0 21 -17 13 -23
-10z"/>
<path d="M17090 5075 c-86 -27 -182 -72 -258 -123 -53 -36 -90 -84 -173 -225
-19 -33 -65 -96 -102 -140 -187 -223 -243 -305 -221 -326 5 -6 44 7 103 36 68
32 96 42 101 33 12 -19 48 -2 67 31 10 16 36 41 58 56 44 29 135 104 205 169
25 23 55 45 66 48 29 9 228 222 298 320 45 62 56 86 54 110 -3 31 -4 31 -63
32 -37 1 -89 -8 -135 -21z"/>
<path d="M13919 5033 c-39 -41 -133 -172 -192 -268 -20 -33 -58 -86 -84 -119
-112 -137 -149 -204 -72 -131 23 22 48 56 56 75 8 19 43 67 78 105 34 39 74
93 88 122 16 31 51 73 87 105 44 38 63 64 71 91 15 57 8 62 -32 20z"/>
<path d="M14018 5044 c-5 -4 -8 -19 -8 -33 0 -18 3 -22 11 -14 6 6 9 21 7 33
-1 12 -6 18 -10 14z"/>
<path d="M6342 4699 c-24 -4 -75 -19 -115 -33 -40 -13 -89 -28 -109 -31 -92
-17 -72 -70 64 -171 143 -107 287 -200 333 -215 29 -10 108 -14 295 -14 235 0
263 2 350 24 136 33 272 72 293 83 10 5 56 15 103 23 47 8 97 21 111 30 23 16
24 18 8 38 -8 12 -28 41 -43 64 -15 23 -35 45 -45 49 -10 3 -41 26 -68 50 -27
24 -54 44 -60 44 -6 0 -31 15 -56 33 l-45 32 -487 2 c-267 0 -505 -3 -529 -8z"/>
<path d="M4163 4608 c-4 -7 -21 -20 -37 -28 -16 -8 -31 -20 -33 -25 -2 -6 34
-29 79 -50 56 -27 105 -61 153 -106 77 -72 240 -199 256 -199 18 0 20 28 4 60
-18 35 -14 60 9 60 9 0 18 12 21 28 3 15 11 44 17 65 28 94 -45 172 -173 187
-162 18 -287 22 -296 8z"/>
<path d="M13697 4594 c-4 -4 -7 -14 -7 -23 0 -11 3 -12 11 -4 6 6 10 16 7 23
-2 6 -7 8 -11 4z"/>
<path d="M8663 4436 c-35 -8 -68 -18 -75 -22 -6 -4 -59 -18 -117 -30 -58 -12
-137 -34 -176 -49 -59 -22 -95 -27 -230 -35 -88 -5 -176 -13 -195 -18 -19 -6
-82 -13 -140 -17 -58 -3 -143 -15 -190 -26 -47 -11 -143 -27 -213 -35 -104
-12 -147 -22 -229 -55 -55 -22 -123 -45 -152 -51 -70 -14 -88 -25 -84 -51 4
-31 80 -79 319 -201 345 -177 665 -312 1009 -426 302 -101 688 -199 715 -182
6 4 38 28 71 54 115 92 215 157 257 169 116 31 254 117 377 235 36 34 85 72
110 84 25 12 68 39 95 59 157 117 303 183 490 222 110 23 125 30 125 65 0 27
-28 55 -83 83 -36 18 -36 18 -26 0 15 -28 -5 -57 -46 -65 -37 -7 -45 -3 -162
65 -60 35 -88 45 -167 57 -52 7 -106 18 -120 24 -42 16 -299 88 -431 122 -116
29 -129 30 -395 34 -214 3 -289 1 -337 -10z"/>
<path d="M15827 4363 c-43 -44 -89 -97 -104 -118 -15 -22 -30 -41 -35 -43 -4
-2 -8 -13 -8 -25 0 -20 -68 -144 -105 -192 -34 -45 -210 -215 -222 -215 -7 0
-13 -7 -13 -16 0 -14 9 -16 73 -10 39 4 76 12 82 17 5 6 3 9 -8 9 -9 0 -17 2
-17 4 0 9 122 121 144 133 13 7 56 52 97 100 89 107 91 108 109 116 8 3 -7 6
-34 6 l-49 1 29 22 c44 34 109 101 113 118 2 8 4 22 5 30 2 25 47 90 62 90 8
0 14 5 14 10 0 6 -7 10 -16 10 -9 0 -22 7 -28 16 -10 13 -23 4 -89 -63z m-137
-307 c0 -2 -8 -10 -17 -17 -16 -13 -17 -12 -4 4 13 16 21 21 21 13z"/>
<path d="M7583 4343 c9 -2 23 -2 30 0 6 3 -1 5 -18 5 -16 0 -22 -2 -12 -5z"/>
<path d="M1200 4284 c-60 -72 -107 -158 -120 -216 -5 -26 -21 -80 -35 -120
-14 -40 -28 -104 -31 -143 l-7 -70 40 37 c21 21 53 61 70 90 28 48 32 64 38
163 4 60 11 117 16 127 5 9 9 30 9 47 0 20 5 31 14 31 7 0 20 15 29 33 16 35
30 77 25 77 -2 -1 -23 -26 -48 -56z"/>
<path d="M7516 4331 c-3 -4 6 -6 19 -3 14 2 25 6 25 8 0 8 -39 4 -44 -5z"/>
<path d="M4800 4258 c-24 -52 -24 -65 -5 -113 15 -35 15 -37 -5 -42 -14 -4
-20 -14 -20 -33 0 -45 170 -190 333 -284 69 -40 114 -82 154 -145 45 -71 95
-124 158 -167 28 -19 68 -48 90 -64 22 -17 81 -51 131 -75 50 -25 122 -70 159
-99 37 -30 102 -69 144 -87 91 -39 97 -43 126 -89 14 -22 43 -46 78 -64 31
-15 77 -44 103 -64 41 -33 54 -37 118 -40 39 -2 76 -8 82 -13 15 -12 135 -49
161 -49 12 0 24 -4 27 -9 3 -4 31 -11 62 -14 36 -4 70 -15 95 -31 21 -14 42
-26 45 -26 4 0 30 -14 57 -32 59 -38 92 -39 218 -10 46 11 101 23 121 26 40 7
88 54 88 85 0 33 -38 68 -132 121 -51 29 -95 56 -98 60 -3 4 -32 21 -65 38
-33 18 -94 61 -135 97 -41 35 -78 64 -82 65 -4 0 -38 21 -74 46 -131 89 -200
113 -384 134 -124 14 -342 66 -404 96 -27 14 -65 37 -85 53 -20 16 -64 45 -99
66 -35 20 -91 62 -125 92 -70 63 -158 123 -182 123 -8 0 -15 4 -15 10 0 19
-76 94 -165 162 -49 38 -162 125 -250 193 -98 76 -169 125 -183 125 -17 0 -28
-10 -42 -42z m1389 -1109 c58 -22 136 -55 175 -73 91 -44 247 -146 241 -156
-3 -5 -36 0 -73 10 -37 10 -96 20 -132 23 -55 3 -73 9 -115 39 -28 19 -69 46
-93 58 -26 15 -52 40 -67 66 -14 23 -37 53 -52 65 -20 16 -22 20 -8 15 11 -4
67 -25 124 -47z"/>
<path d="M16508 4208 c-27 -28 -102 -116 -149 -175 -19 -24 -59 -71 -89 -105
-51 -58 -53 -61 -21 -42 19 10 64 46 100 80 36 33 100 85 141 116 94 70 136
113 120 123 -7 4 -30 -13 -56 -41 l-45 -49 22 49 c25 58 14 82 -23 44z"/>
<path d="M16325 4128 c-16 -5 -43 -16 -60 -23 -16 -7 -46 -18 -65 -24 -48 -16
-127 -75 -150 -114 -24 -39 -24 -41 -4 -62 21 -21 70 -12 151 26 70 34 222
174 206 190 -15 15 -45 17 -78 7z"/>
<path d="M16468 4001 c-20 -14 -63 -50 -95 -78 -99 -90 -150 -123 -187 -123
-27 0 -41 -8 -71 -41 -48 -54 -67 -97 -53 -124 10 -17 -1 -31 -90 -116 -103
-98 -156 -132 -226 -145 l-39 -7 44 64 c24 35 90 109 147 165 56 56 102 109
102 117 0 35 -74 67 -145 61 -22 -1 -74 -9 -115 -18 -90 -18 -122 -20 -100 -6
11 7 3 10 -30 9 -25 0 -38 -3 -30 -6 8 -2 22 -7 30 -10 11 -3 7 -11 -16 -31
-18 -15 -49 -49 -69 -77 -21 -27 -54 -68 -75 -90 -55 -58 -90 -114 -90 -144 0
-15 14 -42 35 -64 19 -21 37 -47 40 -58 4 -10 11 -19 16 -19 5 0 9 -6 9 -12 0
-26 18 -39 69 -53 51 -13 53 -13 74 11 27 31 99 72 197 113 92 38 157 95 438
383 169 174 284 311 270 322 -1 2 -19 -9 -40 -23z"/>
<path d="M10545 3971 c-38 -10 -119 -21 -178 -25 -144 -8 -249 -41 -399 -127
-159 -90 -241 -151 -290 -212 -54 -69 -130 -118 -258 -168 -119 -46 -143 -63
-137 -96 2 -12 0 -20 -4 -17 -5 2 -22 -8 -40 -23 -26 -23 -30 -33 -26 -60 6
-35 -5 -42 -33 -23 -10 7 -11 12 -4 18 6 4 13 14 16 23 6 15 2 15 -38 3 -43
-13 -109 -52 -102 -60 2 -2 42 -12 88 -23 55 -14 88 -17 94 -11 16 16 59 11
91 -10 35 -23 95 -36 220 -49 50 -5 149 -17 220 -25 211 -25 523 -38 788 -35
231 4 250 5 263 23 13 19 15 19 33 2 17 -15 31 -17 98 -11 236 19 422 39 533
57 69 10 154 23 190 29 105 14 364 68 515 105 484 121 925 279 1355 487 185
89 260 136 260 163 0 26 -135 12 -347 -35 -98 -22 -200 -43 -228 -47 -75 -9
-216 -40 -345 -75 -111 -30 -125 -32 -425 -42 -394 -13 -465 -13 -715 0 -171
8 -228 15 -345 42 -157 36 -192 48 -390 138 -116 53 -143 62 -162 54 -18 -8
-25 -7 -33 8 -7 14 -25 20 -77 24 -38 3 -79 8 -93 11 -14 3 -56 -3 -95 -13z"/>
<path d="M775 3676 c-10 -14 -25 -26 -34 -26 -9 0 -22 -13 -28 -29 -6 -18 -33
-44 -67 -67 -35 -23 -56 -44 -56 -56 0 -17 2 -17 28 -4 15 7 41 17 58 20 41 9
64 36 98 114 29 67 29 92 1 48z"/>
<path d="M901 3651 c-30 -42 -26 -49 9 -16 30 29 38 45 21 45 -5 0 -19 -13
-30 -29z"/>
<path d="M669 3411 c-20 -14 -44 -30 -53 -36 -12 -7 -14 -17 -8 -38 l7 -28 34
23 c21 14 39 38 48 62 7 22 12 40 11 41 -2 1 -19 -9 -39 -24z"/>
<path d="M620 3233 c-45 -13 -58 -26 -50 -47 6 -16 2 -28 -19 -50 l-26 -28 32
16 c18 9 44 37 59 62 28 47 28 54 4 47z"/>
<path d="M337 3114 c-69 -46 -72 -50 -59 -72 7 -10 15 -10 38 -1 16 7 38 12
49 11 16 -1 17 0 3 4 -16 5 -14 11 13 50 17 25 29 47 27 49 -2 2 -34 -16 -71
-41z"/>
<path d="M14639 3124 c-47 -14 -212 -118 -203 -127 3 -3 -11 -10 -30 -17 -61
-20 -62 -38 -11 -131 25 -45 45 -92 45 -105 0 -44 22 -124 40 -146 14 -18 21
-20 32 -10 12 9 29 2 91 -41 73 -50 77 -54 87 -104 6 -29 20 -77 31 -107 16
-46 19 -82 18 -203 0 -82 -4 -184 -8 -228 -9 -81 0 -140 32 -217 13 -29 14 22
12 407 -1 242 -3 442 -4 444 0 2 -28 30 -62 62 l-61 58 19 31 c33 57 117 143
177 182 33 21 99 51 146 65 47 15 88 31 92 37 27 41 -248 167 -359 165 -21 0
-59 -7 -84 -15z"/>
<path d="M480 3089 c-27 -15 -29 -18 -10 -13 14 3 32 12 40 20 19 19 12 17
-30 -7z"/>
<path d="M8036 2885 c4 -8 11 -15 16 -15 6 0 8 -6 5 -14 -4 -10 7 -17 38 -25
24 -6 47 -16 50 -21 8 -13 128 -73 177 -89 52 -17 84 -10 43 9 -16 8 -41 21
-54 29 l-24 15 22 6 c16 4 -16 18 -108 49 -72 25 -131 48 -131 52 0 4 10 10
23 12 12 2 3 5 -20 6 -34 1 -41 -2 -37 -14z"/>
<path d="M13222 2728 c-65 -12 -59 -32 6 -22 56 8 55 6 -30 -40 -62 -34 -122
-61 -272 -122 -67 -27 -96 -32 -51 -8 16 8 37 21 45 28 21 18 166 82 218 96
23 6 42 15 42 21 0 16 -68 -1 -165 -42 -189 -79 -233 -99 -310 -142 -44 -24
-102 -51 -130 -61 -100 -33 -188 -95 -138 -97 15 0 15 -2 -4 -11 -37 -18 -27
-28 30 -29 93 -3 131 3 189 27 84 35 102 29 27 -8 -35 -18 -63 -39 -61 -45 1
-9 -14 -13 -50 -14 -29 -1 -64 -5 -78 -10 -17 -6 2 -7 55 -4 56 3 81 9 88 20
4 8 13 15 20 15 6 0 36 15 67 34 30 19 72 37 93 41 33 6 36 9 21 20 -15 11
-11 14 37 30 30 10 71 26 91 36 21 11 48 19 62 19 33 0 115 36 122 54 3 8 19
18 36 21 19 5 26 10 19 14 -15 10 2 25 44 41 56 20 164 75 164 83 1 5 11 17
24 28 l22 18 -42 1 c-24 0 -43 5 -43 10 0 12 -76 11 -148 -2z m-455 -334 c-3
-3 -12 -4 -19 -1 -8 3 -5 6 6 6 11 1 17 -2 13 -5z"/>
<path d="M13844 2636 c-38 -17 -74 -54 -74 -77 0 -22 39 -29 170 -29 79 0 109
3 113 13 9 23 -21 75 -52 91 -37 19 -115 20 -157 2z"/>
<path d="M17805 2569 c22 -18 65 -57 95 -85 37 -35 78 -61 125 -79 114 -46
151 -73 184 -135 38 -71 56 -138 76 -275 8 -60 30 -195 48 -300 l32 -190 6
280 c3 154 9 294 13 310 9 36 -14 92 -106 263 -52 96 -64 112 -85 112 -14 0
-109 28 -212 61 -102 34 -193 64 -201 67 -8 2 3 -11 25 -29z"/>
<path d="M7718 2457 l-27 -13 22 -14 c12 -7 101 -53 197 -102 161 -82 176 -88
202 -77 32 13 52 43 44 64 -3 8 -36 23 -73 35 -37 11 -109 41 -160 66 -98 50
-160 62 -205 41z"/>
<path d="M8222 2268 c-5 -7 -17 -27 -25 -44 -14 -28 -15 -33 -2 -44 18 -15
172 -90 184 -90 19 0 302 -130 369 -169 37 -22 110 -71 162 -109 107 -78 206
-125 265 -126 22 0 74 9 115 21 92 25 111 49 103 127 -9 91 -32 167 -63 206
-30 38 -31 38 -118 45 -402 29 -650 74 -845 151 -123 48 -130 50 -145 32z"/>
<path d="M10632 2254 c-7 -14 -7 -26 1 -41 16 -29 144 -141 171 -149 11 -4 35
-18 53 -31 21 -16 50 -26 88 -30 34 -4 51 -9 43 -14 -7 -4 -10 -10 -7 -13 13
-13 206 -35 319 -37 142 -1 222 -11 228 -28 2 -6 17 -11 33 -11 16 0 29 -4 29
-8 0 -5 -44 -12 -97 -15 -106 -7 -581 -7 -548 0 11 2 31 7 45 10 25 6 25 6 -5
13 -51 13 -118 10 -169 -5 -27 -8 -71 -14 -98 -13 -32 2 -52 -2 -57 -11 -11
-17 -2 -50 13 -53 6 -1 209 -3 451 -5 242 -1 456 -4 475 -5 52 -3 90 10 90 30
-1 36 -45 70 -135 105 -49 19 -148 64 -220 100 -161 81 -542 217 -631 224 -54
5 -63 3 -72 -13z"/>
<path d="M11150 2252 c-19 -9 -35 -21 -34 -27 0 -5 36 -29 80 -53 43 -23 111
-63 149 -87 94 -60 219 -122 279 -137 46 -12 49 -12 68 12 14 17 17 31 12 49
-4 14 -6 36 -5 49 0 13 -4 32 -9 42 -6 10 -11 43 -11 73 -1 30 -4 59 -8 65
-18 27 -57 32 -268 32 -188 0 -223 -2 -253 -18z"/>
<path d="M9781 2130 c-27 -4 -51 -15 -62 -29 -17 -21 -17 -24 8 -89 21 -55 24
-78 20 -128 -3 -34 -2 -65 2 -70 5 -5 11 -35 14 -66 l6 -58 -30 0 c-32 0 -49
-24 -30 -43 8 -8 3 -14 -19 -23 -52 -22 -37 -40 58 -71 77 -25 105 -28 248
-31 138 -3 162 -1 167 12 9 22 -19 46 -53 46 -41 0 -310 94 -299 104 2 2 76
30 164 61 l160 57 205 5 c113 2 215 6 227 9 12 2 25 16 31 34 7 20 18 30 31
30 23 0 36 16 21 25 -17 11 -11 23 17 32 25 9 25 10 -23 26 -27 10 -71 27 -99
38 -178 74 -344 111 -559 129 -140 11 -140 11 -205 0z"/>
<path d="M12555 2006 c-22 -7 -67 -25 -101 -39 -33 -14 -111 -38 -172 -53 -65
-16 -109 -31 -105 -37 3 -6 49 -8 117 -4 88 4 125 10 181 32 39 14 77 28 85
30 24 5 86 34 78 36 -5 1 -12 3 -18 4 -5 1 -12 3 -15 4 -3 0 -1 10 5 21 13 24
4 25 -55 6z"/>
<path d="M14635 1717 c-11 -102 -2 -236 19 -276 10 -19 24 -70 32 -114 9 -53
24 -96 43 -126 16 -25 32 -57 36 -71 4 -14 15 -33 23 -43 10 -11 19 -47 23
-88 7 -79 27 -112 57 -93 13 9 18 28 20 91 2 70 0 83 -22 115 -13 20 -27 47
-31 59 -4 13 -19 41 -33 62 -25 37 -26 44 -23 158 3 165 -4 205 -41 227 -26
15 -51 57 -85 142 -9 22 -11 16 -18 -43z"/>
<path d="M8809 503 c-16 -50 -108 -160 -279 -337 -84 -86 -150 -159 -147 -162
3 -4 30 9 59 28 29 18 71 42 92 51 22 10 55 33 75 52 20 18 57 53 83 77 34 32
65 79 117 181 39 75 71 139 71 140 0 2 -13 4 -30 4 -25 0 -31 -6 -41 -34z"/>
</g>
</svg>
