<?xml version="1.0" standalone="no"?>
<!DOCTYPE svg PUBLIC "-//W3C//DTD SVG 20010904//EN"
 "http://www.w3.org/TR/2001/REC-SVG-20010904/DTD/svg10.dtd">
<svg version="1.0" xmlns="http://www.w3.org/2000/svg"
 width="512.000000pt" height="512.000000pt" viewBox="0 0 512.000000 512.000000"
 preserveAspectRatio="xMidYMid meet">
<g transform="translate(0.000000,512.000000) scale(0.100000,-0.100000)"
fill="#000000" stroke="none">
<path d="M1650 4660 c-31 -31 -27 -86 10 -120 24 -22 30 -36 30 -70 0 -54 11
-73 81 -142 44 -45 64 -58 87 -58 26 0 30 -4 35 -32 6 -40 -12 -58 -59 -58
-17 0 -57 -11 -88 -25 -31 -14 -62 -25 -68 -25 -7 0 -29 -12 -50 -27 -22 -14
-58 -30 -81 -34 -23 -4 -54 -11 -69 -15 -20 -4 -34 0 -54 15 -40 31 -81 27
-118 -12 l-31 -33 -39 28 c-43 31 -83 35 -125 13 -32 -16 -41 -33 -41 -76 0
-29 18 -53 56 -75 15 -9 19 -23 19 -66 0 -63 -14 -80 -95 -121 -70 -36 -170
-25 -170 18 0 24 -51 171 -70 203 -37 60 -103 68 -136 16 -15 -22 -16 -34 -7
-87 6 -34 18 -89 28 -122 9 -33 20 -78 25 -100 6 -29 20 -50 50 -76 32 -28 38
-37 26 -42 -8 -3 -19 -19 -22 -34 -4 -15 -20 -48 -35 -73 -15 -25 -30 -58 -34
-75 -7 -35 -63 -75 -103 -75 -60 0 -92 -56 -78 -135 5 -25 16 -42 37 -54 l31
-19 -36 -39 c-54 -60 -75 -116 -78 -203 -1 -65 -2 -67 -5 -20 -5 86 -10 97
-58 130 l-45 31 0 64 c0 95 -39 127 -109 90 -38 -19 -41 -31 -41 -136 0 -76 3
-92 20 -109 11 -11 27 -20 35 -20 17 0 17 -1 19 -82 1 -49 -2 -58 -19 -62 -37
-10 -74 -6 -127 14 -29 11 -65 20 -81 20 -55 0 -86 -68 -53 -116 8 -11 49 -38
90 -59 l75 -38 98 6 c125 7 133 3 133 -73 0 -65 21 -100 60 -100 18 0 18 -1 2
-30 -9 -16 -22 -30 -28 -30 -6 0 -17 -7 -24 -15 -20 -24 -25 -18 -22 29 3 38
0 49 -22 70 -31 31 -92 35 -125 9 -46 -38 -43 -133 4 -155 16 -7 25 -20 25
-34 0 -41 12 -55 68 -81 48 -22 60 -24 92 -14 51 15 52 15 45 -18 -6 -30 16
-113 37 -138 15 -18 4 -26 -19 -15 -88 45 -112 51 -180 45 -81 -7 -101 -15
-109 -48 -15 -59 29 -105 100 -105 16 0 27 -7 31 -20 9 -28 67 -60 108 -60 34
0 36 -2 32 -27 -2 -16 -7 -58 -10 -95 -5 -59 -3 -70 15 -88 11 -11 29 -20 40
-20 29 0 90 27 90 39 0 6 4 11 9 11 5 0 17 -35 27 -77 14 -58 26 -85 46 -105
l28 -26 -37 -22 c-32 -18 -48 -21 -135 -18 l-100 3 -28 -31 c-26 -30 -70 -143
-70 -182 0 -10 -18 -36 -40 -57 -22 -21 -40 -45 -40 -53 0 -7 -18 -29 -39 -49
-22 -19 -42 -46 -45 -59 -9 -36 18 -92 48 -100 53 -13 180 55 192 103 4 15 24
44 45 64 21 21 41 50 44 66 4 15 12 44 19 63 l12 35 106 -4 c66 -2 118 1 139
9 29 10 41 9 80 -8 37 -16 47 -26 52 -51 5 -22 17 -35 44 -50 48 -24 67 -46
82 -93 7 -21 18 -41 26 -45 7 -5 34 -43 60 -85 52 -85 94 -117 178 -139 26 -6
50 -15 53 -20 3 -5 -4 -21 -15 -35 -32 -40 -28 -95 9 -137 30 -35 38 -57 20
-57 -21 0 -50 -41 -50 -70 0 -40 39 -80 78 -80 33 0 86 33 115 72 21 28 38 96
40 163 2 33 6 41 26 47 15 4 32 1 47 -9 17 -11 37 -14 66 -10 25 3 55 0 78 -9
32 -13 36 -18 32 -43 -5 -39 23 -89 54 -97 26 -7 25 -7 -19 -35 -62 -38 -77
-63 -77 -126 0 -105 36 -209 75 -219 74 -18 111 32 101 137 -6 63 -5 68 15 74
66 21 149 141 149 215 0 44 9 49 64 29 22 -8 78 -8 187 -3 l156 9 26 -46 c20
-36 40 -54 92 -83 74 -41 82 -42 145 -20 54 18 70 37 70 82 0 45 -13 67 -51
82 -31 13 -31 13 62 36 64 15 99 29 110 43 10 12 26 21 37 21 10 0 34 5 51 11
40 14 45 9 72 -67 11 -32 29 -68 40 -80 31 -33 140 -75 235 -91 30 -5 33 -10
54 -81 27 -91 94 -228 116 -236 34 -13 84 -6 105 15 18 18 20 28 14 73 -3 28
-17 78 -31 112 -13 33 -24 68 -24 78 0 31 -18 53 -72 87 -29 19 -55 38 -57 43
-9 23 -52 56 -72 56 -11 0 -47 12 -80 27 -56 26 -59 29 -69 75 -15 71 -14 73
32 91 36 15 44 15 58 2 36 -32 89 -45 189 -45 74 0 110 5 143 19 30 12 55 16
83 12 l40 -6 2 -62 c3 -71 21 -114 66 -152 42 -36 86 -50 120 -38 52 18 60 61
23 140 -19 40 -25 73 -28 139 -3 83 -5 89 -34 119 -55 54 -239 77 -322 39 -37
-17 -50 -18 -93 -9 -27 6 -49 14 -49 17 1 12 35 47 56 57 11 6 58 53 105 105
47 52 101 102 120 111 19 9 90 21 157 28 68 7 130 15 138 18 8 3 21 18 29 34
35 67 3 124 -66 117 -21 -2 -39 -1 -39 2 0 3 11 21 25 40 25 34 32 74 16 99
-5 8 -3 27 6 49 8 19 13 49 12 66 -2 17 2 42 8 56 7 14 15 39 18 55 l7 30 14
-26 c41 -79 258 -56 293 30 20 46 7 80 -37 98 -28 12 -46 13 -74 6 -36 -10
-38 -9 -48 21 -6 17 -27 49 -48 72 -34 36 -37 44 -30 75 17 75 39 236 37 269
-4 83 -1 97 29 103 44 9 82 50 82 89 0 42 -11 58 -51 77 -24 12 -38 29 -52 66
-10 28 -26 66 -34 86 -14 33 -13 39 2 62 10 15 15 40 13 59 -3 29 0 33 24 36
22 3 40 -11 105 -79 43 -45 92 -88 110 -95 37 -16 136 -19 162 -4 24 12 45 64
37 93 -7 30 -73 77 -107 77 -32 0 -42 9 -28 27 8 9 24 11 49 7 30 -5 42 -2 59
15 40 40 14 122 -50 159 -50 29 -82 24 -140 -23 l-43 -34 -29 25 c-24 20 -39
24 -99 24 -101 0 -140 20 -167 86 -12 28 -35 63 -50 79 -24 22 -28 33 -24 60
4 27 0 39 -20 59 -15 14 -37 26 -51 26 -22 0 -27 5 -32 42 -7 43 -33 78 -59
78 -8 0 -15 4 -15 9 0 4 -25 35 -56 67 -31 33 -61 72 -66 87 -6 15 -23 34 -39
43 -16 8 -36 25 -45 39 -9 13 -24 27 -34 30 -10 3 -28 21 -39 40 l-20 34 35
26 c19 15 61 63 94 108 45 61 60 90 60 115 0 40 -38 82 -75 82 -27 0 -34 -6
-109 -95 -53 -62 -127 -105 -183 -105 -54 0 -61 7 -56 54 4 35 1 48 -16 65
-25 25 -77 28 -109 5 -19 -13 -31 -14 -77 -4 l-55 11 21 29 c15 19 20 38 17
59 -4 26 -1 31 16 31 25 0 111 48 149 83 54 51 22 133 -48 125 -31 -4 -35 -1
-51 35 -30 65 -77 75 -125 27 -28 -27 -32 -29 -52 -15 -60 39 -154 23 -179
-30 -15 -32 -2 -73 26 -87 21 -9 25 -19 28 -68 l3 -58 -40 -7 c-22 -3 -44 -6
-50 -5 -5 1 -58 3 -117 5 -59 2 -131 8 -160 14 -66 12 -156 12 -229 0 -67 -11
-119 6 -137 45 -6 14 -22 28 -35 31 -17 5 -33 23 -51 60 -31 64 -58 85 -107
85 -22 0 -47 8 -63 21 -22 17 -26 28 -26 70 0 68 -12 86 -77 114 -67 30 -97
31 -123 5z m307 -332 c-3 -8 -6 -5 -6 6 -1 11 2 17 5 13 3 -3 4 -12 1 -19z
m39 -60 c10 -18 36 -49 58 -70 33 -29 39 -39 29 -49 -7 -7 -13 -21 -13 -31 0
-10 -9 -32 -20 -50 -20 -34 -26 -74 -12 -94 9 -13 323 -17 417 -4 165 22 196
29 254 59 34 17 69 31 79 31 9 0 28 12 41 25 13 14 26 23 29 21 10 -11 -30
-56 -61 -70 -42 -17 -76 -54 -56 -60 41 -13 67 -14 112 -5 28 5 67 6 86 2 l36
-8 -49 -5 c-27 -3 -51 -10 -53 -17 -3 -7 15 -22 39 -34 24 -11 54 -31 68 -44
14 -13 43 -32 64 -44 22 -11 43 -26 47 -33 5 -7 36 -14 76 -16 64 -3 70 -2
101 27 36 34 79 42 79 15 0 -9 -8 -19 -18 -21 -10 -3 -30 -23 -44 -45 -29 -43
-24 -57 20 -58 11 0 38 -14 60 -30 22 -16 58 -41 80 -56 22 -14 46 -33 53 -42
14 -18 83 -42 123 -42 27 0 103 -45 130 -76 9 -10 24 -41 33 -69 21 -62 29
-73 91 -121 62 -47 95 -77 95 -87 0 -5 -17 5 -37 21 -21 16 -51 36 -68 45 -16
8 -38 25 -49 38 -24 29 -66 113 -66 133 0 18 -72 74 -107 82 -44 12 -53 0 -32
-43 10 -21 19 -60 20 -86 3 -49 15 -69 29 -47 5 8 10 3 14 -15 6 -25 50 -75
66 -75 4 0 11 -7 14 -16 3 -8 2 -12 -4 -9 -11 7 -12 -1 -4 -32 4 -13 12 -23
19 -23 14 0 35 -50 35 -82 0 -10 10 -22 23 -27 12 -5 23 -17 23 -30 1 -11 2
-25 3 -31 0 -5 16 -10 35 -10 19 0 38 -5 41 -10 3 -6 20 -17 36 -25 38 -20 69
-6 69 32 0 37 11 22 12 -16 1 -17 6 -31 12 -31 23 0 92 23 106 35 8 7 46 15
83 18 63 4 69 3 83 -18 9 -13 26 -31 40 -40 22 -14 26 -14 52 2 l27 17 -22
-23 c-30 -28 -29 -33 8 -78 17 -21 -5 -1 -49 44 l-80 82 -61 -3 c-39 -2 -68
-9 -80 -20 -9 -9 -22 -16 -27 -16 -5 0 -28 -8 -51 -17 -39 -16 -43 -22 -49
-61 -10 -65 4 -162 31 -209 16 -30 20 -44 12 -52 -8 -8 -8 -34 1 -94 7 -46 12
-99 12 -118 0 -34 -30 -130 -48 -152 -11 -13 -85 -228 -80 -231 35 -26 58 -36
81 -36 16 0 38 -5 50 -11 35 -18 87 -71 87 -89 0 -9 6 -22 13 -30 10 -12 9
-12 -5 -1 -10 7 -18 19 -18 26 0 7 -16 27 -35 44 -31 27 -43 31 -95 31 -32 0
-65 3 -73 6 -28 10 -53 -31 -75 -122 -12 -49 -22 -102 -22 -118 0 -37 -59
-161 -117 -243 -23 -35 -43 -65 -43 -68 0 -2 14 -8 32 -13 22 -6 32 -14 33
-30 2 -23 -19 -30 -30 -12 -19 30 -131 -27 -154 -78 -6 -12 -18 -25 -26 -28
-8 -4 -15 -12 -15 -19 0 -15 -89 -100 -157 -149 -29 -20 -55 -46 -58 -56 -7
-23 24 -70 104 -152 l55 -58 96 0 c67 0 104 5 125 16 22 12 43 14 80 9 28 -4
65 -9 83 -10 59 -4 72 -27 72 -124 0 -70 4 -91 20 -111 27 -34 27 -59 0 -35
-35 32 -51 77 -50 140 3 112 11 101 -91 108 -70 5 -97 4 -119 -8 -31 -16 -78
-21 -176 -17 l-61 2 -87 85 -88 85 -55 0 c-70 0 -113 -27 -113 -71 0 -16 9
-38 20 -49 l20 -20 -30 0 c-19 0 -34 7 -42 20 -23 37 -94 21 -205 -44 -66 -39
-73 -41 -73 -26 0 6 6 10 13 10 7 0 26 13 42 30 16 16 34 30 39 30 6 0 22 12
35 26 l25 26 -50 -7 c-27 -4 -53 -14 -57 -21 -4 -8 -19 -14 -32 -14 -14 0 -25
-5 -25 -11 0 -7 -9 -9 -23 -5 -23 5 -90 -13 -107 -30 -5 -5 -17 -59 -27 -119
-17 -110 -17 -110 -24 -59 -8 61 -14 74 -36 74 -14 0 -14 3 2 20 15 17 16 24
6 46 -11 25 -14 26 -83 22 -44 -2 -73 -9 -76 -16 -2 -7 -11 -12 -20 -12 -12 0
-9 -7 13 -25 l30 -25 -30 6 c-16 4 -48 13 -70 21 -22 8 -61 19 -88 25 -45 10
-48 9 -72 -16 -18 -19 -23 -34 -19 -51 5 -19 -1 -27 -39 -49 -24 -14 -55 -26
-68 -26 -22 0 -26 -6 -36 -54 -6 -30 -9 -63 -7 -73 3 -10 -2 -32 -10 -48 -10
-19 -16 -24 -16 -13 0 9 3 19 8 22 7 4 7 127 0 171 -3 17 3 20 37 21 22 0 50
6 63 12 31 18 28 42 -5 42 -25 0 -26 1 -8 14 13 9 16 19 11 32 -7 18 -9 18
-23 -4 -9 -12 -24 -22 -34 -22 -11 0 -19 -4 -19 -10 0 -13 -37 -13 -45 0 -3 5
7 12 22 16 72 15 72 29 1 38 -64 8 -179 34 -158 36 8 0 -3 10 -24 22 -37 19
-45 20 -110 9 -78 -13 -138 -30 -146 -41 -11 -15 -98 -20 -109 -6 -9 11 -3 15
31 21 24 4 48 8 53 9 19 2 75 37 75 46 0 6 10 10 23 10 12 1 -9 11 -46 24 -78
27 -95 39 -52 35 17 -1 44 -1 60 0 29 2 29 2 10 17 -18 13 -21 13 -32 -3 -10
-13 -13 -14 -14 -2 -1 8 -2 20 -3 28 0 8 -7 16 -14 18 -8 3 -10 -2 -7 -14 4
-11 1 -9 -6 5 -7 12 -18 22 -24 22 -7 0 -18 7 -25 15 -7 8 -36 22 -64 30 -28
9 -68 31 -90 50 -21 19 -41 35 -45 35 -3 0 -26 18 -50 40 -49 45 -58 48 -64
23 -3 -16 -5 -16 -12 2 -14 34 -42 54 -91 65 -45 10 -49 9 -65 -11 l-17 -22
-11 21 c-6 12 -18 22 -25 22 -8 0 -37 8 -66 17 -49 16 -55 16 -103 -1 -30 -10
-76 -17 -107 -16 -30 1 -86 3 -125 4 l-69 1 -23 -65 c-12 -36 -23 -74 -23 -85
0 -12 -20 -41 -45 -65 -25 -24 -45 -52 -45 -61 0 -19 -27 -44 -59 -54 -16 -5
-21 -4 -17 4 4 6 12 11 18 11 19 0 48 32 48 52 0 10 18 35 40 56 29 27 43 49
50 82 5 25 15 68 23 95 l14 50 64 3 c35 2 82 -2 104 -8 43 -12 82 -6 167 27
41 15 53 16 94 5 26 -7 49 -10 52 -8 2 3 4 46 3 97 -2 109 -42 249 -72 249
-19 0 -29 19 -29 56 0 13 -3 24 -7 24 -20 1 -33 18 -27 34 5 14 9 15 16 4 5
-8 6 -2 2 17 -13 58 -52 80 -163 91 -39 3 -68 11 -65 16 3 5 14 6 24 3 15 -5
75 7 147 30 7 3 5 17 -10 46 -13 26 -23 73 -28 129 -4 49 -11 94 -15 102 -5 7
-7 20 -6 29 3 19 -37 38 -90 41 -53 3 -47 15 10 24 61 9 61 9 52 46 -35 135
-64 181 -135 214 -30 14 -56 33 -60 42 -5 14 -4 14 12 1 31 -26 73 -39 101
-33 47 11 59 31 67 102 4 37 13 78 20 92 8 14 22 52 33 85 11 33 24 74 30 90
25 69 53 174 62 238 11 70 64 191 94 216 14 12 16 11 10 -5 -4 -10 -11 -24
-15 -29 -16 -21 -50 -120 -54 -154 -17 -183 -17 -196 -2 -181 8 8 23 40 32 70
10 30 30 80 44 110 14 30 26 63 27 74 1 10 9 23 18 28 9 5 16 14 16 20 0 13
51 91 63 96 4 2 13 9 20 15 7 7 22 17 32 23 11 6 21 18 23 27 4 19 -55 49 -81
41 -14 -4 -18 -2 -15 7 3 8 13 14 24 14 10 0 20 7 22 15 3 17 -58 44 -120 55
-52 8 -58 25 -9 25 39 0 152 -25 181 -40 31 -16 89 -18 110 -3 38 27 50 65 40
129 -5 31 -14 62 -20 68 -5 5 -10 19 -10 31 1 19 1 19 20 -4 11 -13 20 -30 20
-38 0 -52 64 -99 97 -71 28 23 295 158 340 172 14 5 20 12 16 22 -4 10 3 14
30 14 20 0 38 4 41 9 3 4 17 6 32 3 38 -7 118 74 140 142 9 28 27 62 40 77 32
34 30 56 -7 91 -17 17 -37 45 -45 64 -18 43 -10 44 12 2z m965 -15 c13 -16 12
-17 -3 -4 -17 13 -22 21 -14 21 2 0 10 -8 17 -17z m34 -63 c3 -5 1 -10 -4 -10
-6 0 -11 5 -11 10 0 6 2 10 4 10 3 0 8 -4 11 -10z m20 -240 c-3 -5 -12 -7 -20
-3 -21 7 -19 13 6 13 11 0 18 -4 14 -10z m1475 -983 c0 -2 -10 -12 -22 -23
l-23 -19 19 23 c18 21 26 27 26 19z m-4095 -317 c3 -5 2 -10 -4 -10 -5 0 -13
5 -16 10 -3 6 -2 10 4 10 5 0 13 -4 16 -10z m728 -1579 c34 -38 54 -77 44 -88
-3 -2 -13 13 -23 34 -21 43 -21 44 -87 96 -26 21 -47 43 -47 49 0 13 68 -42
113 -91z m54 -123 c-3 -8 -6 -5 -6 6 -1 11 2 17 5 13 3 -3 4 -12 1 -19z"/>
<path d="M2184 3814 c-12 -5 -177 -34 -204 -35 -8 0 -24 -4 -35 -9 -40 -17
-60 -24 -70 -25 -14 -3 -43 -14 -103 -41 -29 -13 -57 -24 -62 -24 -6 0 -10 -5
-10 -10 0 -6 -3 -9 -7 -8 -14 5 -124 -64 -164 -102 -40 -38 -44 -46 -31 -67
14 -22 113 22 141 63 23 33 27 34 66 29 39 -6 43 -5 66 29 21 31 29 36 64 36
23 0 46 5 52 11 13 13 79 31 111 30 13 -1 62 8 108 20 49 12 96 18 113 14 20
-4 42 0 70 14 50 26 69 26 156 1 39 -11 104 -27 145 -35 115 -22 163 -35 180
-50 21 -18 129 -72 162 -80 14 -4 28 -15 31 -26 3 -10 13 -22 24 -25 10 -3 28
-10 39 -16 12 -6 35 -11 52 -11 30 -2 35 -17 5 -17 -9 0 -13 -6 -9 -15 3 -8 3
-15 0 -15 -16 0 -75 38 -115 75 -26 22 -67 47 -90 54 -24 7 -62 26 -84 42 -40
28 -89 43 -200 59 -33 5 -97 19 -142 31 -73 20 -86 21 -122 9 -23 -7 -41 -17
-41 -22 0 -5 -28 -8 -62 -8 -40 1 -83 -6 -117 -18 -37 -14 -62 -17 -81 -12
-20 6 -44 1 -86 -16 -31 -13 -70 -26 -85 -29 -16 -4 -42 -23 -58 -44 -28 -35
-59 -46 -77 -28 -10 9 -44 9 -45 0 -1 -5 -3 -18 -4 -31 -1 -12 -4 -24 -6 -25
-2 -1 -18 -12 -36 -25 -18 -12 -37 -22 -43 -22 -5 0 -10 -4 -10 -10 0 -5 -6
-7 -13 -4 -8 3 -20 -2 -27 -11 -7 -8 -18 -15 -26 -15 -7 0 -25 -5 -39 -10
l-27 -10 49 -59 c26 -33 55 -60 63 -61 13 0 13 -1 0 -10 -12 -8 -11 -13 8 -33
12 -13 19 -26 16 -29 -3 -4 4 -19 15 -35 16 -21 23 -49 27 -113 7 -86 25 -150
43 -150 6 0 24 -20 41 -45 27 -39 36 -45 67 -45 24 0 34 -4 31 -12 -3 -7 -13
-43 -23 -79 -16 -61 -20 -68 -47 -73 -52 -10 -168 -7 -168 5 0 6 -6 4 -14 -4
-9 -9 -49 -17 -108 -21 -51 -4 -97 -11 -102 -16 -4 -4 -11 -38 -13 -74 l-6
-65 174 6 c96 3 179 10 186 15 18 14 20 0 15 -109 l-4 -103 -191 0 -190 0 7
-82 c4 -45 8 -83 9 -84 2 -2 368 -24 413 -24 15 0 22 -7 22 -23 1 -12 7 -57
15 -101 l15 -78 -112 6 c-134 8 -398 34 -446 44 -34 7 -35 10 -42 62 -10 88
-8 526 3 640 6 58 11 110 11 116 1 12 123 28 296 41 58 4 92 10 91 17 -3 27 4
39 9 18 4 -13 10 -23 15 -23 4 1 27 1 52 1 l46 0 -15 29 c-9 16 -30 41 -48 56
-33 28 -65 97 -48 103 12 4 13 42 1 42 -4 0 -11 21 -14 47 -4 41 -12 53 -59
96 -29 27 -69 60 -88 72 -19 12 -41 30 -49 39 -20 24 -39 20 -68 -14 -13 -16
-33 -30 -44 -30 -31 0 -42 -36 -35 -118 3 -40 12 -88 20 -105 8 -18 16 -39 19
-48 8 -25 -19 -140 -38 -158 -16 -15 -17 -14 -4 9 20 37 26 87 17 140 -6 35
-30 113 -38 122 -3 4 -28 -11 -54 -35 -54 -47 -60 -72 -32 -128 9 -18 14 -34
12 -37 -7 -6 -46 79 -46 101 0 18 -2 18 -22 5 -16 -11 -22 -25 -23 -56 -1 -35
-7 -47 -43 -80 -23 -21 -42 -46 -42 -54 0 -8 -11 -37 -25 -64 -14 -27 -25 -65
-25 -84 0 -19 -5 -51 -11 -70 -5 -19 -12 -48 -15 -65 -21 -143 -23 -185 -13
-251 5 -39 7 -82 4 -95 -6 -28 8 -55 24 -45 6 4 11 16 11 27 0 19 23 62 47 87
15 16 15 13 13 117 -1 44 -5 84 -11 90 -5 5 -9 19 -9 32 0 18 -6 23 -27 23
-25 0 -25 1 -10 18 10 10 17 28 17 39 0 23 25 49 34 35 7 -12 21 -190 21 -272
0 -56 -4 -72 -30 -110 -39 -59 -72 -155 -58 -172 6 -7 14 -34 17 -60 4 -26 16
-73 27 -105 31 -87 128 -280 144 -287 8 -3 38 -3 67 0 38 3 47 2 33 -5 -11 -5
-35 -10 -52 -10 -40 -1 -42 -18 -8 -59 14 -17 25 -32 25 -35 0 -10 45 -61 149
-169 78 -80 110 -107 123 -102 10 3 18 1 18 -5 0 -14 55 -14 105 1 22 6 49 11
60 10 42 -4 140 -25 150 -32 19 -15 162 -60 209 -66 64 -9 91 7 112 66 20 57
54 80 115 80 31 0 69 13 136 46 90 44 93 45 118 28 25 -16 53 -16 140 0 27 6
28 5 10 -6 -11 -7 -65 -13 -121 -15 -89 -3 -109 -7 -161 -32 -32 -16 -74 -32
-93 -35 -19 -3 -48 -8 -64 -11 -34 -5 -59 -26 -61 -52 -3 -29 -31 -87 -51
-105 -27 -23 -95 -10 -219 42 -152 64 -202 74 -275 53 -33 -9 -60 -20 -60 -24
0 -5 12 -16 28 -26 15 -10 29 -20 32 -24 3 -3 41 -25 85 -48 122 -65 288 -126
372 -138 27 -3 51 -10 54 -16 10 -14 410 -21 489 -9 125 21 252 53 307 78 17
8 37 14 45 14 14 1 48 24 48 33 0 4 -11 2 -24 -3 -13 -5 -79 -9 -145 -9 -113
0 -125 -2 -185 -30 -43 -20 -70 -39 -80 -58 -14 -25 -15 -26 -16 -7 0 12 8 31
18 42 24 27 145 76 169 68 11 -4 28 -3 38 0 15 6 15 8 -6 20 -13 7 -36 13 -51
14 -16 0 -28 4 -28 10 0 14 93 0 106 -16 14 -18 48 -18 41 -1 -3 7 8 22 24 33
16 10 29 21 29 24 0 4 -15 11 -33 18 -36 13 -197 138 -197 153 0 17 17 9 82
-40 85 -65 136 -91 173 -90 39 0 151 41 147 54 -2 5 6 12 17 17 27 9 27 28 1
28 -11 0 -20 -4 -20 -10 0 -5 -7 -7 -15 -4 -8 4 -15 12 -15 20 0 9 11 12 40 8
44 -5 48 0 23 29 -13 14 -18 38 -20 91 -1 39 -4 107 -7 150 -5 61 -3 85 9 102
21 32 19 81 -5 106 -22 24 -27 77 -9 110 8 15 8 27 -2 44 -13 25 -31 33 -27
12 2 -7 -7 -14 -20 -16 -19 -3 -22 0 -17 20 32 142 32 170 1 232 -26 52 -36
45 -36 -29 0 -38 -27 -215 -34 -222 -1 -1 -53 -6 -115 -9 l-114 -7 7 39 c10
62 19 587 11 641 -7 47 -8 44 -55 -142 -26 -104 -73 -268 -104 -363 l-57 -173
-101 3 -101 3 -34 100 c-58 172 -143 472 -143 505 0 7 8 10 20 7 33 -8 24 20
-10 32 -20 6 -30 17 -30 30 0 10 -3 28 -7 38 -6 13 -9 3 -13 -32 l-5 -50 -40
2 c-22 1 -31 0 -20 -3 62 -15 64 -19 58 -123 -5 -96 13 -468 24 -498 6 -14 -6
-15 -111 -10 -65 3 -119 7 -121 9 -14 14 -35 259 -35 412 -1 207 17 364 56
499 5 15 22 17 179 17 l175 0 6 -27 c75 -302 152 -585 156 -577 6 9 129 505
143 571 5 25 12 32 33 35 26 3 24 5 -43 76 -44 48 -90 84 -127 103 -32 16 -82
47 -110 69 -53 41 -158 80 -214 80 -16 1 -47 9 -69 20 -22 11 -50 19 -63 20
-13 0 -35 6 -50 14 -15 8 -41 17 -57 20 -17 3 -40 8 -52 12 -14 4 -39 -2 -66
-15 -45 -22 -103 -29 -92 -11 3 6 20 10 37 10 16 0 43 9 60 21 25 18 37 20 86
14 31 -4 68 -14 82 -23 14 -8 41 -19 60 -22 19 -4 47 -11 63 -15 22 -6 27 -4
27 12 0 10 -4 23 -9 29 -4 5 -11 22 -15 37 -9 40 10 26 24 -17 13 -41 22 -45
80 -37 38 6 50 3 78 -18 28 -20 48 -25 118 -29 78 -4 87 -3 109 18 14 13 25
29 25 36 0 8 14 24 31 36 17 13 37 35 45 51 8 15 21 27 29 27 7 0 40 -22 71
-50 34 -30 67 -50 81 -50 13 0 34 -7 47 -15 21 -14 26 -12 80 20 60 36 84 42
114 26 9 -5 32 -15 50 -22 42 -15 86 -87 87 -142 0 -39 1 -40 47 -52 26 -6 67
-28 92 -48 47 -39 76 -47 76 -21 0 11 6 14 20 9 16 -5 20 -2 20 15 0 12 -5 30
-10 41 -8 14 -7 19 3 19 8 0 19 -17 25 -38 8 -26 21 -43 38 -51 19 -8 24 -15
17 -22 -8 -8 -18 -7 -33 1 -28 15 -40 1 -40 -49 0 -31 2 -33 28 -27 24 6 25 5
10 -7 -23 -18 -23 -40 0 -60 24 -22 32 -21 32 1 1 14 26 -37 71 -147 8 -19 12
-22 19 -12 11 20 32 3 25 -20 -4 -13 -2 -19 6 -17 7 2 14 -1 14 -7 1 -5 6 -28
12 -50 6 -22 15 -65 18 -95 4 -30 11 -59 15 -65 10 -13 24 -67 21 -82 -3 -21
37 -127 52 -138 13 -9 11 -14 -11 -35 -46 -44 -59 -76 -55 -128 4 -37 -1 -57
-22 -96 -15 -28 -28 -71 -30 -97 -4 -49 -19 -89 -34 -89 -5 0 -11 -8 -14 -17
-2 -10 -8 -26 -12 -35 -15 -36 14 -17 39 26 27 46 51 58 96 49 16 -3 41 2 60
12 17 9 38 14 44 12 8 -3 20 9 29 27 13 28 13 39 1 85 -8 33 -11 75 -7 111 6
57 6 58 39 62 33 4 44 -4 24 -17 -5 -3 -9 -23 -9 -43 1 -20 3 -28 6 -17 2 11
9 30 15 42 6 12 8 29 4 38 -3 9 -1 25 4 36 6 10 13 43 15 72 16 214 17 255 7
261 -16 9 -25 -30 -12 -54 12 -22 1 -27 -18 -8 -16 16 -15 50 3 74 8 10 15 33
15 51 0 26 -3 30 -20 26 -11 -3 -20 0 -20 6 0 6 9 11 20 11 11 0 20 4 20 9 0
14 -45 61 -59 61 -6 0 -11 4 -11 9 0 9 -28 22 -59 27 -24 4 -61 47 -61 70 0
13 -11 33 -24 46 -32 31 -66 88 -66 113 0 14 -13 25 -41 37 -22 10 -38 22 -34
27 3 6 1 30 -6 53 -6 24 -14 37 -16 31 -3 -7 -9 -13 -14 -13 -6 0 -8 4 -5 8 3
5 -5 19 -18 33 -13 14 -29 38 -37 54 -9 18 -23 31 -38 33 -13 2 -51 33 -86 68
-34 35 -78 71 -98 79 -20 8 -45 27 -54 43 -33 50 -47 62 -83 68 -19 3 -46 9
-60 14 -14 4 -74 23 -135 40 -60 18 -119 36 -130 41 -11 4 -31 10 -45 13 -14
3 -1 3 28 1 29 -2 108 -22 175 -44 67 -22 144 -43 170 -46 43 -7 53 -13 85
-57 25 -33 47 -51 66 -55 16 -3 50 -26 75 -51 25 -24 63 -53 84 -64 20 -11 47
-33 60 -49 12 -16 44 -51 70 -80 26 -28 47 -59 46 -68 -3 -33 2 -39 35 -45 36
-7 46 -24 46 -80 0 -22 13 -42 56 -83 54 -53 90 -65 88 -31 -1 16 0 16 23 1
13 -9 26 -13 29 -10 9 8 -43 152 -87 242 -47 97 -68 134 -103 179 -14 19 -26
38 -26 41 0 30 -315 345 -345 345 -5 0 -23 11 -41 25 -19 14 -37 26 -41 26 -5
0 -15 7 -23 14 -25 23 -171 95 -191 95 -10 0 -19 4 -19 9 0 5 -18 12 -40 16
-22 4 -42 10 -45 15 -3 4 -28 11 -55 15 -27 4 -52 11 -56 16 -3 5 -20 9 -38 9
-18 0 -36 3 -40 8 -4 4 -20 8 -34 10 -61 6 -388 11 -398 6z m816 -256 c0 -13
-23 -5 -28 10 -2 7 2 10 12 6 9 -3 16 -11 16 -16z m147 -54 c-3 -3 -12 -4 -19
-1 -8 3 -5 6 6 6 11 1 17 -2 13 -5z m-1164 -170 c-6 -16 -6 -16 -27 -8 -21 8
-9 33 14 27 11 -3 16 -11 13 -19z m1405 -29 c-3 -3 -9 2 -12 12 -6 14 -5 15 5
6 7 -7 10 -15 7 -18z m-1541 -1 c-3 -3 -12 -4 -19 -1 -8 3 -5 6 6 6 11 1 17
-2 13 -5z m-99 -21 c-10 -2 -26 -2 -35 0 -10 3 -2 5 17 5 19 0 27 -2 18 -5z
m1709 -67 c42 -21 139 -119 109 -110 -29 9 -47 24 -56 50 -5 12 -32 35 -61 51
-29 15 -55 35 -57 43 -4 13 -2 12 14 -1 10 -9 34 -24 51 -33z m-2152 -3 c-2
-10 -4 -21 -4 -25 -2 -14 -21 -9 -21 5 0 11 19 37 26 37 1 0 1 -8 -1 -17z
m135 -15 c0 -12 -12 -9 -32 6 -26 19 -22 27 7 14 14 -6 25 -15 25 -20z m2047
-54 c-3 -3 -12 -4 -19 -1 -8 3 -5 6 6 6 11 1 17 -2 13 -5z m-167 -34 c0 -5 -4
-10 -9 -10 -6 0 -13 5 -16 10 -3 6 1 10 9 10 9 0 16 -4 16 -10z m123 -172 c-6
-12 -31 -9 -39 4 -4 6 1 17 12 25 16 12 19 11 25 -4 4 -10 5 -21 2 -25z
m-2063 -8 c0 -5 -4 -10 -9 -10 -6 0 -13 5 -16 10 -3 6 1 10 9 10 9 0 16 -4 16
-10z m227 -62 c-3 -7 -5 -2 -5 12 0 14 2 19 5 13 2 -7 2 -19 0 -25z m1829 -36
c-4 -3 -6 0 -6 6 0 7 -7 12 -15 12 -8 0 -15 8 -15 18 0 33 15 34 28 2 7 -18
11 -35 8 -38z m69 -78 c9 -9 13 -19 10 -22 -3 -3 -15 4 -27 16 -13 12 -17 22
-11 22 6 0 19 -7 28 -16z m-2382 -117 c-3 -5 -11 -6 -19 -3 -8 3 -25 1 -39 -4
-22 -8 -42 0 -29 13 9 8 93 3 87 -6z m546 -130 c-2 -2 -17 12 -33 32 l-30 36
34 -32 c19 -18 32 -34 29 -36z m-537 -142 c-2 -14 -6 -25 -7 -25 -1 0 -5 11
-7 25 -3 16 -1 25 7 25 8 0 10 -9 7 -25z m22 -71 c3 -8 2 -12 -4 -9 -6 3 -10
10 -10 16 0 14 7 11 14 -7z m3 -86 c-3 -8 -6 -5 -6 6 -1 11 2 17 5 13 3 -3 4
-12 1 -19z m-70 -210 c-3 -8 -6 -5 -6 6 -1 11 2 17 5 13 3 -3 4 -12 1 -19z
m24 -75 c13 -16 12 -17 -3 -4 -10 7 -18 15 -18 17 0 8 8 3 21 -13z m169 -293
c0 -5 -5 -10 -11 -10 -5 0 -7 5 -4 10 3 6 8 10 11 10 2 0 4 -4 4 -10z m134
-30 c14 0 26 -4 26 -10 0 -15 -61 1 -81 21 -9 9 -15 20 -12 23 3 3 14 -3 23
-14 10 -11 29 -20 44 -20z m69 -25 c-3 -9 -8 -14 -10 -11 -3 3 -2 9 2 15 9 16
15 13 8 -4z m47 -50 c7 -9 8 -15 2 -15 -5 0 -12 7 -16 15 -3 8 -4 15 -2 15 2
0 9 -7 16 -15z m1477 -17 c-3 -8 -6 -5 -6 6 -1 11 2 17 5 13 3 -3 4 -12 1 -19z
m-1379 -21 c6 3 12 -2 12 -10 0 -25 70 -79 94 -73 52 15 62 15 80 1 11 -8 17
-18 13 -22 -4 -3 -15 1 -24 10 -14 12 -23 13 -36 5 -33 -18 -77 -21 -77 -5 0
18 -75 87 -94 87 -7 0 -20 7 -27 17 -13 15 -12 15 16 1 17 -8 36 -13 43 -11z
m945 -64 c-7 -2 -19 -2 -25 0 -7 3 -2 5 12 5 14 0 19 -2 13 -5z m-335 -35 c9
-9 15 -9 24 0 15 15 58 16 58 2 0 -5 -10 -10 -23 -10 -13 0 -28 -5 -33 -10 -7
-7 -20 -6 -40 5 -16 8 -37 12 -48 9 -12 -4 -16 -2 -12 5 9 15 59 14 74 -1z
m-88 -29 c0 -16 -20 -19 -40 -7 -28 18 -25 25 10 20 17 -2 30 -8 30 -13z
m-454 -84 c10 -8 30 -15 43 -15 31 0 91 -21 91 -32 0 -13 -23 -9 -44 7 -11 8
-32 15 -46 15 -14 0 -35 7 -46 15 -29 22 -58 18 -112 -16 -32 -19 -59 -29 -73
-26 -24 4 -24 4 1 6 14 1 43 15 65 31 44 32 91 38 121 15z m-291 -25 c3 -5 -1
-10 -9 -10 -8 0 -18 5 -21 10 -3 6 1 10 9 10 8 0 18 -4 21 -10z m615 -60 c0
-5 -7 -7 -15 -4 -8 4 -15 8 -15 10 0 2 7 4 15 4 8 0 15 -4 15 -10z m210 -90
c0 -5 -7 -7 -15 -4 -8 4 -12 10 -9 15 6 11 24 2 24 -11z m115 -30 c3 -5 1 -10
-4 -10 -6 0 -11 5 -11 10 0 6 2 10 4 10 3 0 8 -4 11 -10z m266 -5 l34 -16 -40
6 c-22 4 -44 11 -49 16 -16 15 18 11 55 -6z m-128 -13 c10 -1 15 -7 12 -13 -4
-6 -22 -8 -44 -4 -20 3 -47 6 -61 6 -19 0 -21 2 -8 7 16 6 52 8 101 4z m-127
-29 c-2 -3 -37 -6 -76 -7 -39 -2 -66 0 -59 5 13 8 143 10 135 2z"/>
<path d="M1399 3344 c-11 -13 -8 -20 17 -43 38 -35 99 -81 108 -81 8 0 -96
139 -105 139 -4 1 -12 -6 -20 -15z"/>
<path d="M2477 3247 c-27 -29 -60 -67 -74 -85 l-26 -34 -88 5 c-72 4 -87 2
-82 -9 3 -8 9 -14 14 -14 6 0 33 -18 62 -39 29 -21 77 -50 107 -64 37 -16 80
-50 133 -103 42 -43 77 -82 77 -86 0 -5 58 -8 130 -8 l129 0 12 -41 c11 -34
10 -42 -2 -50 -11 -7 -9 -9 9 -9 25 0 30 -15 7 -24 -8 -3 -15 -13 -15 -22 0
-13 3 -14 14 -5 11 10 16 -2 25 -66 6 -43 13 -127 16 -188 6 -116 20 -190 40
-215 7 -8 15 -22 17 -30 3 -8 8 15 12 52 10 92 -5 307 -29 427 -13 64 -13 65
12 84 13 11 41 21 61 23 21 2 57 6 82 8 25 2 63 8 85 13 49 12 65 7 65 -17 0
-10 5 -22 10 -25 6 -3 10 3 10 14 0 12 5 21 10 21 16 0 12 50 -5 56 -8 4 -15
18 -15 34 0 38 -10 61 -22 54 -6 -4 -8 2 -3 15 5 15 2 21 -9 21 -9 0 -41 20
-72 45 -40 33 -64 45 -87 45 -44 0 -57 16 -57 70 0 57 -29 107 -67 115 -15 4
-45 12 -65 20 -33 12 -40 11 -60 -4 -13 -10 -40 -26 -61 -36 -35 -16 -39 -16
-56 -1 -9 9 -28 16 -40 16 -30 0 -70 22 -105 59 -17 17 -35 31 -40 30 -6 0
-33 -24 -59 -52z m793 -442 c0 -8 -4 -15 -9 -15 -13 0 -22 16 -14 24 11 11 23
6 23 -9z m-255 -15 c-3 -5 -13 -10 -21 -10 -8 0 -17 -6 -20 -14 -11 -28 -32
-25 -43 5 l-10 29 50 0 c31 0 48 -4 44 -10z"/>
<path d="M1131 3160 c-14 -19 -34 -44 -43 -54 -10 -11 -18 -25 -18 -31 0 -6
-12 -28 -26 -50 l-27 -40 30 28 c16 15 34 27 40 27 6 0 9 9 6 20 -3 11 -2 27
1 36 5 13 9 14 21 4 12 -10 16 -7 25 15 6 15 22 36 35 47 31 24 32 37 4 35
-12 -1 -33 -17 -48 -37z"/>
<path d="M2082 3168 c5 -14 76 -34 85 -24 4 3 -2 13 -13 21 -24 18 -77 20 -72
3z"/>
<path d="M1187 3116 c-4 -10 0 -12 14 -9 22 6 26 23 5 23 -8 0 -16 -6 -19 -14z"/>
<path d="M3287 2963 c-4 -3 -7 -11 -7 -17 0 -6 5 -5 12 2 6 6 9 14 7 17 -3 3
-9 2 -12 -2z"/>
<path d="M1004 2949 c-15 -19 -26 -69 -15 -69 17 0 32 29 29 56 -2 22 -5 25
-14 13z"/>
<path d="M832 2920 c0 -19 2 -27 5 -17 2 9 2 25 0 35 -3 9 -5 1 -5 -18z"/>
<path d="M3905 2870 c-8 -12 52 -139 75 -157 27 -23 31 -14 28 75 l-3 87 -47
3 c-26 2 -49 -2 -53 -8z"/>
<path d="M777 2756 c-15 -32 -27 -64 -27 -70 0 -7 -7 -21 -15 -32 -8 -10 -15
-40 -15 -67 0 -26 -5 -56 -12 -66 -8 -14 -8 -29 3 -64 7 -25 16 -44 19 -41 3
3 6 37 7 76 0 39 9 90 17 113 9 23 16 47 15 51 -1 5 0 16 3 24 31 84 39 112
36 122 -3 7 -17 -14 -31 -46z"/>
<path d="M3330 2776 c0 -2 7 -7 16 -10 8 -3 12 -2 9 4 -6 10 -25 14 -25 6z"/>
<path d="M1261 2724 c0 -11 3 -14 6 -6 3 7 2 16 -1 19 -3 4 -6 -2 -5 -13z"/>
<path d="M3320 2731 c0 -6 4 -12 8 -15 5 -3 9 1 9 9 0 8 -4 15 -9 15 -4 0 -8
-4 -8 -9z"/>
<path d="M3651 2710 c6 -16 15 -30 20 -30 16 0 10 48 -7 54 -23 9 -24 8 -13
-24z"/>
<path d="M1726 2715 c-3 -8 -1 -15 4 -15 6 0 10 7 10 15 0 8 -2 15 -4 15 -2 0
-6 -7 -10 -15z"/>
<path d="M3380 2721 c0 -8 -6 -11 -15 -7 -12 4 -15 -3 -15 -34 0 -21 5 -42 10
-45 6 -3 10 1 10 9 0 8 9 18 20 21 16 5 19 12 14 28 -8 28 -24 46 -24 28z"/>
<path d="M3706 2711 c-10 -11 -15 -24 -12 -30 8 -12 86 -35 93 -27 7 7 -45 76
-56 76 -4 0 -16 -9 -25 -19z"/>
<path d="M3290 2684 c0 -8 5 -12 10 -9 6 4 8 11 5 16 -9 14 -15 11 -15 -7z"/>
<path d="M3960 2642 c0 -21 9 -68 20 -103 11 -35 32 -99 46 -142 13 -43 22
-82 19 -88 -14 -21 8 -30 22 -9 12 17 14 35 9 74 -4 28 -11 86 -16 128 -10 89
-51 178 -82 178 -14 0 -18 -8 -18 -38z"/>
<path d="M3300 2644 c0 -8 5 -12 10 -9 6 3 10 10 10 16 0 5 -4 9 -10 9 -5 0
-10 -7 -10 -16z"/>
<path d="M3410 2630 c0 -5 -7 -10 -15 -10 -8 0 -15 -7 -15 -15 0 -18 12 -19
27 -4 8 8 18 6 37 -6 32 -21 34 -6 3 23 -25 24 -37 28 -37 12z"/>
<path d="M3193 2598 c3 -13 8 -44 11 -70 3 -27 9 -68 12 -93 l5 -45 45 0 c36
0 44 -3 44 -18 0 -19 18 -42 32 -42 5 0 2 10 -7 23 -17 27 -12 37 20 37 30 0
56 32 57 69 1 38 19 40 46 6 24 -30 32 -31 32 -6 0 22 -35 51 -60 51 -9 0 -21
15 -29 35 -16 46 -56 66 -144 72 -69 4 -69 4 -64 -19z m155 -63 c-3 -3 -9 2
-12 12 -6 14 -5 15 5 6 7 -7 10 -15 7 -18z"/>
<path d="M3470 2565 c0 -5 5 -17 10 -25 5 -8 10 -10 10 -5 0 6 -5 17 -10 25
-5 8 -10 11 -10 5z"/>
<path d="M1838 2533 c7 -37 32 -84 32 -60 0 18 -26 87 -33 87 -2 0 -2 -12 1
-27z"/>
<path d="M1888 2513 c7 -3 16 -2 19 1 4 3 -2 6 -13 5 -11 0 -14 -3 -6 -6z"/>
<path d="M1928 2513 c7 -3 16 -2 19 1 4 3 -2 6 -13 5 -11 0 -14 -3 -6 -6z"/>
<path d="M3940 2420 c0 -5 5 -10 10 -10 6 0 10 5 10 10 0 6 -4 10 -10 10 -5 0
-10 -4 -10 -10z"/>
<path d="M3496 2393 c-11 -11 -6 -23 9 -23 8 0 15 4 15 9 0 13 -16 22 -24 14z"/>
<path d="M3967 2373 c-11 -20 -16 -62 -8 -67 5 -3 5 -24 0 -48 -11 -57 -11
-68 1 -68 6 0 10 13 10 29 0 17 9 45 20 64 19 32 19 36 4 65 -16 33 -20 37
-27 25z"/>
<path d="M1617 2363 c-8 -14 -19 -68 -13 -62 8 8 26 69 21 69 -2 0 -6 -3 -8
-7z"/>
<path d="M3526 2355 c-4 -11 -10 -31 -12 -45 -12 -63 -80 -110 -160 -110 -43
0 -45 1 -33 18 13 16 13 16 -7 0 -11 -10 -31 -18 -45 -18 -33 0 -46 -11 -54
-42 -6 -24 -10 -26 -29 -17 -20 10 -20 9 2 -10 18 -15 21 -27 17 -58 -10 -79
-18 -119 -28 -138 -6 -11 -10 -23 -9 -27 2 -8 -19 -5 -35 5 -8 5 -13 3 -13 -7
0 -9 -8 -16 -19 -16 -14 0 -18 -5 -14 -20 3 -11 1 -20 -4 -20 -9 0 -43 -52
-43 -67 0 -5 18 -29 40 -54 33 -36 39 -49 34 -72 -4 -18 -1 -34 9 -45 8 -9 15
-32 15 -50 1 -28 -2 -31 -14 -22 -7 7 -11 17 -8 22 9 14 -5 58 -19 58 -7 0
-18 -9 -24 -20 -15 -23 -2 -110 22 -147 19 -28 19 -33 1 -33 -18 0 -31 -69
-16 -84 14 -13 40 17 40 47 0 16 3 17 15 7 8 -6 19 -9 25 -5 15 9 12 46 -4 59
-11 8 -12 21 -6 51 l8 40 1 -35 c2 -62 14 -68 61 -27 23 19 48 33 55 31 28
-11 55 15 55 54 0 45 8 58 41 71 15 5 35 26 45 48 11 21 31 58 46 83 17 30 27
66 31 105 3 35 13 75 26 96 16 27 19 42 12 65 -10 36 -6 48 32 102 l31 43 -27
82 c-15 45 -28 91 -30 102 l-3 20 -8 -20z m-143 -250 c-3 -13 -11 -29 -17 -34
-9 -8 -11 -1 -8 24 2 19 10 35 17 35 8 0 10 -9 8 -25z m-273 -340 c0 -8 -7
-15 -15 -15 -8 0 -15 7 -15 15 0 8 7 15 15 15 8 0 15 -7 15 -15z m25 -35 c3
-5 1 -10 -4 -10 -6 0 -11 5 -11 10 0 6 2 10 4 10 3 0 8 -4 11 -10z"/>
<path d="M3350 2311 c0 -5 5 -13 10 -16 6 -3 10 -2 10 4 0 5 -4 13 -10 16 -5
3 -10 2 -10 -4z"/>
<path d="M3369 2279 c-11 -7 -9 -9 9 -9 12 0 31 -9 42 -20 10 -10 22 -15 25
-11 11 18 -55 53 -76 40z"/>
<path d="M3062 1988 c-1 -29 3 -38 12 -35 10 4 12 -1 9 -16 -2 -12 3 -8 11 11
14 30 14 33 -8 55 l-24 24 0 -39z"/>
<path d="M3150 1985 c0 -8 4 -15 10 -15 5 0 7 7 4 15 -4 8 -8 15 -10 15 -2 0
-4 -7 -4 -15z"/>
<path d="M1600 1971 c0 -6 4 -13 10 -16 6 -3 7 1 4 9 -7 18 -14 21 -14 7z"/>
<path d="M1970 1955 c0 -5 5 -17 10 -25 5 -8 10 -10 10 -5 0 6 -5 17 -10 25
-5 8 -10 11 -10 5z"/>
<path d="M3761 1944 c0 -11 3 -14 6 -6 3 7 2 16 -1 19 -3 4 -6 -2 -5 -13z"/>
<path d="M3664 1745 c-10 -8 -33 -15 -50 -15 -56 0 -89 -11 -100 -33 -51 -99
-64 -131 -64 -159 0 -64 -18 -104 -60 -133 -43 -30 -58 -59 -40 -80 8 -10 8
-14 -2 -18 -7 -2 -10 -7 -6 -11 12 -14 87 46 145 117 90 110 171 238 202 320
12 30 4 34 -25 12z"/>
<path d="M3390 1585 c-7 -8 -10 -26 -7 -40 2 -14 -1 -42 -8 -63 -12 -32 -11
-38 2 -46 21 -12 43 18 44 58 0 17 2 48 4 69 4 40 -12 50 -35 22z"/>
<path d="M3731 1530 c-25 -48 -9 -54 19 -7 22 35 25 47 11 47 -5 0 -18 -18
-30 -40z"/>
<path d="M3314 1466 c-3 -9 -15 -16 -25 -16 -11 0 -23 -10 -29 -24 -5 -13 -23
-40 -41 -60 -28 -33 -30 -40 -20 -62 10 -22 8 -26 -14 -34 -25 -9 -29 -30 -11
-58 6 -11 12 -10 26 3 10 9 34 24 52 33 18 10 33 24 33 32 0 8 10 23 23 33 15
13 20 25 16 41 -3 14 3 32 17 50 20 25 21 30 7 40 -8 6 -15 15 -16 19 -1 17
-12 19 -18 3z"/>
<path d="M3680 1450 c-8 -5 -12 -12 -9 -15 4 -3 12 1 19 10 14 17 11 19 -10 5z"/>
<path d="M1002 1353 c3 -67 4 -68 32 -71 16 -2 34 2 40 9 8 9 8 10 -1 5 -7 -4
-14 3 -18 16 -17 57 -39 108 -47 108 -5 0 -8 -30 -6 -67z"/>
<path d="M3537 1260 c-10 -10 -14 -20 -9 -23 4 -4 16 3 25 13 21 25 8 33 -16
10z"/>
<path d="M3464 1173 c-51 -50 -124 -107 -124 -96 0 4 -5 0 -11 -10 -15 -25 -4
-33 17 -13 9 9 30 20 47 23 21 4 33 15 41 35 6 15 16 28 24 28 7 0 16 8 19 18
4 9 14 22 22 29 9 6 13 14 10 18 -4 3 -24 -11 -45 -32z"/>
<path d="M3140 1178 c0 -5 4 -7 9 -3 5 3 11 -5 13 -17 3 -22 3 -22 20 4 l18
27 -30 -1 c-17 -1 -30 -5 -30 -10z"/>
<path d="M3041 1073 c-78 -51 -82 -71 -5 -28 58 33 93 58 94 68 0 14 -18 6
-89 -40z"/>
<path d="M2905 1078 c-49 -9 -99 -43 -89 -59 11 -18 87 -8 140 18 91 44 67 64
-51 41z"/>
<path d="M3285 1030 c-3 -5 -1 -10 4 -10 6 0 11 5 11 10 0 6 -2 10 -4 10 -3 0
-8 -4 -11 -10z"/>
<path d="M2380 741 c0 -5 7 -12 16 -15 14 -5 15 -4 4 9 -14 17 -20 19 -20 6z"/>
</g>
</svg>
